<svg viewBox="0 0 2000 2000" xmlns="http://www.w3.org/2000/svg"><g fill="none" fill-rule="evenodd"><path d="M1598.8 254.6C1581.7 262.4 1560.8 279.7 1525 307.1 1443.9 368.9 1351.7 376.9 1242.3 379.4 1014.8 384.5 909.5 440.2 859.8 511.3 810.1 582.5 816.3 668.2 810.4 731.8 806.3 775.2 798.3 812.3 766.7 853.1 775.3 832 778 816.6 775.9 805.1 773.6 792.9 766.6 784.9 758.5 778.3 750.5 771.8 741.6 766.4 734.5 759 729.1 753.3 725.5 745.7 723.6 736.1 732.6 730.3 743.5 730.1 752 735.3 762.8 741.9 770.1 756.5 764.9 779 767.3 783 768.6 782.9 769.5 782.2 791.8 758.4 801.4 739.3 803 722.9 804.6 706.3 798.1 692.8 789.3 681.1 780.6 669.5 769.5 659.4 761.5 649.5 753.9 640.1 749.4 631.1 751.1 620.8 754.7 617.2 758 614.7 761 613.5 767.5 610.9 772.8 612.6 777.6 617.1 782.3 621.6 786.2 628.9 788.6 636.7 790.9 644.6 791.7 652.9 790.7 659.2 810.3 638.7 816.3 619.6 816.6 603.1 816.9 586.3 811.3 572.3 803.3 560.4 795.3 548.5 785 538.6 775.7 530.2 766.7 522 759 515.2 755 509.1V503.5C761.8 498.6 771 495.8 779.4 497.6 788.7 499.6 797 506.2 800.8 521.1 806.9 490.6 801.3 466.2 790.1 448.1 779.8 431.2 764.4 420 745.8 413.8 754.7 401.9 763.3 392.3 771.5 381.2 788.1 359.1 804 331 800.6 296.2 780.6 315.4 752.6 321.3 723.2 325.3 726.5 319.2 730.9 311 734.7 301.2 739 290 742.3 278.7 740.7 270.3 718.1 288.2 684.4 299.8 654.7 308 639.8 312.1 626 315.4 615.7 318.6 610.5 320.2 606.1 321.8 602.8 323.6 600.7 324.7 599.1 326.1 597.9 327.6 577.2 323.1 557.8 320.1 540.4 319.2 509 317.7 483.4 321.4 466.1 328.4 457.5 331.9 450.8 336.4 446.5 341.5 442.2 346.6 440.4 352.8 441.7 359 442.9 364.8 447.8 370.4 454.2 375.9 409.4 357.4 370.8 350 339.3 349.9 326.4 349.9 314.4 351 303.7 352.9 282.3 356.6 265.5 363.4 253.3 370.3 243.6 375.8 237.8 380.9 233.8 385.1 230.5 388.3 230.2 388.5 230 388.7 239 388.9 245.4 386 252.2 383.4 258.7 383.7 264.5 384.9 270 387 275.9 389.3 281.5 392.2 285.6 394.8 289.8 397.4 292.7 399.8 293.2 400.2 296.5 402.5 300.6 404.4 304.7 406.2 295.9 424.2 292.9 447.1 293.1 480.6 279.4 483 267.4 483.8 254.2 483 235.5 481.8 214.6 477.2 195.7 467.2 198.8 467.8 201.9 468.8 205 468.9 219 469.6 231.3 466.8 240.4 461.8 245.6 460.6 246.1 459.7 246.1 458.7 230.9 451 158.6 417.8 97.5 340.6 95.8 379.7 107.3 469.6 182.1 541.8 184.5 530.1 183.5 523.6 181.8 514 181.6 501.2 180.6 492.6 179.1 485.5 201.4 505.9 224.9 515.1 246.9 518 275 521.7 300.4 515.9 317.2 513.2 320.1 528.6 314 548.9 304 565.7 298.4 575.2 291.8 583.4 284.7 589.1 277.7 594.7 270.4 597.8 263.5 597.3 260.3 602.3 261.3 603.4 262.7 603.4 293.2 603.4 318.5 604.2 346.1 602.5 349.1 606.7 343.3 612.5 336.6 619 336.4 622.8 337.3 623.4 338.4 623.3 342.8 623 343.6 622.7 344.6 622.4 362.5 620.5 384.8 616.8 401.6 604.8 401.2 606.6 400.6 609.1 400 610.6 399.4 612.1 398.2 613.7 396.1 615.8 392 619.2 390 621.1 386.2 623.6 385.1 627.6 385.8 628.3 386.9 628.5 407 626.4 439.9 611.9 463.6 586.9 476 588.5 483.8 594.6 489.2 600.6 492.1 603.8 494.2 606.9 496.6 609 499.8 611.8 498.8 613 499.1 614 499.7 616.2 501.2 618 503.1 619.1 494.2 635.3 491.6 646.8 492.9 654 493.7 658.3 495.6 661.1 497.5 663.1 485.7 671.7 475.9 681 471.1 689.4 468.5 693.9 467.2 698.5 468.3 702.5 455.5 711.2 444.1 722.6 437.9 733.6 434.9 739.1 433.2 744.6 433.6 749.5 433.8 751.7 434.7 753.6 435.9 755.3 421.2 762.8 407.3 779.7 399.7 794.8 395.8 802.6 393.5 809.8 394.1 815.6 394.4 818.5 395.7 821.1 398 822.7 381 832.4 371 850.4 366.7 866.2 364.6 874.3 363.8 881.7 365 887.4 365.5 889.5 366.8 891 368 892.5 361 898 357.8 902.5 356.7 904.2 347.8 915.5 344 933.6 344.6 948.8 344.9 956.4 346.3 963.3 349.1 968.2 350.1 970 351.7 971.1 353.1 972.3 343.3 984.3 339.6 1002.5 340.1 1017.6 340.4 1025.2 341.8 1032.1 344.6 1037.1 346 1039.6 347.8 1041.6 350.2 1042.9 351.1 1046.8 350.2 1048.5 349.4 1050.8 343.1 1065.7 338.8 1059.8 335.8 1055.6 312.7 1007.6 290.1 979.4 268 869.8 264.1 850.6 221.3 820.8 209.6 743.3 207.3 725.7 233.7 688 197.2 676.6 172.1 629.5 121.2 647.4 113 662.9 122.1 665 141.7 671.7 141.8 683.9 130.9 709.6 144.4 731.1 137.2 728.8 136.1 688.7 92.1 689.1 90.7 689.5L71.1 687.4C5.61 687.9 24 735.7 28 745 33 746 34.1 745.3 34.38 744.4 31.48 726.4 45.83 725.5 60.85 732.5 70.4 768.9 90.4 770.2 93.2 770.2 120.6 775.9 129.2 794 129.4 805 120.8 801.6 110.3 799.8 95.5 802.6 85.7 792.6 66.7 789 60.4 787.7 57.3 787.1 36.92 789.7 28.65 801.4-15.1 814 1.64 859.7 15.5 865.3 12.96 850 21.57 842.1 32.1 846.9 47.65 864 66.85 870.9 105.7 848.9 106.3 849.2 119.5 855.1 133.5 860.3 132.9 876.7 150.3 905.3 162.9 926.6 158.9 943.4 152.3 959.9 148.5 966.1 132.4 978.5 118.8 1007.5 125.2 1033.4 120.3 1046.1 102.5 1052.9 102.3 1028.4 92.7 1047.1 119.7 1096.4 161.9 1070.6L170.5 1060.9C184.3 1061.2 199 1042.9 204.2 1027.1 225.1 1155.2 274.4 1284.3 295.1 1326.2 279.8 1373.4 235.3 1371.6 220.8 1356.2 244.3 1387.1 259.3 1395.8 285.9 1395.7 344.7 1395.5 365.2 1359 369.8 1343.5 419.3 1333 457.3 1300.6 471.5 1298 473.7 1299.9 476.8 1303.6 478.8 1305.2 490.6 1314.6 500.4 1319.8 509 1320.8 513.1 1321.3 517 1320.6 520.5 1318.9 523.8 1325.8 528.8 1331.5 535.2 1335.9 532.6 1353.3 530.6 1388.9 518 1434.2 505 1480.9 480.8 1536.6 433.6 1589.4 415.1 1597.5 400 1585 390.4 1577.2 382.3 1570.7 361.3 1548.1 357.6 1536.4 353.2 1522.6 348.1 1513 340.9 1505.9 333.6 1498.7 321.5 1496.3 312.1 1495.4 308.4 1495.7 306.1 1495.4 303.9 1495.7 275.2 1473.1 246.9 1511.2 250.3 1535 259 1527.2 270.4 1529.7 276.2 1537.7 275.3 1546.1 275.9 1555.8 285.2 1566.9 276.1 1567.6 264.5 1570.3 252.5 1584.2 203.5 1590.1 212.4 1645.8 227 1655.1 215.4 1633.7 238.1 1624.7 249.4 1634.2 252.2 1643.4 265.2 1651.8 276.2 1657.1 275.7 1659.9 272 1670.8 273.2 1673.8 220.5 1702.8 269.4 1753.2 281.6 1749.8 285.3 1748.3 285.6 1747.1 285.3 1746.1 277.8 1734.2 277.5 1719.7 290.6 1723.8 297.4 1728.2 310.3 1729.9 317.2 1730.1 333.9 1730.3 343.2 1719.5 364.1 1699.1 376.5 1686.9 386.1 1692.7 393.8 1696.9 394.6 1700.4 396 1704.5 400.2 1706.2 406.3 1708.7 419.7 1710 427.4 1709.8 470.5 1708.5 494.5 1699 514.1 1692.2 533.8 1685.4 551.6 1681.7 568.1 1681.4 583.5 1681.2 593.6 1684.3 610.4 1689.9 618.8 1692.7 632.2 1699.5 638.9 1699.4 649.7 1699 654.6 1693.7 657.3 1689.5 673.4 1686.6 677.5 1693.8 668.1 1712 688.7 1707.6 738.6 1659.8 671.2 1632.5 661 1623.4 647.6 1615.7 637.3 1615.7 627 1615.7 616.7 1619.9 605.9 1622.2 595.1 1624.6 584.7 1626.7 581.1 1626.8 567.3 1627 566.7 1618.5 565.3 1603.2 564 1588 596.1 1534.6 610.4 1515.7 638.6 1478.3 676.3 1435.8 703.4 1407.9 784.2 1404.4 751.6 1452.2 737.9 1461.5 737.5 1465.7 738.8 1466.4 740 1466 770 1458 797.7 1437.9 807 1419.1 807 1419 828.1 1382.4 810.1 1351.3 809.2 1349.5 808.4 1347.1 807.5 1345.1 817.5 1340.4 829.8 1323.3 830.4 1320.9 843.8 1324.8 895.6 1322 900.3 1292.8 924.3 1295.1 967.1 1279.2 968.8 1253.2 971.6 1255.9 977.6 1256 984.4 1254.7 987.1 1276.6 1020.2 1297.4 1027.9 1292.8 1031.2 1329.1 1077 1346.3 1090.3 1340 1088 1348.8 1121.8 1365.3 1135.3 1364.6 1109.4 1434.9 1063.2 1514.3 999.4 1545.9 982.3 1544.2 957.9 1532.8 947.1 1525.5 938.5 1519.7 927.6 1512.4 920.8 1501.5 914 1490.6 914.4 1490.9 907.1 1483.7 899.9 1476.6 885.6 1471.1 880.8 1471.6 877.5 1471.9 871.9 1474.4 866.9 1477.8 804 1466.6 810 1511.5 815.5 1527.8 820.5 1505.6 833.9 1505.6 840.9 1516.5 844.6 1525.7 842.9 1530.1 841.5 1533.3 834.6 1534 827.5 1535.7 819.2 1541.9 763.9 1535.7 768.9 1596.9 786.6 1604 781.1 1588.8 806.1 1566.6 811.9 1593.1 812.9 1604.7 823 1613 831.9 1617.3 830.3 1619.9 826.9 1622.2 826.2 1626.8 767.9 1647.3 800.5 1697.2 817.7 1704.5 816.3 1694.3 818.2 1677.2 842.4 1680.4 844.5 1687.4 855.1 1690.5 863.3 1690.6 880 1690.9 910.4 1668.2 926.5 1659.5 941.7 1651.2 966.3 1654.3 972.6 1654.7 975.9 1657.4 980.8 1660.1 992 1659.9 1050.5 1659.2 1060.7 1627.6 1119.7 1628.5 1146.2 1628.9 1209 1660.2 1229 1631.3 1238 1627.9 1243 1636 1232.1 1646.9 1253.4 1651.7 1305.6 1594.6 1236.6 1576.1 1233.9 1573.2 1225.1 1563.9 1204.5 1563.8 1183.1 1563.8 1168.3 1573.6 1161 1575.7 1145.4 1580.1 1151 1567.5 1152.7 1563.4 1170 1521.1 1253.4 1442.3 1291.2 1410.5 1295 1409 1299.5 1406.7 1305 1403.2 1343 1389.4 1353.2 1426.5 1315.8 1440.1 1314.3 1441.7 1314.1 1444.1 1315.2 1446 1316.3 1448 1318.5 1448.9 1320.6 1448.4 1408.6 1425 1395.3 1376.9 1395.4 1376.3 1398.7 1326.4 1339.3 1305.6 1329.7 1300.9 1313.6 1282.9 1309.9 1272.3 1311 1259.4 1311.6 1253.2 1316.5 1242.5 1324.9 1247.1 1339.2 1258.4 1356.2 1265 1361 1255.8 1350.9 1267.3 1421 1309.3 1427.9 1292 1434.7 1321.9 1485.1 1320.1 1494.8 1311.9 1509.4 1340.2 1560.8 1332.7 1560.7 1327.8 1558.6 1338.2 1605.4 1353.7 1627 1337.6 1645 1360.7 1655.2 1388.5 1666.9 1437.2 1678.6 1485.8 1676.5 1524.4 1660.9 1563.5 1660.1 1564.9 1655.9 1565.1 1651.1 1564.9 1638.6 1560 1631.2 1556.2 1622.8 1549.3 1614.7 1542.8 1605 1533.7 1598 1523.6 1591.4 1511.9 1586.8 1502.6 1579.6 1495.4 1572.3 1488.3 1559.9 1485.1 1550.5 1484.2 1546 1484.6 1542.5 1485.9 1539.3 1488.1 1492.3 1473.5 1469.7 1523.3 1475.3 1539.7 1485 1528.7 1506.7 1522.7 1514.4 1534.1 1515.6 1538.9 1515.2 1542.6 1514.1 1545 1504.3 1546 1492.7 1549 1481.6 1562.9 1426.5 1566.5 1445.4 1620.4 1456.5 1634.4 1459.8 1618.1 1475.7 1599.5 1486.9 1613.7 1491.9 1621.5 1503 1627.2 1510.7 1628.9 1447.7 1658 1492.8 1699.6 1509.9 1706.8 1506.1 1691.9 1510.4 1673.4 1525.1 1678.3 1524.8 1688.5 1545.7 1695.3 1555.3 1695.5 1572 1695.7 1589.7 1681.9 1605.8 1673.2 1621 1664.9 1656.9 1664.5 1664.1 1664.5 1688.2 1687.4 1734.4 1681.6 1760.1 1673.5 1787.7 1664.8 1808.5 1649.6 1830.1 1649 1859.4 1649.2 1882 1684.6 1907.6 1654.5 1924.4 1646.4 1929.4 1667 1921.2 1679.9 1942 1675.4 1986.1 1634.7 1925.9 1605.7 1928.9 1597.9 1902.5 1575.1 1880.4 1575 1853.3 1575 1812.4 1616.2 1796.5 1534.2 1792.6 1514.4 1781.5 1371.5 1780.7 1357.7 1786 1354.3 1793 1350.2 1798.2 1350.4 1804.3 1350.1 1810.4 1349.6 1816.3 1359.1 1822.2 1368.6 1826.8 1382.8 1811.8 1402.4 1853.2 1368.6 1862.3 1329 1852.4 1301.8 1842.5 1274.6 1815 1254.5 1792.9 1254 1766.2 1253.3 1736.7 1237.7 1711.5 1214.2 1686.3 1190.7 1670.6 1164 1660.6 1139.1 1658.7 1134.6 1656.2 1130.2 1654.2 1125.7 1817.2 1069.5 1864 939.6 1864 859.8 1863.9 804.6 1841.2 757.6 1808.9 723.2 1808.3 709.9 1811.8 693 1817.1 678.2 1820.1 669.8 1823.4 662.2 1826.2 656.8 1827.4 654.5 1828.4 652.9 1829.3 651.5 1830.1 654.7 1830.8 657.8 1832.7 662.6 1835.4 669.4 1839.1 677.5 1843.2 685.6 1851.5 702 1861.4 718.6 1869.8 725.7 1880.5 643.6 1908.1 525.9 1997.6 417.5 1999.5 412.6 1998.3 411.9 1997.1 412.1 1976.1 421.9 1957.7 431.3 1941.1 440.6 1795.5 518.1 1769.4 570.5 1688.9 632.8 1688.4 636.9 1689.5 637.5 1690.6 637.3 1730.3 635.4 1764.7 626.6 1795.9 610.7 1787.8 623.6 1778.7 639.4 1769.8 653.4 1764.6 661.6 1759.6 668.9 1755.4 673.6 1753.4 676 1751.6 677.9 1750.2 678.8 1727.6 669 1705.1 663.3 1683.6 663.2 1603.3 663 1547.8 716.5 1547.4 781 1546.9 850 1600.6 901.4 1653.9 898.8 1672.3 897.8 1697 893.1 1718.8 878.7 1734.6 868.1 1748.6 852 1756.8 829.4 1757 831.3 1757.5 833 1757.5 834.9 1757.5 872 1743.3 897.3 1720.2 914.5 1697 931.7 1664.2 940.5 1627.6 941.3 1591.7 942 1554.9 922.5 1503 901.6 1451 880.6 1384 858.8 1288.1 857.2 1259.4 856.7 1232.1 859.5 1209.3 871.3 1217.4 859.5 1232.1 846.4 1249.7 836.8 1291.4 814 1344.4 807.9 1391.8 827.3 1396.9 829.7 1402.9 832.8 1407.3 834.6 1410.9 836.1 1413 836 1416.1 837.1 1417 842.8 1417 847.3 1416 849.5 1411.2 852.2 1410.1 852.5 1408.5 852.2 1405.6 856.5 1406.1 857.6 1407.1 858.1 1412.8 862.2 1416.9 864.1 1420.9 863.2 1425.9 862.1 1430 858.2 1433.3 853.6 1436.6 849 1439 843.5 1440.3 838.5 1444.4 832.5 1447.3 825.9 1446 818.4 1444.6 810.5 1438.1 802.2 1425.7 795.5 1424.8 794.4 1422.3 791.7 1420.2 787.4 1418 783 1416 776.9 1414.4 769.9 1411.4 755.9 1410.5 738 1414.4 720.2 1422.4 684.7 1448.6 649.1 1520.5 642 1535.1 644.3 1547.5 646.2 1557 646.1 1561.7 646.4 1562.3 647 1562.9 647.9 1563.9 649.8 1564.6 651.9 1564.3 654.5 1564 656.5 1562.3 659.1 1560.2 661.8 1558 664.3 1558.5 666.2 1558.5 666.2 1567.8 669 1572.2 668.9 1575.9 666.3 1580.9 662.8 1585 657 1587.5 650.6 1590 644.2 1590.9 637 1588.7 631 1587.3 626.9 1583.7 624.1 1579.1 622.1 1522.4 562.9 1524.7 491.1 1547.1 430.5 1558.3 400.1 1574.6 372.8 1590.9 352.3 1607.2 331.7 1625.1 317 1633.9 313.9 1637.7 314.3 1641.3 314.6 1644.6 313.6 1649.6 312.2 1654.1 309.7 1658.1 306.6 1662.1 305.5 1662.9 305.2 1663.8 304.9 1670.3 304.2 1670.9 304.5 1671.2 304.7 1672.1 306.9 1671.5 310.1 1668.6 315 1676.9 317.4 1681.3 314.8 1685.2 310.7 1689.5 306 1693.1 300.2 1694.8 294.1 1696.5 288.1 1696.2 281.5 1691.8 277 1688.2 273.2 1681.5 271.6 1672.8 271.7 1671.2 268.2 1668.5 265.2 1664.6 263.5 1661 261.8 1656.2 261.6 1651.1 261.7 1638.6 255 1630.8 251.5 1622.9 250.4 1615.1 249.3 1607.4 250.7 1598.8 254.6M1682.3 756.8C1688.4 757 1695.1 758.2 1701.8 760.7 1706.9 762.5 1711.9 765.6 1716.9 768.5 1716.1 769.3 1715.6 770.3 1715.3 771.4 1706.3 802.9 1690 812 1676.6 811.8 1663.2 811.5 1652 801.6 1651.9 788.4 1651.8 771.8 1657.7 764.1 1666.4 760 1670.7 757.8 1676.2 756.7 1682.3 756.8M377.8 506.8C394.8 506.9 411.6 509.7 427.1 516.6 423.8 519.3 419.6 521.3 414.6 522.4 404.8 524.6 392.6 524 380.9 521.8 369.4 519.6 358.3 515.7 350.9 512 348.7 510.8 347.6 509.8 346.1 508.8 356.5 507.6 367.2 506.7 377.8 506.8" id="Fimbriation" fill="#d0011b"/><path d="M1622.9 250.4C1615.1 249.3 1607.4 250.7 1598.8 254.6 1581.7 262.4 1560.8 279.7 1525 307.1 1443.9 368.9 1351.7 376.9 1242.3 379.4 1014.8 384.5 909.5 440.2 859.8 511.3 810.1 582.5 816.3 668.2 810.4 731.8 806.3 775.2 798.3 812.3 766.7 853.1 775.3 832 778 816.6 775.9 805.1 773.6 792.9 766.6 784.9 758.5 778.3 750.5 771.8 741.6 766.4 734.5 759 729.1 753.3 725.5 745.7 723.6 736.1 732.6 730.3 743.5 730.1 752 735.3 762.8 741.9 770.1 756.5 764.9 779 764.7 779.9 765.5 780.6 766.3 781.1 766.4 781.5 766.1 782 766.4 782.2 767.3 783 768.6 782.9 769.5 782.2 769.6 782.1 769.7 782 769.8 781.9 769.9 781.9 769.8 781.8 769.8 781.8 791.8 758.4 801.4 739.3 803 722.9 804.6 706.3 798.1 692.8 789.3 681.1 780.6 669.5 769.5 659.4 761.5 649.5 753.9 640.1 749.4 631.1 751.1 620.8 754.7 617.2 758 614.7 761 613.5 767.5 610.9 772.8 612.6 777.6 617.1 782.3 621.6 786.2 628.9 788.6 636.7 790.9 644.6 791.7 652.9 790.7 659.2 790.7 659.3 790.9 659.3 790.9 659.5 790.6 660.6 791.1 661.7 792.1 662.3 793.2 662.8 794.5 662.6 795.2 661.7 795.3 661.5 795.4 661.4 795.5 661.2 795.6 661.1 795.6 661 795.7 660.9 810.3 638.7 816.3 619.6 816.6 603.1 816.9 586.3 811.3 572.3 803.3 560.4 795.3 548.5 785 538.6 775.7 530.2 766.7 522 759 515.2 755 509.1V503.5C761.8 498.6 771 495.8 779.4 497.6 788.7 499.6 797 506.2 800.8 521.1 800.8 521.3 801 521.2 801.1 521.3 801.2 522.5 802.2 523.6 803.4 523.6 804.8 523.6 805.9 522.5 805.9 521.1V521C806.9 490.6 801.3 466.2 790.1 448.1 779.8 431.2 764.4 420 745.8 413.8 746.6 412.6 747.3 411.5 748.3 410.2 754.7 401.9 763.3 392.3 771.5 381.2 788.1 359.1 804 331 800.6 296.2 800.6 295.9 800.3 295.7 800.2 295.4 800 295.1 800.1 294.7 799.9 294.5 799.4 294 798.7 293.8 798 293.8 797.6 293.9 797.6 294.4 797.2 294.6 796.8 294.8 796.4 294.9 796.2 295.2 780.6 315.4 752.6 321.3 723.2 325.3 726.5 319.2 730.9 311 734.7 301.2 739 290 742.3 278.7 740.7 270.3V270.2C740.7 269.9 740.8 269.6 740.7 269.4 740.6 268.7 740.2 268.2 739.7 267.8 739.1 267.5 738.3 267.3 737.6 267.5 737.4 267.6 737.4 267.9 737.2 268 736.8 268.1 736.4 268.3 736.1 268.6 718.1 288.2 684.4 299.8 654.7 308 639.8 312.1 626 315.4 615.7 318.6 610.5 320.2 606.1 321.8 602.8 323.6 600.7 324.7 599.1 326.1 597.9 327.6 577.2 323.1 557.8 320.1 540.4 319.2 509 317.7 483.4 321.4 466.1 328.4 457.5 331.9 450.8 336.4 446.5 341.5 442.2 346.6 440.4 352.8 441.7 359 442.9 364.8 447.8 370.4 454.2 375.9 409.4 357.4 370.8 350 339.3 349.9 326.4 349.9 314.4 351 303.7 352.9 282.3 356.6 265.5 363.4 253.3 370.3 243.6 375.8 237.8 380.9 233.8 385.1 233.3 385.5 232.6 385.6 232.2 386.1 232.1 386.2 232 386.1 231.9 386.2 231.8 386.4 232 386.6 231.9 386.8 231.7 387.1 231.2 387.5 231 387.8 230.9 387.8 230.8 387.9 230.7 387.9V388.1C230.5 388.3 230.2 388.5 230 388.7 229.4 389.7 229.4 391 230.2 391.8 231 392.7 232.3 392.9 233.3 392.3 239 388.9 245.4 386 252.2 383.4 252.5 383.5 252.8 383.6 253.1 383.6 258.7 383.7 264.5 384.9 270 387 275.9 389.3 281.5 392.2 285.6 394.8 289.8 397.4 292.7 399.8 293.2 400.2 293.3 400.4 293.4 400.5 293.5 400.5 296.5 402.5 300.6 404.4 304.7 406.2 295.9 424.2 292.9 447.1 293.1 480.6 291.5 480.9 290.4 481.3 288.6 481.6 279.4 483 267.4 483.8 254.2 483 235.5 481.8 214.6 477.2 195.7 467.2 198.8 467.8 201.9 468.8 205 468.9 219 469.6 231.3 466.8 240.4 461.8 241.8 461.5 243.5 461.4 244.6 461 245.6 460.6 246.1 459.7 246.1 458.7 246.1 458 245.6 457.6 245.1 457.1 244.8 456.9 244.9 456.4 244.6 456.3 230.9 451 158.6 417.8 97.5 340.6 97.5 340.5 97.4 340.5 97.4 340.4 97.3 340.4 97.3 340.3 97.2 340.3 96.7 339.5 95.8 339.2 94.9 339.3 93.7 339.6 92.8 340.7 92.9 342 92.9 342.3 92.9 342.6 93.1 342.9 95.8 379.7 107.3 469.6 182.1 541.8 182.8 542.6 184.1 542.8 185 542.3 186 541.8 186.4 540.7 186.2 539.7 184.5 530.1 183.5 523.6 181.8 514 181.7 513.8 181.5 513.8 181.4 513.7 181.6 501.2 180.6 492.6 179.1 485.5 201.4 505.9 224.9 515.1 246.9 518 275 521.7 300.4 515.9 317.2 513.2 318 513 319 512.9 319.8 512.7 320.1 528.6 314 548.9 304 565.7 298.4 575.2 291.8 583.4 284.7 589.1 277.7 594.7 270.4 597.8 263.5 597.3H263.3C262.2 597.5 261.4 598.5 261.3 599.6 260.9 600.1 260.2 600.2 260.2 600.9 260.3 602.3 261.3 603.4 262.7 603.4 293.2 603.4 318.5 604.2 346.1 602.5H346.3C349.8 602 351.3 602.5 351.4 602.5 351.3 602.7 351.3 603 350.9 603.5 349.1 606.7 343.3 612.5 336.6 619 335.7 619.7 335.5 620.8 335.9 621.8 336.4 622.8 337.3 623.4 338.4 623.3 338.5 623.3 338.7 623.2 338.9 623.2 339.5 623.7 340.3 623.8 341 623.6 341.3 623.6 341.5 623.4 341.8 623.3 342.8 623 343.6 622.7 344.6 622.4 362.5 620.5 384.8 616.8 401.6 604.8 401.2 606.6 400.6 609.1 400 610.6 399.4 612.1 398.2 613.7 396.1 615.8 395.9 616.1 395.2 616.6 394.9 616.9 392 619.2 390 621.1 386.2 623.6 386.1 623.8 386 623.8 385.8 623.9 384.9 624.5 384.6 625.6 384.8 626.6 385.1 627.6 385.8 628.3 386.9 628.5H387.5 387.8C387.9 628.5 388.1 628.3 388.3 628.3 407 626.4 439.9 611.9 463.6 586.9 476 588.5 483.8 594.6 489.2 600.6 492.1 603.8 494.2 606.9 496.6 609 497.5 609.8 498.7 610.3 499.9 610.7 499.8 611.8 498.8 613 499.1 614 499.7 616.2 501.2 618 503.1 619.1 494.2 635.3 491.6 646.8 492.9 654 493.7 658.3 495.6 661.1 497.5 663.1 485.7 671.7 475.9 681 471.1 689.4 468.5 693.9 467.2 698.5 468.3 702.5 468.6 703.6 469.5 704.5 470.1 705.4 469.2 705.5 468.4 705.2 467.4 705.6H467.2C455.5 711.2 444.1 722.6 437.9 733.6 434.9 739.1 433.2 744.6 433.6 749.5 433.8 751.7 434.7 753.6 435.9 755.3 421.2 762.8 407.3 779.7 399.7 794.8 395.8 802.6 393.5 809.8 394.1 815.6 394.4 818.5 395.7 821.1 398 822.7 397.5 823.2 397.1 823.6 396.6 824.1 396.4 824.4 396.1 824.5 395.8 824.8 381 832.4 371 850.4 366.7 866.2 364.6 874.3 363.8 881.7 365 887.4 365.5 889.5 366.8 891 368 892.5 367.2 893.1 366.2 893.5 365.5 894.1 361 898 357.8 902.5 356.7 904.2 356.7 904.2 356.5 904.3 356.5 904.4 347.8 915.5 344 933.6 344.6 948.8 344.9 956.4 346.3 963.3 349.1 968.2 350.1 970 351.7 971.1 353.1 972.3 352.9 972.5 352.3 972.9 352.2 973.1 352.2 973.1 352.1 973.2 352 973.2 343.3 984.3 339.6 1002.5 340.1 1017.6 340.4 1025.2 341.8 1032.1 344.6 1037.1 346 1039.6 347.8 1041.6 350.2 1042.9 351.4 1043.5 352.8 1043.1 354.2 1043.2 353.9 1043.7 352.9 1044.7 352.7 1045 352.6 1045.1 352.6 1045.3 352.5 1045.4 351.1 1046.8 350.2 1048.5 349.4 1050.8 349 1051.9 348.8 1053.5 348.5 1054.9 343.1 1065.7 338.8 1059.8 335.8 1055.6 312.7 1007.6 290.1 979.4 268 869.8 264.1 850.6 221.3 820.8 209.6 743.3 207.3 725.7 233.7 688 197.2 676.6H196.9C172.1 629.5 121.2 647.4 113 662.9 112.3 663.7 112.3 665 112.9 665.9 113.4 666.7 114.4 667 115.5 666.8 122.1 665 141.7 671.7 141.8 683.9 130.9 709.6 144.4 731.1 137.2 728.8 136.1 688.7 92.1 689.1 90.7 689.5V689.7L71.1 687.4C5.61 687.9 24 735.7 28 745 28.68 745.8 30.2 746.2 31.6 746.1 33 746 34.1 745.3 34.38 744.4 31.48 726.4 45.83 725.5 60.85 732.5 70.4 768.9 90.4 770.2 93.2 770.2V770.4H93.5C120.6 775.9 129.2 794 129.4 805 120.8 801.6 110.3 799.8 95.5 802.6 85.7 792.6 66.7 789 60.4 787.7 57.3 787.1 36.92 789.7 28.65 801.4L25.56 800.9C-15.1 814 1.64 859.7 15.5 865.3 16 866 16.96 866.3 17.82 866 18.67 865.8 19 865 19.1 864 12.96 850 21.57 842.1 32.1 846.9 47.65 864 66.85 870.9 105.7 848.9 106.3 849.2 119.5 855.1 133.5 860.3 132.9 876.7 150.3 905.3 162.9 926.6 158.9 943.4 152.3 959.9 148.5 966.1 148.4 966.1 148.2 966.3 148.2 966.4 132.4 978.5 118.8 1007.5 125.2 1033.4 120.3 1046.1 102.5 1052.9 102.3 1028.4 101.5 1027.7 100.5 1027.5 99.6 1028.1 98.7 1028.6 98.2 1029.6 98.5 1030.7 92.7 1047.1 119.7 1096.4 161.9 1070.6L170.5 1060.9C184.3 1061.2 199 1042.9 204.2 1027.1 225.1 1155.2 274.4 1284.3 295.1 1326.2 279.8 1373.4 235.3 1371.6 220.8 1356.2 220.6 1356.1 220.5 1356 220.3 1355.8 219.2 1355 217.7 1355.2 216.9 1356.3 216 1357.4 216.1 1358.9 217.2 1359.7 244.3 1387.1 259.3 1395.8 285.9 1395.7 344.7 1395.5 365.2 1359 369.8 1343.5 419.3 1333 457.3 1300.6 471.5 1298 473.7 1299.9 476.8 1303.6 478.8 1305.2 490.6 1314.6 500.4 1319.8 509 1320.8 513.1 1321.3 517 1320.6 520.5 1318.9 523.8 1325.8 528.8 1331.5 535.2 1335.9 532.6 1353.3 530.6 1388.9 518 1434.2 505 1480.9 480.8 1536.6 433.6 1589.4 415.1 1597.5 400 1585 390.4 1577.2 382.3 1570.7 361.3 1548.1 357.6 1536.4 353.2 1522.6 348.1 1513 340.9 1505.9 333.6 1498.7 321.5 1496.3 312.1 1495.4 312 1495.4 315.6 1496.1 311.8 1495.4 308.4 1495.7 306.1 1495.4 303.9 1495.7 275.2 1473.1 246.9 1511.2 250.3 1535 250.4 1536 251.1 1536.9 252.2 1537.2 253.3 1537.5 254.5 1537.1 255.1 1536.3 259 1527.2 270.4 1529.7 276.2 1537.7 275.3 1546.1 275.9 1555.8 285.2 1566.9 276.1 1567.6 264.5 1570.3 252.5 1584.2 203.5 1590.1 212.4 1645.8 227 1655.1 227.4 1656.1 228.4 1656.7 229.4 1656.5 230.5 1656.4 231.2 1655.6 231.4 1654.5 215.4 1633.7 238.1 1624.7 249.4 1634.2 252.2 1643.4 265.2 1651.8 276.2 1657.1 275.7 1659.9 272 1670.8 273.2 1673.8 220.5 1702.8 269.4 1753.2 281.6 1749.8 282.6 1749.6 283.5 1749.5 284.4 1748.9 285.3 1748.3 285.6 1747.1 285.3 1746.1 277.8 1734.2 277.5 1719.7 290.6 1723.8 297.4 1728.2 310.3 1729.9 317.2 1730.1 333.9 1730.3 343.2 1719.5 364.1 1699.1 376.5 1686.9 386.1 1692.7 393.8 1696.9 394.6 1700.4 396 1704.5 400.2 1706.2 406.3 1708.7 419.7 1710 427.4 1709.8 470.5 1708.5 494.5 1699 514.1 1692.2 533.8 1685.4 551.6 1681.7 568.1 1681.4 583.5 1681.2 593.6 1684.3 610.4 1689.9 618.8 1692.7 632.2 1699.5 638.9 1699.4 649.7 1699 654.6 1693.7 657.3 1689.5 673.4 1686.6 677.5 1693.8 668.1 1712 667.9 1713 668.3 1714.2 669.2 1714.8 670.1 1715.4 671.2 1715.3 672 1714.6 688.7 1707.6 738.6 1659.8 671.2 1632.5 661 1623.4 647.6 1615.7 637.3 1615.7 627 1615.7 616.7 1619.9 605.9 1622.2 595.1 1624.6 584.7 1626.7 581.1 1626.8 567.3 1627 566.7 1618.5 565.3 1603.2 564 1588 596.1 1534.6 610.4 1515.7 638.6 1478.3 676.3 1435.8 703.4 1407.9 784.2 1404.4 751.6 1452.2 737.9 1461.5 736.9 1462.1 736.5 1463.4 737 1464.6 737.5 1465.7 738.8 1466.4 740 1466 740.2 1465.9 740.5 1465.8 740.7 1465.7 770 1458 797.7 1437.9 807 1419.1 807 1419 828.1 1382.4 810.1 1351.3 809.2 1349.5 808.4 1347.1 807.5 1345.1 817.5 1340.4 829.8 1323.3 830.4 1320.9 843.8 1324.8 895.6 1322 900.3 1292.8 924.3 1295.1 967.1 1279.2 968.8 1253.2 971.6 1255.9 977.6 1256 984.4 1254.7 987.1 1276.6 1020.2 1297.4 1027.9 1292.8 1031.2 1329.1 1077 1346.3 1090.3 1340 1088 1348.8 1121.8 1365.3 1135.3 1364.6 1109.4 1434.9 1063.2 1514.3 999.4 1545.9 982.3 1544.2 957.9 1532.8 947.1 1525.5 938.5 1519.7 927.6 1512.4 920.8 1501.5 914 1490.6 914.4 1490.9 907.1 1483.7 899.9 1476.6 885.6 1471.1 880.8 1471.6 877.5 1471.9 871.9 1474.4 866.9 1477.8 804 1466.6 810 1511.5 815.5 1527.8 815.6 1528.8 816.3 1529.7 817.4 1530 818.5 1530.3 819.6 1529.9 820.3 1529.1 820.5 1505.6 833.9 1505.6 840.9 1516.5 840.8 1516.9 840.6 1517.2 840.7 1517.6 844.6 1525.7 842.9 1530.1 841.5 1533.3 834.6 1534 827.5 1535.7 819.2 1541.9 763.9 1535.7 768.9 1596.9 786.6 1604 787 1605 788 1605.6 789 1605.4 790.1 1605.3 790.8 1604.5 791 1603.4 781.1 1588.8 806.1 1566.6 811.9 1593.1 811.9 1593.1 812 1593.2 811.9 1593.3 811.3 1594 811.2 1595.2 811.6 1596.1 812.9 1604.7 823 1613 831.9 1617.3 830.3 1619.9 826.9 1622.2 826.2 1626.8 767.9 1647.3 800.5 1697.2 817.7 1704.5 818.5 1705.1 819.7 1705.1 820.6 1704.5 821.5 1703.9 821.8 1702.9 821.5 1701.9 816.3 1694.3 818.2 1677.2 842.4 1680.4 844.5 1687.4 855.1 1690.5 863.3 1690.6 880 1690.9 910.4 1668.2 926.5 1659.5 941.7 1651.2 966.3 1654.3 972.6 1654.7 975.9 1657.4 980.8 1660.1 992 1659.9 1050.5 1659.2 1060.7 1627.6 1119.7 1628.5 1146.2 1628.9 1209 1660.2 1229 1631.3 1238 1627.9 1243 1636 1232.1 1646.9 1231.3 1647.6 1232.3 1649.1 1233.2 1649.7 1234 1650.3 1234.9 1649.4 1235.9 1649.5 1253.4 1651.7 1305.6 1594.6 1236.6 1576.1 1236.2 1575.5 1236.3 1575.1 1235.5 1574.4 1233.9 1573.2 1225.1 1563.9 1204.5 1563.8 1183.1 1563.8 1168.3 1573.6 1161 1575.7 1145.4 1580.1 1151 1567.5 1152.7 1563.4 1170 1521.1 1253.4 1442.3 1291.2 1410.5 1295 1409 1299.5 1406.7 1305 1403.2 1343 1389.4 1353.2 1426.5 1315.8 1440.1 1314.3 1441.7 1314.1 1444.1 1315.2 1446 1316.3 1448 1318.5 1448.9 1320.6 1448.4 1408.6 1425 1395.3 1376.9 1395.4 1376.3 1398.7 1326.4 1339.3 1305.6 1329.7 1300.9 1313.6 1282.9 1309.9 1272.3 1311 1259.4 1311.6 1253.2 1316.5 1242.5 1324.9 1247.1 1339.2 1258.4 1356.2 1265 1361 1255.8 1350.9 1267.3 1421 1309.3 1427.9 1292 1434.7 1321.9 1485.1 1320.1 1494.8 1311.9 1509.4 1340.2 1560.8 1332.7 1560.7 1327.8 1558.6 1338.2 1605.4 1353.7 1627 1337.6L1627.9 1340C1645 1360.7 1655.2 1388.5 1666.9 1437.2 1678.6 1485.8 1676.5 1524.4 1660.9 1563.5 1660.1 1564.9 1655.9 1565.1 1651.1 1564.9 1638.6 1560 1631.2 1556.2 1622.8 1549.3 1614.7 1542.8 1605 1533.7 1598 1523.6 1591.4 1511.9 1586.8 1502.6 1579.6 1495.4 1572.3 1488.3 1559.9 1485.1 1550.5 1484.2H1550.2C1546 1484.6 1542.5 1485.9 1539.3 1488.1 1492.3 1473.5 1469.7 1523.3 1475.3 1539.7 1475.3 1540.7 1476.2 1541.6 1477.3 1541.9 1478.4 1542.1 1479.5 1541.7 1480.2 1540.9 1485 1528.7 1506.7 1522.7 1514.4 1534.1 1515.6 1538.9 1515.2 1542.6 1514.1 1545 1504.3 1546 1492.7 1549 1481.6 1562.9 1426.5 1566.5 1445.4 1620.4 1456.5 1634.4 1457 1635.4 1458 1635.9 1459 1635.8 1460 1635.7 1461 1634.9 1461.2 1633.8 1459.8 1618.1 1475.7 1599.5 1486.9 1613.7 1491.9 1621.5 1503 1627.2 1510.7 1628.9 1447.7 1658 1492.8 1699.6 1509.9 1706.8 1510.8 1707.5 1511.8 1707.4 1512.7 1706.8 1513.6 1706.2 1514.1 1705.2 1513.8 1704.2 1506.1 1691.9 1510.4 1673.4 1525.1 1678.3 1524.8 1688.5 1545.7 1695.3 1555.3 1695.5 1572 1695.7 1589.7 1681.9 1605.8 1673.2 1621 1664.9 1656.9 1664.5 1664.1 1664.5 1688.2 1687.4 1734.4 1681.6 1760.1 1673.5 1787.7 1664.8 1808.5 1649.6 1830.1 1649 1859.4 1649.2 1882 1684.6 1907.6 1654.5 1924.4 1646.4 1929.4 1667 1921.2 1679.9 1921 1680.9 1921.3 1681.9 1922.2 1682.5 1923 1683.1 1924.3 1683.2 1925.1 1682.5 1942 1675.4 1986.1 1634.7 1925.9 1605.7 1928.9 1597.9 1902.5 1575.1 1880.4 1575 1853.3 1575 1812.4 1616.2 1796.5 1534.2 1792.6 1514.4 1781.5 1371.5 1780.7 1357.7 1786 1354.3 1793 1350.2 1798.2 1350.4 1804.3 1350.1 1810.4 1349.6 1816.3 1359.1 1822.2 1368.6 1826.8 1382.8 1811.8 1402.4 1811.6 1402.7 1812 1403 1812 1403.4 1811.8 1403.8 1811.4 1404.1 1811.5 1404.6 1811.6 1404.9 1811.9 1405 1812.1 1405.2 1812.3 1405.5 1812 1405.8 1812.3 1406 1812.5 1406.2 1812.7 1405.9 1812.9 1406 1813.1 1406.1 1813.1 1406.4 1813.3 1406.5 1814.3 1406.7 1815.2 1406.4 1815.8 1405.7 1853.2 1368.6 1862.3 1329 1852.4 1301.8 1842.5 1274.6 1815 1254.5 1792.9 1254 1766.2 1253.3 1736.7 1237.7 1711.5 1214.2 1686.3 1190.7 1670.6 1164 1660.6 1139.1 1658.7 1134.6 1656.2 1130.2 1654.2 1125.7 1817.2 1069.5 1864 939.6 1864 859.8 1863.9 804.6 1841.2 757.6 1808.9 723.2 1808.3 709.9 1811.8 693 1817.1 678.2 1820.1 669.8 1823.4 662.2 1826.2 656.8 1827.4 654.5 1828.4 652.9 1829.3 651.5 1830.1 654.7 1830.8 657.8 1832.7 662.6 1835.4 669.4 1839.1 677.5 1843.2 685.6 1851.5 702 1861.4 718.6 1869.8 725.7 1870.6 726.3 1871.5 726.3 1872.3 726 1873.2 725.6 1873.8 724.9 1873.9 724 1880.5 643.6 1908.1 525.9 1997.6 417.5L1997.7 417.4V417.2C1998 417.1 1998.3 416.9 1998.6 416.8 1999.7 416.2 2000.3 415 1999.9 413.8 1999.5 412.6 1998.3 411.9 1997.1 412.1 1996.9 412.1 1996.8 412.2 1996.6 412.2 1996.6 412.3 1996.5 412.2 1996.5 412.2 1976.1 421.9 1957.7 431.3 1941.1 440.6 1795.5 518.1 1769.4 570.5 1688.9 632.8 1688 633.5 1687.6 634.7 1688 635.8 1688.4 636.9 1689.5 637.5 1690.6 637.3 1730.3 635.4 1764.7 626.6 1795.9 610.7 1787.8 623.6 1778.7 639.4 1769.8 653.4 1764.6 661.6 1759.6 668.9 1755.4 673.6 1753.4 676 1751.6 677.9 1750.2 678.8 1749.5 679.2 1749.5 679 1749.1 679.1 1727.6 669 1705.1 663.3 1683.6 663.2 1603.3 663 1547.8 716.5 1547.4 781 1546.9 850 1600.6 901.4 1653.9 898.8 1672.3 897.8 1697 893.1 1718.8 878.7 1734.6 868.1 1748.6 852 1756.8 829.4 1757 831.3 1757.5 833 1757.5 834.9 1757.5 872 1743.3 897.3 1720.2 914.5 1697 931.7 1664.2 940.5 1627.6 941.3 1591.7 942 1554.9 922.5 1503 901.6 1451 880.6 1384 858.8 1288.1 857.2 1259.4 856.7 1232.1 859.5 1209.3 871.3 1207.8 872.1 1206.6 873.3 1205.1 874.1 1217.4 859.5 1232.1 846.4 1249.7 836.8 1291.4 814 1344.4 807.9 1391.8 827.3 1396.9 829.7 1402.9 832.8 1407.3 834.6 1410.9 836.1 1413 836 1416.1 837.1 1417 842.8 1417 847.3 1416 849.5 1415.4 850.7 1414.8 851.1 1414 851.6 1413.5 851.8 1412.9 851.9 1412.3 852 1411.2 852.2 1410.1 852.5 1408.5 852.2 1407.7 852 1406.8 852.3 1406.2 853 1405.6 853.6 1405.5 854.6 1405.8 855.5 1405.6 856.5 1406.1 857.6 1407.1 858.1 1407.8 858.4 1408.4 858.3 1409 858.6 1412.8 862.2 1416.9 864.1 1420.9 863.2 1425.9 862.1 1430 858.2 1433.3 853.6 1436.6 849 1439 843.5 1440.3 838.5 1440.4 837.9 1440.3 837.5 1440.4 836.9 1444.4 832.5 1447.3 825.9 1446 818.4 1444.6 810.5 1438.1 802.2 1425.7 795.5 1425.5 795.3 1425.5 794.9 1425.3 794.7 1424.8 794.4 1422.3 791.7 1420.2 787.4 1418 783 1416 776.9 1414.4 769.9 1411.4 755.9 1410.5 738 1414.4 720.2 1422.4 684.7 1448.6 649.1 1520.5 642 1520.8 642 1520.9 641.6 1521.2 641.6 1535.1 644.3 1547.5 646.2 1557 646.1 1558.5 646 1559.6 645.7 1561 645.6 1561.7 646.4 1562.3 647 1562.9 647.9 1563.9 649.8 1564.6 651.9 1564.3 654.5 1564 656.5 1562.3 659.1 1560.2 661.8 1560.1 661.8 1560.1 661.9 1559.9 662 1559.1 662.2 1558.5 662.7 1558.2 663.5 1558 664.3 1558.1 665.2 1558.5 665.9V666 666.2H1558.7V666.3C1559 667.2 1559.7 667.8 1560.6 668 1561.6 668.2 1562.5 667.7 1563.5 667.7 1567.8 669 1572.2 668.9 1575.9 666.3 1580.9 662.8 1585 657 1587.5 650.6 1590 644.2 1590.9 637 1588.7 631 1587.3 626.9 1583.7 624.1 1579.1 622.1 1522.4 562.9 1524.7 491.1 1547.1 430.5 1558.3 400.1 1574.6 372.8 1590.9 352.3 1607.2 331.7 1625.1 317 1633.9 313.9 1634.4 313.8 1633.7 314.3 1634.1 314.1 1637.7 314.3 1641.3 314.6 1644.6 313.6 1649.6 312.2 1654.1 309.7 1658.1 306.6 1658.3 306.8 1658.1 307.3 1658.4 307.4 1659.6 307.8 1661 307.2 1661.5 306L1661.6 305.8C1662.1 305.5 1662.9 305.2 1663.8 304.9 1665.6 304.3 1668 303.9 1669.5 304.1 1670.3 304.2 1670.9 304.5 1671.2 304.7 1671.5 305 1671.7 305.1 1671.9 305.7 1672.1 306.9 1671.5 310.1 1668.6 315 1668.5 315.1 1668.5 315.1 1668.5 315.2 1668.4 315.2 1668.4 315.3 1668.5 315.3 1668.4 315.4 1668.4 315.4 1668.5 315.5 1668.1 316.1 1668.1 316.8 1668.3 317.5 1668.3 317.6 1668.4 317.6 1668.5 317.7 1668.4 317.7 1668.4 317.8 1668.5 317.8H1668.6C1668.7 317.9 1668.7 318 1668.8 318.1 1668.8 318.2 1668.9 318.2 1668.9 318.3 1669 318.3 1669 318.4 1669.1 318.4 1669.3 318.6 1669.5 318.7 1669.7 318.8 1669.8 318.8 1669.9 318.9 1670 318.9H1670.3 1670.6 1670.9C1671.2 318.9 1671.5 318.9 1671.7 318.8 1671.9 318.7 1672 318.5 1672.2 318.4 1672.2 318.4 1672.2 318.4 1672.3 318.3 1676.9 317.4 1681.3 314.8 1685.2 310.7 1689.5 306 1693.1 300.2 1694.8 294.1 1696.5 288.1 1696.2 281.5 1691.8 277 1688.2 273.2 1681.5 271.6 1672.8 271.7 1671.2 268.2 1668.5 265.2 1664.6 263.5 1661 261.8 1656.2 261.6 1651.1 261.7L1647.7 260.8C1638.6 255 1630.8 251.5 1622.9 250.4M1624 258.9C1593.6 289.3 1563.5 310.7 1520.8 336.8 1445.9 382.7 1358.2 394.4 1248.9 400.1 1027.6 411.7 929.5 454.9 884.1 517.1 838.6 579.2 846.3 659.1 834.7 742.7 831.1 768.8 823.2 800.1 809 826.6 797 849 780.4 867.5 758.2 877.6 819.7 821.9 820.1 767.5 825.3 735.6 834.6 678.4 824.2 597.1 868.6 527.8 913 458.5 1012.5 400.3 1243.4 391.5 1338.6 387.9 1396.7 378.7 1437 366.7 1477.3 354.8 1499.9 340 1523.1 325.8 1547.1 311.1 1566.9 288.9 1586.1 274 1595.7 266.6 1605.1 261.1 1614.7 259.1 1617.8 258.5 1620.9 258.8 1624 258.9M1651 271.6C1655.2 271.4 1658.7 271.7 1660.6 272.5 1662.7 273.5 1663.6 274.6 1664.1 276.1 1665.1 279.1 1663.7 285.2 1659.5 291 1655.3 296.8 1648.7 302 1641.8 304 1634.9 305.9 1622.7 300.6 1620.9 299 1620.1 298.1 1618.8 298.3 1617.7 298.2 1616.5 296.9 1615.3 295.5 1614.1 294.1 1613.6 293.5 1612.8 293.1 1611.9 293.2 1611.4 293.3 1610.9 293.5 1610.6 293.8 1501.3 393.7 1408.2 412.7 1254.7 423.3 1202.4 426.9 1120.5 436.9 1049.7 454.6 1014.3 463.5 981.6 474.2 956.8 487.2 932 500.2 914.8 515.5 911 533.9 910.9 534.7 911.1 535.5 911.6 536.1 912.2 536.7 913 537 913.8 536.9 914.1 536.8 914.4 536.8 914.7 536.7 915.8 538.2 917.3 539.2 919.2 538.9 932.3 537.7 969.8 537.6 1020.5 539.5 1071.1 541.4 1135.3 545.3 1203 551.8 1333.2 564.3 1475.9 586.8 1560.6 623 1562.3 625 1563.7 627.1 1565.5 629.1 1565.5 629.1 1565.6 629.2 1565.5 629.2 1563.4 630.5 1558 631.1 1550.3 630.5 1535.1 629.2 1511 623.5 1481.8 616 1423.4 601 1344.3 578.9 1271.9 571.3 1148.4 558.3 1074.4 541.4 905.4 541.1 905.2 541 905 541 904.8 541.1 904.7 541.1 904.5 541.2 904.4 541.2 903.6 541.6 903.4 542 902.8 542.5 902.2 543 901.4 543.7 900.6 544.5 899.1 546.2 897.1 548.4 895.4 551.4 891.9 557.2 888.9 565.7 890.3 575.8 890.3 576.7 890.9 577.5 891.7 577.8 892 578 892.5 578 892.9 578.1 893.5 578.6 893.5 579.7 894.3 579.9 908.8 582.4 941.9 592.7 984.4 607.9 1026.9 623.1 1079.1 643.3 1133.3 665.7 1239 709.4 1351.7 761.8 1415.2 802.8 1419.6 806.3 1426.1 811.2 1429.1 815.4 1430 816.6 1430.6 817.6 1430.8 818.4 1431.1 819.2 1431 819.7 1430.8 820.1 1430.5 820.7 1428 821.8 1425 822.6 1399.8 817.1 1360.2 795.7 1314.4 769.1 1264.3 740.1 1207.3 706.2 1153.7 684.1 1059.6 645.2 945.7 594.7 892 583 891.8 582.9 891.6 582.8 891.4 582.8 890.6 582.9 890.4 583.8 890 584.4 889.6 584.3 889.2 584.3 888.9 584.4 888.6 584.5 888.3 584.6 888.1 584.8 884.3 587.4 881.6 590.2 880.4 593.6 879.1 596.9 879.5 600.5 881.1 604.2 884.3 611.5 892 619.7 903.6 631.4 926.7 654.9 965.5 691.8 1014.9 755.6 1100.4 866.2 1140.4 919.7 1157.6 946.3 1166.2 959.6 1168.9 966.3 1169.1 968.9 1169.1 970.2 1169 970.4 1168.4 970.9 1168.1 971.3 1167 971.8 1166.1 972.4 1159.3 972.2 1155.3 970.9 1151.3 967.2 1147.1 963.2 1142.8 956.3 1136.2 945 1123.2 922.5 1101.2 882.9 1050 815.9 1019 775.2 981.3 731.4 949.4 695 917.9 659 892.4 630.6 884.7 619.9 884.5 619.3 884.3 618.8 884.1 618.2 883.9 617.6 883.4 617.1 882.8 616.8 881.4 616.1 879.5 616.4 878.4 617.3 877.2 618.1 876.3 619.2 875.6 620.5 874.1 623.2 872.9 626.8 871.7 631.4 869.3 640.6 867.1 653.3 865.3 666.5 863.6 679.7 862.3 693.5 861.5 704.8 860.7 715.7 860.3 723.6 860.5 727.7 860.6 727.8 860.5 727.8 860.5 727.9 860.6 727.9 860.5 728 860.5 728 860.6 728.1 860.5 728.5 860.5 728.6 860.6 729.1 860.8 729.4 861 729.7 863.1 748.9 871.5 765 882.4 787.5 893.6 810.8 907.2 841.1 919.5 888.8 929.9 929.2 940.4 971 945.4 1003 947.9 1019 948.9 1032.5 948.2 1041.9 947.8 1046.6 946.9 1050.3 945.7 1052.7 944.5 1055 943.1 1056 941.2 1056.3H941C938.1 1056.9 937 1056.6 935.9 1055.5 934.9 1054.3 933.8 1051.5 933 1046.9 931.4 1037.7 930.9 1021.8 928.4 998.5 923.3 952 910.3 875.6 865.7 759.6 865.5 759.3 865.5 759 865.3 758.7 865.3 758.5 864.9 758.6 864.7 758.4 864.4 758 864.4 757.5 864 757.3 863.6 757.2 863.5 757.5 863.2 757.5 863 757.4 862.9 757.1 862.7 757.1 862.5 757.2 862.5 757.5 862.3 757.6 861.9 757.7 861.4 757.6 861.2 757.8 860.6 758.2 860.2 758.7 859.8 759.2 859 760.2 858.2 761.5 857.3 763.2 855.6 766.7 853.6 771.8 851.3 778.2 846.6 791 841 809.3 835.6 830.7 828.5 859 822.2 892.9 818.8 927.1 818.5 922 818.3 918.7 818.1 913.6 817.6 901.3 817.6 889.3 818.6 879.3 819.1 874.4 819.9 870.1 820.9 866.4 821.4 864.7 821.9 863.7 822.5 862.3 823.2 860.4 824 858.2 824.9 856.9 825 856.8 824.9 856.6 824.9 856.5 825 856.4 825.1 856.3 825.1 856.2 825.6 855.4 825.6 854.4 825.1 853.6 825 853.4 824.8 853.5 824.6 853.4 824.1 852.9 823.4 852.4 822.6 852.5 822.1 852.5 821.6 852.8 821.2 853.1 801.7 871.9 788.7 885.6 779 906.7 774.2 916.9 770.3 929.1 766.7 944.3 767.2 934.2 767.7 924.8 768.3 917.3 768.9 909.8 769.9 904 770.8 901.9 771.2 901 771 899.8 770.3 899.1 769.6 898.3 768.6 898.1 767.7 898.4 767.3 898.6 767.1 898.9 766.9 899.2 766.7 899.2 766.5 899 766.3 899.1 766.1 899.1 766 899.2 765.8 899.2 753.4 904.9 735.3 917.7 720 933.7 712.8 941.2 706.4 949.5 701.4 958.1 705.2 942.2 708.9 935.9 712.3 929.5 713.3 928.1 714.1 927.1 715.3 925.2 715.8 924.5 715.8 923.5 715.3 922.8 715.1 922.3 714.6 922.2 714.1 922 714.1 921.9 714 922 714 922 713.7 921.9 713.5 921.5 713.2 921.5 712.9 921.5 712.8 921.6 712.6 921.7 712.2 921.6 711.9 921.2 711.5 921.4 711.2 921.4 711.1 921.9 710.9 922 642.4 928.2 600.7 953.8 576.5 982.9 560.4 1002.2 552.4 1022.5 548.3 1039.8 551.4 995.8 577.6 954.5 615.7 939.3 637.2 930.6 666.5 926.8 692.9 922 718.3 917.4 740.9 912 752 899.5 783 888.8 805.8 859.5 821.5 828.5 837.5 797.1 846.4 764.1 849.6 746.7 863.1 671.9 849.7 593 891 531.1 911.7 500.1 946 473.2 1004.8 452.9 1063.6 432.5 1146.8 418.9 1264.6 414.9 1359.9 411.6 1417.6 399.5 1457.5 384.7 1497.3 369.9 1519.1 352.4 1542.4 338.7 1555.5 331 1578.1 311.7 1601.9 295.5 1613.8 287.5 1626 280.2 1637.2 275.6 1642 273.6 1646.6 272.4 1651 271.6M731.1 283.6C727.5 292.5 722.6 301.5 717.1 309.1 712.8 314.9 708.8 319.8 705.7 323.1 704.2 324.8 703 326 702.2 326.9 702 327 702 327.2 701.9 327.3 701.8 327.4 701.8 327.4 701.7 327.5 701.6 327.5 701.5 327.6 701.4 327.6 701.4 327.7 701.3 327.6 701.3 327.6 701 327.8 700.8 328.1 700.6 328.4 683.7 330.6 667.3 333 653.6 338.7 651.8 339.5 650.5 340.9 648.8 341.8 638.7 338.3 629.6 336.3 620 333.7 620 333.6 620.1 333.6 620.1 333.6 620.4 332.4 621.7 331 624.5 329.5 627.2 328 631.1 326.6 635.9 325.1 645.5 322.3 658.4 319.4 671.8 315.6 693.7 309.5 716.8 300.3 731.1 283.6M1679 283.9C1681.4 284.2 1683.2 285 1684.4 285.9 1686.8 287.7 1687.6 290.2 1687.2 293.7 1686.8 296.7 1684.8 300.1 1682.4 303.5 1682.8 301.1 1683.5 298.6 1682.5 296.6 1680.5 292.5 1676 290.6 1671.2 289.6 1672.1 287.7 1673.1 286 1673.6 284 1675.4 284 1677.6 283.6 1679 283.9M793.4 305.8C784.8 350.2 761 378.2 737.6 395.9 725.1 405.4 712.9 412.2 703.7 417.4 699.2 419.9 695.3 422.1 692.4 424.1 691 425.1 690 426.1 689 427.2 688.1 428.3 687.3 429.5 687.3 431.1 687.3 432.5 688.4 433.6 689.8 433.6 693.7 433.5 703.7 433.4 713.5 433.3 717.2 433.2 718.6 433.2 721.8 433.1 733.2 457 737.7 490.7 736.9 529.4 736 570.9 729.4 617.5 720.1 662.3 710.9 707.3 699.9 757.2 700.2 800.3 700.3 821.9 703.2 841.8 710.7 858.6 716.8 872.1 726 883.6 738.9 892.1 736.5 895.8 732.5 899 725.9 901.6 718.1 904.6 707.9 906.8 696.8 908.6 674.5 912.2 648.4 914.4 629.3 920.1 616.5 923.9 588.3 938.4 566.6 964.3 548.5 986 536.3 1016.3 541.7 1054.1 541.3 1054.7 541 1055.5 541.4 1056.3 541.8 1057.4 542.3 1058.4 542.7 1059.5 543.8 1065.3 544 1070.7 546 1076.8V1077C546.3 1078.3 547.8 1079 549.1 1078.7 550.4 1078.4 551.1 1077.1 550.8 1075.7V1075.4C550.7 1075 550.8 1074.7 550.6 1074.3 550.2 1072.4 550.2 1070.5 549.9 1068.6 554.4 1070.9 560.4 1072.1 567.7 1072.3 558.7 1093 552.2 1116.6 548 1141.8 543.4 1134.8 536.6 1128.3 527.4 1122.3 528.1 1119.6 528.7 1116.7 528.7 1113.8 528.5 1099.4 519.1 1082.9 497.9 1063 499.4 1060.6 500.8 1058.1 501.7 1055.3 506 1042.6 503 1026.3 490.6 1004.5 498.5 991.7 498.6 972.3 487.2 942.8 487.1 942.7 486.8 942.7 486.7 942.5 487.8 941.5 489 940.7 490 939.6 499.5 928 501.9 910.1 494 882.7 494 882.6 493.9 882.6 493.8 882.6 495.8 881 497.7 879.5 499.4 877.6 508.5 866.9 512.1 849.9 508.1 823.4 511.5 821.7 514.7 819.7 517.4 816.7 525.7 807.3 529.4 791.2 527.3 765.6 533.4 763.5 539 760.5 543.4 755.9 551.7 747.1 555.4 733.1 552.5 712.3 556.7 710.3 560.8 708 564 704.3 571.5 695.6 575.3 681.8 574 661.3 576.9 660.1 579.7 659 581.6 657 586.6 651.6 587.8 643.7 587.6 632.2 587.5 622.5 586.3 608.2 585.5 592 589.1 586.3 592 579.9 593.1 571.8 594.7 559.2 593.2 543.5 588.1 523.8 594.3 508.5 598.1 491 596.9 469.7 601.5 471.3 606.6 472.3 613 471.1 620.6 469.7 629.6 465.5 640.4 457.6 640.7 457.4 640.9 457.3 641.2 457.1 641.4 457 641.5 456.9 641.7 456.8 642.7 456 643 454.6 642.3 453.5 641.6 452.4 640.2 452 639 452.6 638.9 452.7 638.9 452.8 638.7 452.9 636 454.3 633.5 456.1 631.4 457.3 629.3 458.5 627.8 458.8 626.6 458.3 615.7 454.2 613.1 459 582.1 433.3 581.6 432.8 581 432.6 580.4 432.6 579.6 432.7 578.8 433.1 578.3 433.7 577.9 434.4 577.9 435.3 578.2 436.1 578.3 436.4 578.6 436.8 578.8 437.2 578.9 437.2 578.9 437.3 579 437.3 581.9 443.7 587.5 449.6 593.2 454.5 595.5 456.4 596.8 456.8 598.9 458.3 591.9 456.7 586.1 454.3 581.4 452.1 580.5 451.7 579.4 451.9 578.7 452.6 577.9 453.3 577.8 454.5 578.2 455.4 591.6 486.7 581.8 524.6 558.5 549.5 535.5 574.1 499.8 585.9 460.2 566.9 459.8 565.9 458.7 565.4 457.6 565.5 457 565.6 456.6 566.1 456.2 566.6 456.1 566.7 456 566.7 455.9 566.8 450.6 575.9 445.9 584.3 436.2 593.3 430.2 598.8 421.2 604.9 409.9 611.3 414.8 606.7 418.2 602.3 420.5 597.9 425.2 588.9 425 580 424.5 568.8 424.4 567.7 423.7 566.7 422.6 566.5 421.5 566.2 420.4 566.7 419.8 567.7 412.8 580.7 391 599.8 355.4 613 370.3 600.7 379.9 587.4 380.7 574.3 380.8 573.2 380.2 572.2 379.3 571.8 378.3 571.3 377.2 571.5 376.5 572.2 356.9 589.6 322.8 595 289.5 597.2 296.8 593.7 304 588.6 310.4 581.6 323.1 567.8 333.3 546.7 339.6 519.1 362.8 532.7 383.9 537.1 401.9 535.9 422.4 534.6 438.5 526.8 450.2 519.9 449.9 524.9 449.6 529.2 449.6 535.6 449.5 536.8 450.4 537.9 451.6 538.1 452.8 538.3 453.9 537.7 454.4 536.6 465.3 510.6 470.7 494.3 469.2 480.6 467.7 467 459.1 456.8 443.8 443.4 443.3 442.9 442.5 442.7 441.8 442.8 440.7 443 439.9 443.9 439.8 444.9 439.5 448.1 439.2 451.4 438.9 454.6 408.5 452.9 375.9 423.9 309.8 473.9 308.2 445 310 426.1 317.7 410.4 320.8 410.8 323.9 410.8 327 410.2 333.1 409.1 339.1 405.6 343.4 398.8 347.3 392.7 349.7 383.5 350.6 371.4 390.3 373.2 435.3 380.6 484.2 394.6 484.4 394.7 484.5 394.7 484.7 394.8 485.9 395 487 394.3 487.5 393.2 487.6 392.9 487.3 392.7 487.3 392.4 487.4 392.3 487.6 392.4 487.6 392.3 488 391.1 487.5 389.9 486.4 389.3 486.3 389.3 486.2 389.2 486.1 389.2 486 389.1 485.9 389.1 485.8 389 477.8 385.8 471.5 382.3 466.1 378.9 462.7 375.8 459.7 372.6 458.7 369.2 456.3 361.5 459.7 353.1 470.9 346.2 493 332.6 545.3 327.6 630.2 356.1 627 360.3 624.1 364.9 622.3 370.5 621.9 371.6 622.3 372.8 623.2 373.4 624.2 374.1 625.5 373.9 626.3 373.1 650.7 349.2 684.4 345.5 717.1 340.6 746.3 336.1 774.4 329.3 793.4 305.8M768.9 344.3C768.4 344.4 767.9 344.6 767.5 344.9 746.4 361.7 727.7 367 707.1 370.6 689.8 373.2 682.2 379.7 677.7 382.6 676.6 383.4 675.7 383.8 675.1 384 674.5 384.2 674 384.2 673.4 384 672.1 383.6 669.5 381.8 665.7 377.3 664.9 376.6 663.8 376.4 662.9 376.9 661.9 377.3 661.4 378.3 661.5 379.4 661.5 379.7 661.9 380.3 661.9 380.6 662 380.7 662 380.7 662.1 380.8 663.1 384.9 665.5 390.3 668.8 396 670.5 399.1 672.4 402.2 674.2 404.6 675.9 407 677.3 408.9 679.1 410.1 679.7 410.4 680.5 410.6 681.1 410.4 681.8 410.2 682.4 409.6 682.7 409 689.4 394.8 695.1 386.5 699.9 382 704.6 377.5 708.2 376.8 711.2 377.3 714.2 377.9 717.1 380 719.7 382.2 721 383.2 722.2 384.3 723.6 385.1 724.9 386 726.3 386.7 728.2 386.4 728.9 386.3 729.5 386 729.9 385.4 737.5 374.6 752.5 362.8 770.5 348.8 771.3 348.2 771.7 347.1 771.4 346 771 345 770 344.3 768.9 344.3M99.4 351.3C128.5 392.1 166.5 430.5 221.1 459.4 198.8 461.7 181.7 457 167.5 447.9 149.2 436.1 135.5 416.9 122.3 396 122.2 395.9 122.2 395.8 122.2 395.7 121.6 394.8 120.5 394.4 119.5 394.6 118.8 394.8 118.2 395.3 117.8 396 117.5 396.7 117.5 397.5 117.8 398.2 117.9 398.3 117.9 398.3 118 398.4 136.1 437.2 150.9 454.9 160.1 467.9 168.4 479.6 171.8 487.5 170.1 504.6 148.1 488.1 131 459.7 119.4 429.7 107.6 399.4 101.8 370.5 99.4 351.3M1571.7 354.3C1557.2 374.4 1543.2 398.1 1533.2 425.3 1512.6 481.1 1508.3 548.4 1547.7 607 1459.7 573.7 1326.3 553.6 1203.9 541.8 1136 535.4 1071.6 531.6 1020.8 529.7 975.2 528 946.1 528.2 929 529.1 936.7 515.3 955.8 502.3 982.4 491.2 1012.1 478.9 1050 468.7 1088.3 460.5 1164.7 444.2 1242.9 436.1 1259.3 435.6 1380.9 431.6 1466.2 406.8 1524.5 380 1543.2 371.3 1558.3 362.7 1571.7 354.3M484.7 363.2C480.7 362.9 476 363.3 470.3 364.6 469.1 364.9 468.3 366 468.4 367.2 468.7 371.1 470.5 373.9 472.9 375.9 475.3 378 478.2 379.4 481.1 381.2 487.1 384.9 493.9 390 499.1 403.5 499.5 404.4 500.3 405 501.3 405.1 502.2 405.1 503.1 404.5 503.6 403.7 504.6 401.5 504.9 399.8 505.3 398.8 505.4 398.6 505.7 398.5 505.7 398.4 506.6 399.3 507.5 400.1 508.8 401.5 509.8 402.5 511 403.6 512.7 404.1 514.4 404.6 516.3 404.5 518.4 403.8 538.2 397.7 551.5 394.7 560.9 394 570.2 393.3 575.2 394.9 579.3 398.4 580.2 399 581.5 399 582.4 398.2 583.2 397.4 583.4 396.1 582.8 395.1 582.7 394.9 582.5 394.9 582.4 394.6 572.7 380.4 562.8 375.4 552.7 374.2 542.4 373 532.3 375 520.6 373.1 508.8 371.2 502.3 368 495.5 365.7 492.2 364.5 488.7 363.5 484.7 363.2M487.5 370.6C492.8 371.4 505.1 376 509.6 375.9 506.6 386.5 512.4 390.9 517.7 393.7 502.2 395.6 488 372.3 487.5 370.6M333.6 370.8C334 375.8 334.2 383.3 332.1 389.5 330.7 393.3 328.7 396.1 325.4 397.4 322.2 398.7 317.2 398.6 309.8 395.3 309.7 395.2 309.6 395.3 309.6 395.3 304.7 392.7 290.1 385.6 274.3 381.4 270.6 380.4 267 380.5 263.3 380 283.4 374 306.8 370.8 333.6 370.8M542.6 378.1C550.3 377.3 556.8 381.9 549.6 385.9 542.2 390 529.5 395.8 521.8 393.4 529.2 393 531.6 384.6 528.2 378.9 525.4 378.3 534.9 378.9 542.6 378.1M577.7 403.8C564.4 403.5 556 404.1 549.7 405.8 543.3 407.6 539.1 410.5 534.2 413.9 533.4 414.5 532.9 415.6 533.1 416.6 533.4 417.6 534.2 418.3 535.2 418.5 540 419.4 542.5 420 543.5 420.5 544 420.7 544.1 420.9 544.4 421.4 544.8 421.9 545.3 422.6 545.8 423.9 546.2 424.8 547 425.4 548 425.5 549 425.5 549.9 424.9 550.3 424.1 553.7 417 556.8 413.6 560.7 411.6 564.3 409.8 569.7 409.3 576.8 409 577.4 409 577.4 408.8 578 408.8V408.7C578.1 408.6 578.1 408.7 578.2 408.7 579.3 408.3 580.1 407.3 580.1 406.2 580 405 579.1 404.1 578 403.8 578 403.8 578 403.8 577.9 403.8H577.7M1986.9 422.7C1892.4 531.2 1870.1 648.3 1864 684.2 1851.5 662.8 1836.1 638.9 1845.7 608.8V608.7C1868.4 554.1 1876.1 545.3 1935.9 467.5 1936 467.5 1936 467.5 1936.1 467.4 1936.9 466.3 1936.8 464.8 1935.8 464 1934.8 463.1 1933.3 463.2 1932.4 464.1 1932.3 464.2 1932.3 464.2 1932.2 464.3 1932.2 464.4 1932.1 464.3 1932.1 464.4 1931.8 464.7 1931.7 464.9 1931.5 465.2H1931.3C1866.7 519.1 1837.4 555.9 1812.1 580.3 1788.4 603.2 1767.6 615.1 1724.6 621.5 1803.3 554.8 1839.6 494.6 1986.9 422.7M745.7 431.9C746.4 432.1 746.3 431.9 747.1 432.2 753.3 434.5 761.3 438.4 769.1 444.8 781.7 455.1 793.7 472.5 798.5 500.3 793.9 493.1 787.9 488.2 781.3 485.6 770.6 481.4 759.7 481.4 752.7 481.4 752 475.6 751.7 469.1 750.8 463.8 759.2 463.3 767.8 463.3 776.6 472.4 777.6 473.3 779.1 473.4 780.1 472.5 781 471.7 781.1 470.1 780.4 469.1 780.3 469 780.3 469 780.2 468.9 769.3 454.4 758.3 446.9 748.2 446.7 747.3 441.9 746.6 436.8 745.7 431.9M165.5 456.9C167.3 457.9 169.2 458.4 171.1 459.3 199.1 479.9 223.2 491.8 246.3 495.7 270.5 499.9 293.8 495.9 320 486.2H320.1C325.6 483.8 336.4 481.2 349.2 479.2 362.1 477.3 377.3 475.9 392.1 475.8 407 475.7 421.6 476.8 433.3 479.7 441.5 481.7 447.3 484.9 451.7 488.6 428.5 483.7 406.4 482 379.4 483.4 378.8 483.5 378.2 483.7 377.7 484.2 376.9 485 375.9 485.7 376 487.6 376.1 488.6 376.9 489.6 377.6 490 378.2 490.4 378.8 490.4 379.3 490.4 381.3 490.7 383.5 490.4 386.7 490 393.1 489.2 402.2 488 411.6 488.7 421.1 489.5 425.4 489.8 446.6 496.7 448.2 498.2 448.9 500.2 449.6 502.3 448.8 502 447.9 501.7 446.8 501.3 444.3 500.7 441 499.9 436.9 499 428.6 497.3 417.1 495.3 404.2 493.9 378.4 491 346.7 490.2 321.5 497.8H321.4C299.5 506.7 270.8 511.2 242.6 506.5 215.9 502.1 190.1 489.1 170.3 464.6 168.7 462.1 167.2 459.4 165.5 456.9M1900 501.7C1849.4 562.8 1822.7 614.7 1808.9 650.9 1800.5 672.6 1796.3 688.9 1792.9 698.3 1791.5 702.3 1790.1 704.2 1789.2 705.3 1782.7 700 1776.2 695 1769.2 690.6 1769.3 688.3 1769.5 685.9 1770.9 681.7 1772.8 676.3 1775.8 669.6 1779.8 661.8 1787.7 646.2 1799.6 626.4 1814.6 604.8 1837 572.3 1866.5 535.6 1900 501.7M377.7 506.8C394.6 506.9 411.4 509.7 426.8 516.8 423.5 519.5 419.3 521.5 414.3 522.7 404.6 524.9 392.4 524.3 380.8 522.1 369.3 519.8 358.3 515.9 350.9 512.1 348.7 510.9 347.6 509.9 346.1 508.8 356.5 507.6 367.1 506.7 377.7 506.8M754.4 534.1C770.3 544.8 785.9 557.4 794.5 576 801.3 590.8 803.7 609.6 798.3 634.2 796.9 622.4 791.9 612.3 784.2 605.9 777.8 600.5 770 597.6 761.9 597.5 756.6 597.4 751.3 599.2 746.2 601.8 747.8 592.3 749.1 583.2 750.2 574.9 752.3 574.3 755.4 574.1 759.3 575.5 763.8 577.1 768.8 579.9 773.6 583.3 778.3 586.7 782.6 590.7 785.8 594.7 788.9 598.6 790.8 602.4 790.9 605.3 790.9 606.6 792 607.6 793.4 607.6 794.7 607.5 795.9 606.5 795.8 605.1 795.7 601.5 793.9 597.9 791.5 594.3 790.7 593 790.8 591.7 789.8 590.3 786.3 585.1 781.7 579.8 776.8 574.9 771.9 570 766.6 565.6 761.9 562.4 758.3 559.9 755.2 558.3 752.2 557.7 753.1 549.5 753.9 541.2 754.4 534.1M577.9 543.3C583.1 556.1 584.4 566.6 582.4 574.7 580.2 583.5 574.8 590.1 567 595.3 553.6 604.4 533.6 608.5 515.5 611.5 513.7 610.9 510.3 610.5 509.5 609.9 508.5 609.3 508.2 608.7 508.1 608.2 507.9 607.8 507.9 607.4 508.1 606.8 508.1 606.6 508.4 606.4 508.5 606.2 509.3 605.2 509.6 604.5 511.2 603.2 514 600.9 518.1 598.1 522.8 595 532.1 588.7 544.1 580.7 555.7 570 563.8 562.7 571.2 553.5 577.9 543.3M907.9 553.1C1095.4 560.3 1145 573.2 1268.8 587.7 1354.3 597.6 1432.7 620.5 1489.5 634.5 1489.9 634.6 1490.2 634.8 1490.6 634.9 1435.3 648.6 1410 683.2 1402.3 717.6 1397.9 737.5 1398.9 757.1 1402.3 772.7 1403.5 778 1405.2 782 1406.8 786.3 1340.6 745.8 1236.5 697.6 1137 656.5 1082.6 634 1030.3 613.8 987.6 598.6 950.9 585.4 923.8 576.9 905.9 572.7 904.5 566.4 904.4 558.8 907.9 553.1M893.5 598.2C895.8 598.6 898.5 599.1 903.1 600.6 909.1 602.4 916.8 605.1 925.7 608.4 943.6 614.9 966.7 624 992.1 634.2 1043 654.8 1103.2 680.1 1150 699.7 1201.4 721.1 1273.3 763.4 1332.4 796.3 1335.3 797.9 1337.7 799.2 1340.6 800.8 1337.7 800.7 1335.4 800.2 1332.4 800.3 1312.6 800.9 1289.2 804.8 1266 813.4 1221.3 830 1177.6 864.8 1162.3 927.9 1160.5 925.4 1159.5 923.6 1157.6 920.9 1131.5 884.7 1085.3 829.6 1022.5 749.2 983.6 699.5 945.1 663.3 920.3 637.5 907.9 624.6 899 614.2 895.2 606.7 893.5 603.1 893.1 600.4 893.5 598.2M574.3 603.5C577.3 619 577.5 630.3 575.4 638 573.2 646.1 568.8 650.7 562.3 653.7 552.5 658.1 536.8 658.6 519.4 659.5 512.9 658.5 508.9 656.2 506.7 653.2 504.3 650.1 503.8 646 504.4 641.4 505.5 632.4 511.6 622.2 517 617.3 517.2 617.2 517.3 617.3 517.4 617.3 519.1 617.3 519.4 617 522.5 617.4 522.9 617.4 523 616.9 523.4 616.6 543.9 615.2 562 612.2 574.3 603.5M1579.3 637.5C1579.6 637.9 1580.1 638.2 1580.4 638.6 1581.9 641.4 1581.8 645.2 1580.2 649.2 1578.7 653.2 1575.6 657.1 1572.2 659.8 1572 659.9 1571.9 659.8 1571.7 659.9 1573.6 657.5 1575 654.8 1575.4 652 1575.9 648.6 1575.5 645.3 1574.5 642.2 1575.1 641.8 1575.8 641.6 1576.3 641.2 1577.7 640.3 1578.4 638.8 1579.3 637.5M886.1 641.7C887.3 642.4 887.8 642.3 889.3 643.6 896.9 649.8 908 662.2 921.1 678.2 947.1 710 981.3 756.2 1014.6 797.8 1049 841 1076.6 890.5 1101 927.6 1104.8 933.5 1108.5 938.3 1112.3 943.5 1100.6 940 1087.8 937.4 1073.2 937.2 1065.5 937.2 1057.4 937.7 1049.3 939.1 1018.1 944.3 985.6 962 961 1000.3 955.7 969 944.8 930 931.3 885.5 911.6 820.4 900 795.8 892 780 884 764.5 879.6 757.8 873.9 728.3 873.9 728.2 874 728.1 874 728 873 715.3 875.3 691.1 878.8 671 880.6 660.9 882.6 651.8 884.5 645.6 885.1 643.8 885.6 642.9 886.1 641.7M738.6 650.3C741.7 655.1 746.1 659.6 751.6 664.1 759.8 671 769.2 678.3 776.5 687.5 783.8 696.7 788.9 707.8 788.4 722.4 788 733.5 782.7 747.6 774 763.7 775.1 756.1 774.8 749.1 772.3 743.4 768.1 733.8 760 727.1 751.6 722.1 743.1 717.1 734.3 714 728.4 711.7 726.9 711.1 726.3 710.8 725.4 710.4 727.1 704 729.3 699.3 732.2 697.3 736.2 694.6 741.2 694.7 746.6 696.5 752 698.4 757.6 701.9 762.1 705.7 766.6 709.6 769.9 714 770.8 716.2 771.3 717.4 772.6 718 773.9 717.6 775.1 717.1 775.8 715.7 775.4 714.5V714.3C775.4 714.2 775.3 714.1 775.3 714 768.1 695.1 754.6 689.8 746 683.6 741.6 680.5 738.4 677.4 737 671.9 735.8 667.3 736.3 660 738.6 650.3M144.3 655.6C162.5 654.9 175.9 662.2 183.1 674.9 180.9 676.5 178.9 676.4 175.6 677.1 173.6 670.1 162.3 662.2 152.2 660.7 151.4 660.2 150.4 660.1 149.6 660.6 148.7 661.1 148.2 661.9 148.3 662.9 148.4 663.9 149.1 664.8 150 665.1 157.3 668.7 165.3 671.5 162.2 678.2 158.5 678.2 156.3 678.3 153.3 678 153.1 671 138.5 664.4 124.6 659 131.7 656.9 138.2 655.8 144.3 655.6M561 664.5C562.3 683 558.6 693.7 552.3 699.7 545.9 705.8 536.2 707.5 525.4 707.3 514.8 707.1 503.6 704.8 493.7 703.7 493.4 703.3 493.2 702.7 492.6 702.6H492.3C489.3 702.4 487.2 701.7 486.1 700.8 484.9 699.8 484.3 698.5 484.2 696.9 484.1 693.5 486.3 688.3 490 683.1 493.6 678 498.4 673 503.1 669.6 507.3 666.5 510.9 665.5 513.2 665.5 530 665.7 545.8 665.9 555.7 665.2 557.9 665.1 559.1 664.7 561 664.5M1683.6 678.2C1756.8 678.4 1849 753 1849.1 859.8 1849.2 934 1806.3 1058 1647.9 1112 1603.5 1024.5 1519.1 946.8 1410.1 909.4 1409.6 909.1 1409.1 909.1 1408.5 909.2 1407.4 909.4 1406.6 910.4 1406.5 911.5 1406.5 912.7 1407.3 913.7 1408.4 914 1527.1 954.8 1606.3 1047.1 1645.4 1144.1 1655.8 1170 1681.6 1205.4 1707.3 1229.3 1733 1253.3 1762.5 1268.9 1791.2 1269.5 1810.7 1270 1832.5 1281.3 1841.7 1306.6 1849 1326.6 1848.4 1352.2 1830.2 1379.8 1833.4 1367.7 1830.8 1357.5 1826.5 1350.5 1819.4 1339.2 1804.6 1334.7 1794.9 1335.1 1777.9 1335.8 1768.1 1343.4 1744.9 1355.7 1743.7 1356.3 1743.2 1357.9 1743.8 1359.1 1744.2 1359.8 1752.4 1360.6 1761 1360.8 1762.1 1374.3 1782.6 1516.2 1785.8 1536.4 1801.4 1635.1 1869.6 1587.2 1881.3 1589.1 1903.6 1592.6 1908.4 1598.7 1915.7 1605.9 1908 1606.5 1902 1629.4 1905.8 1644.5 1878.2 1664.6 1850.4 1634.1 1830.1 1633.9 1806.5 1634.5 1781.1 1650.7 1754.2 1659.2 1729.5 1666.9 1717.3 1673 1686.4 1658.9 1691.2 1657.5 1696.9 1655.8 1697.4 1655.7 1698.1 1655.7 1698.7 1655.8 1699.1 1655.7 1699.5 1655.7 1699.6 1655.7 1700.2 1655.6 1701.2 1655.6 1702 1654.9 1702.4 1654 1702.7 1653.1 1702.6 1652.1 1701.9 1651.4 1701.2 1650.7 1700.2 1650.4 1699.3 1650.8 1699.6 1650.7 1699.2 1650.7 1698.8 1650.8 1698.4 1650.8 1697.9 1650.7 1697.2 1650.8 1696 1650.8 1694.2 1650.9 1692.1 1650.9 1687.9 1651 1682.4 1651 1676.7 1651.1H1647.6C1634.4 1651.1 1615.4 1655 1599.4 1663.7 1583.4 1672.4 1571.5 1683.1 1556.7 1682.8 1548.3 1682.7 1539.6 1681.3 1532.4 1675.7 1536.2 1662.2 1535.6 1644.6 1525.4 1629.9L1522.9 1629.7C1540.2 1627.3 1546.2 1618.6 1557.6 1618.4 1571 1618 1570.8 1645.1 1640.1 1600.7 1640.9 1600.3 1641.5 1599.5 1641.5 1598.6 1641.5 1597.6 1641 1596.6 1640.1 1596.2 1639.3 1595.8 1638.2 1596 1637.5 1596.5 1576.2 1624.4 1595.3 1603.4 1563.8 1604.8 1533.9 1606.2 1533 1616.1 1515 1615.9 1505.7 1615.7 1494.7 1611.2 1492.4 1606.8 1499.2 1605.2 1502.1 1582.1 1498.5 1570.2 1498.6 1569.7 1498.9 1569.2 1498.9 1569 1499.2 1567.9 1498.7 1566.8 1497.9 1566.2 1501.8 1561.4 1512.6 1559.5 1522.2 1559.5 1530.8 1559.6 1542.7 1567.7 1556.2 1573.5 1569.8 1579.3 1581.8 1568.7 1598.5 1579.7 1599.7 1580.4 1601.2 1580 1601.9 1578.8 1602.6 1577.6 1602.2 1576 1601 1575.4 1595.1 1572 1582.9 1559.1 1569.1 1553.2 1560.5 1549.6 1550.4 1547.3 1541.1 1545.8 1534.6 1539.7 1523.1 1529.1 1524.6 1528.1 1527.9 1526.1 1531.2 1523.3 1534.1 1519.9 1536.9 1516.4 1539.3 1512.4 1540.1 1508.1 1540.6 1505.2 1539.9 1504 1538.9 1502.1 1539.1 1501.2 1539.5 1500.7 1539.8 1499.3 1543.4 1495.4 1545.6 1493.4 1550.8 1492.9 1558.8 1493.7 1563.5 1496.7 1570.2 1503.2 1576.8 1509.8 1584 1519.6 1590.4 1531.1 1600 1548.2 1613 1558 1626.2 1566.8 1622 1570.2 1617 1574.5 1616.6 1574.4 1616 1574.4 1615.5 1574.1 1614.3 1574.7 1613 1575.3 1612.5 1576.7 1613 1578 1613.6 1579.3 1615 1580 1616.3 1579.4 1616.6 1579.4 1617.1 1579.4 1617.8 1579.6 1619.2 1579.8 1621.2 1580.4 1623.6 1581 1628.3 1582.1 1634.4 1583.5 1640.9 1584.4 1647.4 1585.3 1654 1585.6 1660.1 1584.5 1666.1 1583.4 1671.8 1580.8 1674.8 1575.4 1695.4 1538.2 1693.4 1482.7 1681.6 1433.4 1669.8 1384.3 1634.5 1317.5 1633.2 1316.9 1631.7 1300.5 1591.4 1251 1582.5 1262.2 1582.7 1260.4 1583.1 1258.6 1582.4 1256.6 1581.4 1253.5 1579.7 1250 1577.4 1246.5 1572.9 1239.5 1566.2 1232 1559.2 1225.9 1552.1 1219.8 1544.7 1215.1 1537.8 1213.9 1534.4 1213.3 1530.9 1213.7 1528 1215.6 1527.3 1216.1 1527.1 1217.4 1526.5 1218.1 1525.4 1214.6 1523.5 1211 1520.8 1207.2 1515.8 1200.4 1508.7 1193.3 1501.3 1187.6 1493.8 1181.9 1486 1177.7 1479.1 1176.4 1475.7 1175.7 1472.3 1175.8 1469.5 1177.3 1469.3 1177.5 1469.3 1177.9 1469.1 1178.1 1468.2 1175.4 1466.8 1172.6 1464.7 1169.7 1460 1162.9 1452.6 1155.5 1444.3 1149.9 1436 1144.2 1426.8 1140.3 1418.3 1140.5 1413.6 1140.7 1409.3 1142.7 1405.6 1146.2 1405.4 1140.7 1403.9 1135.2 1401.1 1130.1 1396 1120.7 1387.6 1112 1378.4 1105.8 1369.1 1099.6 1359.1 1095.6 1350.5 1096.1 1346.2 1096.4 1342.2 1098 1339.2 1101 1339.1 1101 1339.1 1101.1 1339 1101.1 1338.1 1095.4 1336.1 1090 1332.4 1085.6 1325.8 1077.7 1316 1072.1 1305.9 1068.7 1295.8 1065.3 1285.6 1064.2 1277.4 1065.8 1273.4 1066.5 1269.8 1067.9 1267.2 1070.4 1266.5 1071.1 1266.2 1072 1265.7 1072.8 1265.3 1072.3 1265.6 1071.7 1265.2 1071.2 1262.9 1068.3 1259.6 1065.6 1255.6 1063.3 1247.7 1058.6 1237.2 1054.9 1226.7 1053.3 1221.4 1052.5 1216.1 1052.1 1211.2 1052.5 1206.3 1052.9 1201.8 1054 1197.9 1056 1192.9 1058.4 1189.9 1063.2 1188.3 1068.9 1185.5 1064.5 1181.9 1060.9 1176.8 1059.1 1168.2 1055.9 1157.3 1055.9 1147.1 1057.8 1136.8 1059.7 1127.1 1063.5 1120.6 1068.6 1118.7 1070.1 1117.9 1072.1 1116.6 1073.9 1115.2 1072.8 1114.3 1071.2 1112.6 1070.4 1105.3 1067.2 1094.8 1066.1 1084.4 1066.9 1074 1067.6 1063.5 1070.2 1056.5 1075.6 1053 1078.3 1050.3 1081.6 1049.3 1085.9 1049.2 1086.2 1049.3 1086.5 1049.3 1086.8 1046.9 1085.5 1044.8 1084 1041.7 1083.4 1032.4 1081.6 1020.1 1082.6 1008.8 1085.7 997.6 1088.8 987.2 1093.8 981.8 1101.3 979.4 1104.6 978.2 1108.5 978.5 1112.7 976.6 1112.1 975.2 1110.9 973.1 1110.6 963.5 1109.4 951.8 1111.5 941.4 1115.3 930.9 1119.1 921.6 1124.6 916.7 1131.5 915 1134 914.2 1136.8 914 1139.6 910.9 1138.3 907.8 1137 904.2 1136.8 894.4 1136.2 883.2 1139.1 873.4 1143.8 863.6 1148.6 855.1 1155.1 851.4 1162.7 850.5 1164.5 849.9 1166.5 849.7 1168.4 846.1 1167.8 842.3 1167.6 838.6 1168.1 835.4 1168.6 841.4 1157.3 847.2 1146.6 851.3 1141.5 854.6 1136.5 859.3 1130.9 860.6 1130.5 861.5 1129.3 861.2 1127.9 860.8 1126.6 859.4 1125.7 858.1 1126.1 857.7 1126.1 857.4 1126.2 857.1 1126.4 833.2 1137.7 813.2 1167.1 798.9 1200.8 784.7 1234.6 776.3 1272.7 776.8 1302.3V1302.6C780.2 1331.3 790.9 1345.3 797.2 1358.7 803.6 1372 806.2 1384.6 794.9 1413V1413.2C787.7 1427.7 786.6 1431.6 766.6 1441.5 788.8 1395.7 718.6 1368.3 641.5 1411.5 640.6 1411.8 640 1412.7 640 1413.6 639.9 1414.6 640.4 1415.5 641.2 1416 642 1416.5 643 1416.4 643.8 1415.8 649.4 1414.7 652.9 1414.6 657.9 1413.6 667.8 1432.2 626.5 1471.9 600.8 1509 587.2 1528.5 550.7 1578.7 550.6 1602.3 550.6 1626 556.5 1637.2 574.9 1636.9 579.8 1636.8 588.8 1637.3 599.4 1635 610 1632.7 625.8 1626.8 635.5 1626.8 644.9 1626.8 650.9 1627.5 660.2 1635.2 657.5 1636.2 638.2 1670.5 650.5 1683.8 649.6 1686.1 640.5 1687.3 637.8 1687.4 632.4 1687.5 617.8 1681.2 609.6 1678.5 593.2 1673 585.8 1668.7 568.6 1669 550.9 1669.3 523.9 1676.6 504.5 1683.3 485.1 1690.1 468 1695.1 425.4 1696.4 420 1696.6 414 1695.3 408.7 1693.9 415.7 1682.9 420.1 1679.8 420.5 1679.7 420.9 1679.7 421 1679.7 421.5 1679.6 422.5 1679.5 423.5 1678.9 423.9 1678 424.2 1677.1 423.9 1676.1 423.2 1675.4 422.6 1674.7 421.5 1674.4 420.6 1674.7 420.9 1674.7 420.5 1674.7 420.1 1674.7 419.8 1674.8 419.2 1674.7 418.6 1674.7 417.3 1674.8 415.6 1674.9 413.5 1674.9 409.3 1675 369.1 1682.3 353.1 1690.9 337.1 1699.6 328.3 1720 313.5 1719.8 305.1 1719.6 301.9 1719.9 294.6 1714.3 301.6 1681.1 277.8 1671.3 288.4 1662.8 299.6 1664.3 341.4 1669.6 380.5 1644.8 381.3 1644.4 381.9 1643.6 381.9 1642.7 381.9 1641.7 381.3 1640.7 380.5 1640.3 379.7 1639.9 378.6 1640.1 377.9 1640.6 355.9 1654.6 340 1628.9 322.8 1630.3 292.9 1632.8 299.7 1638.2 281.8 1638 272.4 1637.9 261.4 1633.3 259.2 1628.9 265.3 1615.8 275.6 1597.6 270 1587.5 273.7 1582.6 279.1 1581.7 288.9 1581.7 297.6 1581.9 301.8 1589.8 315.3 1595.6 363.4 1620.3 349.3 1600.8 386.1 1614.3 387.3 1615 388.8 1614.6 389.5 1613.4 390.2 1612.2 390.7 1606.9 386.1 1606.5 344.7 1600.4 333 1583.6 323.7 1574.3 320.7 1571.3 313.8 1569.4 306.4 1567.9 286.3 1549.4 286.4 1532.9 288.3 1531.7 291.5 1529.7 302.4 1515.1 300.2 1511.6 304.6 1506.5 307.8 1508.1 313.6 1507.6 334 1508 355.3 1538.9 349.4 1550.7 349.1 1551.4 367 1567.9 378 1581.3 386.7 1591.8 404.8 1613.5 428.5 1609.2 428.8 1609.7 429.1 1610.4 429.7 1610.6 430.6 1610.8 431.6 1610.6 432.2 1609.9 477.2 1569.2 509.8 1503.6 531.4 1445.3 542.2 1416.1 550.3 1388.7 555.6 1367.2 560.9 1345.7 563.5 1330.5 563.5 1324.1 563.4 1291.3 555.8 1239.3 556.5 1188.7 557.2 1142.3 565.3 1097.8 591.5 1070.3 597.9 1069 604.5 1067.3 611.2 1064.8 627.9 1058.7 644.2 1048.2 657.1 1033.7 657.6 1037.5 658.4 1041.6 659.6 1046 662.4 1055.7 667.2 1066.5 673.7 1076.8 686.6 1097.2 706.7 1115.8 732.8 1119.7H733C733.2 1119.7 733.4 1119.8 733.6 1119.8 734.9 1120.2 736.3 1119.4 736.7 1118.1 736.8 1117.9 736.4 1117.7 736.4 1117.5 736.4 1117.4 736.2 1117.4 736.2 1117.3 736.1 1116.4 736 1115.3 735 1115 734.7 1114.9 734.5 1114.8 734.2 1114.7 730.7 1114.1 728.8 1112.6 727.3 1110.5 725.8 1108.3 724.9 1105.2 724.8 1101.3 724.6 1093.5 727.2 1083 731.1 1072.2 734.2 1063.8 738.2 1055.8 742 1048.3 749.5 1064.7 760.8 1082.2 779 1093.5 800.1 1106.6 829.2 1110.5 866.6 1094 866.7 1093.9 866.8 1094 866.9 1094 867.2 1093.8 867.4 1093.8 867.7 1093.7 868.2 1093.4 868.1 1092.7 868.3 1092.3 868.6 1092 869.1 1092 869.2 1091.6 869.3 1091.3 869 1091 868.9 1090.7 868.9 1090.6 868.8 1090.7 868.8 1090.7 868.6 1089.9 868.7 1089 868 1088.7 840.1 1075.3 832.2 1058.7 831.4 1042.7 831 1034.1 832.7 1025.8 835 1018.1 849.9 1035 867.8 1048.3 883.8 1054.4 892.6 1057.8 900.7 1059.1 907.5 1057.7 910.8 1056.9 913.4 1055.2 915.7 1052.8 916.6 1056.3 917.9 1059.2 919.7 1061.6 921.5 1063.9 924 1065.4 926.8 1066.4 927.1 1071.8 926.1 1076 923.9 1078.4 921 1081.4 916.5 1082.5 912.4 1081.7H912.3 912.1 911.9 911.6C911.5 1081.7 911.4 1081.8 911.3 1081.8H911.2C911.1 1081.9 911 1081.9 910.9 1082 910.6 1082.1 910.4 1082.3 910.2 1082.6 910.1 1082.7 910 1082.8 909.9 1082.9 909.9 1083 909.8 1083.1 909.8 1083.2 909.6 1083.7 909.5 1084.3 909.6 1084.8V1084.9C909.7 1085 909.7 1085.1 909.8 1085.2V1085.4C909.8 1085.5 909.9 1085.6 909.9 1085.7 910.3 1086.2 910.9 1086.2 911.3 1086.6 911.4 1086.7 911.4 1086.9 911.5 1087 913.3 1089 915.3 1090.5 917.7 1091.5 918.5 1091.8 919.4 1092 920.3 1092.3 921.2 1092.5 922.1 1093 923.1 1093 923.8 1093.1 924.5 1092.4 925.3 1092.4 926.7 1092.4 928 1092.9 929.4 1092.7 936.9 1091.5 944.7 1087.5 951.4 1082.1 958.1 1076.7 963.6 1070 966.4 1062.8 969.3 1055.6 969.4 1047.5 964.4 1041.2 964.2 1040.9 963.8 1041 963.5 1040.8 964.3 1035.2 964.6 1028.8 964.1 1021.7 966.6 1014.2 972.3 1004.6 981.6 995 991.7 984.6 1005.5 974.1 1021.7 966.4 1052.4 951.7 1092 947.5 1133.8 969.2 1134.4 969.8 1135.1 970.8 1135.8 971.4 1139.3 974.4 1142.8 975.9 1146.3 977.9 1147.2 984.2 1146 988.1 1143.2 990.2 1140.2 992.5 1135.5 993.1 1131.3 992.4H1130.7C1130.4 992.3 1130.2 992.3 1129.9 992.4 1129.4 992.4 1128.9 992.7 1128.5 993 1128.2 993.3 1128 993.6 1127.9 993.9V994.1C1127.7 994.7 1127.8 995.3 1128 995.8V996C1128.1 996 1128.1 996.1 1128.2 996.1V996.3H1128.4C1128.6 996.7 1129 996.9 1129.3 997.2 1131 999.5 1133.1 1001.1 1135.5 1002.4 1136.4 1002.9 1137.4 1003.2 1138.4 1003.6 1139.7 1004.1 1140.9 1004.3 1142.3 1004.5 1143.7 1004.8 1145 1005.6 1146.5 1005.6 1153.5 1005.9 1160.7 1003.6 1166.9 1000 1173.1 996.4 1178.3 991.4 1180.8 985.4 1182.4 981.6 1182.3 977.4 1181.1 973.2 1182.3 970 1182.6 966.4 1181.5 962.2 1180.6 958.8 1178 954.4 1175.9 950.2 1175.8 944.9 1176.3 939.8 1177 934.7 1185.3 909.1 1198.7 893.7 1216.3 884.6 1235.6 874.5 1260.4 871.6 1288 872.1 1381.8 873.7 1446.2 894.8 1497.4 915.4 1548.6 936.1 1586.7 957.1 1627.9 956.2 1666.7 955.5 1702.4 946.3 1729 926.5 1755.5 906.7 1772.3 875.9 1772.3 834.9 1772.3 819.7 1767.4 806.5 1760.9 794.4 1748.6 771.7 1728.4 754.4 1707 746.7 1698.8 743.7 1690.5 742.1 1682.5 741.9 1674.5 741.7 1666.8 743.1 1659.9 746.4 1646.1 753.1 1636.9 768.1 1637 788.9 1637.1 810.7 1655.5 827.1 1676.3 827.4 1696.7 827.7 1718.5 812.1 1729 777.7 1736.7 784.4 1743.4 792.5 1748.5 801.5 1744.1 834.5 1728.9 853.9 1710.6 866 1691.9 878.4 1669.6 883 1653.1 883.8 1610 886 1561.8 842.2 1562.3 781 1562.6 725 1609.7 678 1683.6 678.2M194 682.8C216.9 703.7 194.4 719.2 198.2 743 214.1 840.5 255.4 852.5 262.2 894.9 285 1035.9 347.8 1103.2 352.2 1108 354.3 1111.4 357 1114.2 360.4 1115.6 358.9 1126.7 361.6 1144.1 367.7 1160.3 373.4 1175.7 382 1189.7 393.8 1195.7V1195.9C394.3 1208.6 399 1224.1 406.7 1237.4 414.2 1250.5 424.6 1261.3 437 1264.7 441.6 1269.6 444.5 1271.7 448.6 1275.9 458.8 1299 389.5 1324.2 359.6 1333.1 348.9 1363.6 313.4 1388.2 286.7 1387.6 267 1387.2 265.4 1383.7 253.3 1377.5 296.2 1369.7 312.6 1371.1 310.7 1270.9 310.7 1268.8 310.6 1267.1 310.5 1265.8 310.5 1265.2 310.4 1264.6 310.4 1264.2V1263.8C310.4 1263.6 310.3 1263.5 310.1 1263 309.7 1261.9 308.7 1261.2 307.6 1261.3 306.8 1261.3 306.2 1261.7 305.7 1262.4 305.3 1263 305.2 1263.8 305.4 1264.6 305.4 1264.6 305.4 1264.6 305.4 1264.7V1264.9C284.9 1326.4 227.6 1088.6 215.5 1002 212.6 981.6 234.4 937.8 232.2 914 233 913.3 227.2 912.6 226.8 913.1 225.2 923.5 220.6 935.3 215.8 946.9 215.7 946.9 215.7 947 215.7 947.1 214.3 947.9 212.6 949.1 210.7 950.6 207 953.8 202.6 958.5 198.6 964.7 190.7 977 181.3 984.4 192.4 1014 196.6 1025 176.9 1045.2 169.4 1049.6 170 1031.9 140.8 1026.5 135.6 1029.2 133 1009.8 141.5 985 154.8 973.7 169.9 958.6 181.9 909.5 172.5 886.9 171.7 884.5 169.2 883 166.7 883.5 165.3 883.8 164 884.7 163.3 886 162.6 887.2 162.5 888.7 163 890 164.9 893.1 165.5 897.4 165.8 902V902.2C159 908 142.7 876.1 156.5 866.5 159.1 866.9 162.3 867.8 163.9 867.4 166.6 866.9 168.5 864.2 168 861.5 167.5 858.8 164.8 857.1 162.1 857.6 153.1 859.4 125.5 849.9 108.5 839.2 59.2 856 50.1 853.7 36.2 837.1 44.61 826.2 37.44 808.2 37.3 806.8 46.91 798.7 55.6 797.8 65.5 799.8 70.6 800.9 85.6 804.9 94.6 813.5 112.1 807.2 140.6 821.1 144.4 833.8 144.8 835.4 146.1 836.5 147.7 837.1 147.8 837.2 148.4 838.4 148.5 838.5 150.3 839 152.4 838.4 153.7 836.9 155 835.5 155.3 833.4 154.5 831.6 151.2 819.6 136.7 760.8 93.7 760.4H93.5C93.7 760.4 71.4 756 70.8 731.8 78.6 729 97 715.3 95.7 700 96 700.1 96.1 700 96.5 700.1 117.9 706.2 128 728.6 128 738.9 136.4 744.8 166.4 753 174.3 831.6 174.2 833.6 175.2 835.4 177 836.3 178.7 837.2 180.8 837 182.4 835.8 183.9 834.6 184.5 832.6 184.1 830.7 182.3 811.5 179 796.1 174.9 783.3 175.5 761.5 171 746.4 155.7 726.9 155.6 726.6 155.5 726.3 155.3 726 147.6 712.8 146.3 699.2 155.7 688.9 170.7 691 192.7 683.2 194 682.8M65.3 697.2C71.3 697.1 77.3 697.7 82.8 698.7 83.4 700.6 83.1 706.2 82.7 710.1 82.1 710.9 81.2 711.8 80.5 712.6 69.98 710.8 49.99 701.7 42.3 711.7 41.1 712.1 40.3 712.9 40.4 713.7 40.57 714.5 41.64 715.1 42.9 715.4 44.2 715.7 45.52 715.5 46.5 714.9 54.77 712.8 68.1 715.2 71.4 720.7 70.2 721.5 68.6 722.2 67.2 723 58.1 720.8 44.3 718.8 30.36 727.1 30.2 704.6 47.4 697.5 65.3 697.2M475.6 712.4C481.3 712.3 488.7 713 498.2 714.5 509.3 716.2 521.7 718 533.5 717.3 535.6 717.1 537.5 716.4 539.6 716 543.3 735 540.6 746.2 533.9 752.2 526.9 758.5 515.1 760.2 501.9 759.6 488.7 759.1 474.3 756.5 462.1 755 460 754.7 458.5 754.8 456.5 754.7 454.6 754.3 452.6 753.9 451.6 753.3 450.1 752.3 449.3 751.2 448.9 749.7 448.2 746.6 449.2 741.9 452 736.7 457.2 727.3 467.2 717.4 475.6 712.4M1682.4 756.8C1688.5 757 1695.2 758.2 1702 760.7 1707.1 762.6 1712.1 765.7 1717.1 768.7 1716.3 769.5 1715.8 770.5 1715.5 771.6 1706.5 803.5 1690.1 812.7 1676.7 812.5 1663.2 812.2 1652 802.2 1651.9 788.8 1651.8 772 1657.7 764.2 1666.4 760 1670.8 757.8 1676.3 756.7 1682.4 756.8M444.4 763.2C450.5 763.5 456.8 763.8 466.4 765.2 479.4 767.2 494.3 769.4 508.1 768.8 510.3 768.7 512.2 768 514.4 767.7 517.8 791.2 513.7 803.2 506.1 809.5 498.4 815.8 486.3 816.7 472.5 815.7 458.6 814.7 443.3 811.9 429.7 811.7 426.5 811.6 423.8 812.5 420.8 812.8 420.5 812.7 420.1 812.5 419.8 812.5 419 812.4 418.2 812.6 417.4 812.6 416.2 811.8 415.3 811 414.9 809.6 413.8 806.2 414.9 800 418.1 793.3 423.7 781.8 434.6 770 444.4 763.2M716.6 774.4C733.4 777.8 748.5 786.4 757.6 799.4 766.1 811.5 769.1 827.3 763.8 845.6 762.4 840.6 760.4 836.4 757.5 833.8 752.9 829.8 747.1 828.7 741.5 829 732.5 829.4 724.7 832.9 719.7 835.2 719.1 833 718.4 831.3 718 828.8 717.2 824.4 717 818.5 716.6 813.2 719.2 812.3 723.3 811.8 728.2 812.1 738.5 812.8 751.1 816.6 757.1 821.8 758.2 822.6 759.7 822.5 760.5 821.5 761.4 820.5 761.3 819 760.4 818.1 746.1 805.6 735.3 802.8 727.6 800.8 723.7 799.8 720.7 798.9 718.4 797.3 717.5 796.7 716.7 794.7 715.8 793.6 715.9 787.6 716.1 781.3 716.6 774.4M858.1 795.5C859.2 795.6 861 796.4 863 798.9 865.1 801.5 867.4 805.3 869.7 810.1 874.3 819.7 879.1 832.9 883.5 847 892.1 875.4 899.2 907.8 901.7 924 910.5 979.4 910.7 1015.2 913 1037.4 913.3 1039.6 913.7 1041.2 914 1043.2 910.2 1045.5 905.7 1046.6 900.2 1045.7 893.3 1044.6 885.3 1041 877.4 1036.2 862 1026.6 847.3 1011.6 840.7 999.2 840.7 998.8 840.7 998.4 840.4 998 839.9 997.3 839.1 997 838.3 997.1H838.1C838 997 837.9 996.9 837.8 996.9 836.6 996.9 835.5 997.7 835.3 998.9 835.2 999.7 835.1 999.7 835 1000.3 823.5 1013.8 817.5 1026.2 816.3 1037.3 815 1049 818.6 1059 824.5 1067.2 830.3 1075.3 838.4 1081.7 846.2 1086 850.5 1088.4 853.8 1088.9 857.5 1090.1 842.4 1092.1 823.9 1094.6 805.9 1089.3 784.6 1083 764.9 1066.1 756.1 1022.9 756 1022.8 755.8 1022.9 755.8 1022.8 755.8 1022.2 756.3 1021.7 756.1 1021.2 755.6 1020.3 754.5 1019.8 753.4 1020 753 1020.1 752.5 1020.3 752.2 1020.6 752.1 1020.7 752 1020.8 751.9 1020.9 733.1 1035.5 721 1058.3 717.1 1078.4 715 1088.5 715 1097.9 717.5 1105.3 717.7 1105.9 718.2 1106.1 718.4 1106.6 699.4 1095.4 687.5 1081.6 681 1066.1 673 1047.2 672.7 1025.6 675.6 1003.6 676.1 1002.9 676.6 1002.2 677 1001.7 677.2 1001.5 677.4 1001.3 677.6 1001.1 677.9 1000.8 678.1 1000.5 678.2 1000.3 678.3 1000.3 678.2 1000.2 678.2 1000.2 678.3 1000 678.5 999.9 678.7 999.7 678.7 999.6 678.8 999.7 679 998.9 679 998.8 679.1 998.6 679.1 998.6V998L678.7 996.9 677.6 996.1 676.5 995.8 675.9 996C675.9 996 675.5 996.2 675.4 996.3 675 996.6 674.9 996.5 674.8 996.6 674.7 996.6 674.6 996.4 674.5 996.4 673.7 996.5 673 997 672.6 997.7 665.1 1010.5 645.9 1030.5 622.2 1044 600.8 1056.1 576.1 1062.2 552.7 1055.2 567.1 1007.5 593 977.7 620.9 961.2 647.7 945.4 675.7 941.4 696.3 943.5 696.3 943.6 696.2 943.7 696.2 943.8 692.9 955.5 691.3 971.1 691 988.8 691 988.9 691.1 988.9 691 989V989.3C691 990.7 692 991.8 693.4 991.9 694.7 992 695.9 991 696 989.6V989.3C696.1 989.1 696.4 989.2 696.5 989 699.2 974.6 710.2 956.2 723.4 943.2 730 936.6 737.1 931.4 743.8 928.5 749 926.3 753.7 926 758.1 926.8 757.6 931.3 756.9 935 756.7 940.2 755.7 961 756.2 985.7 756.1 1003.5V1004.1C756 1005.3 756.9 1006.3 758.1 1006.6H758.2C758.3 1006.6 758.3 1006.7 758.4 1006.7 759 1006.8 759.2 1006.1 759.6 1005.8 760.1 1005.5 760.7 1005.5 760.9 1005 760.9 1004.9 760.8 1004.8 760.9 1004.7 760.9 1004.6 761 1004.6 761 1004.5V1004.1C769.4 967.6 778.4 936.4 786.9 916.7 791.2 906.7 795.5 899.6 799.1 896.4 800.9 894.8 802.4 894.2 803.6 894.2 804.6 894.3 805.8 895 807 896.1 807 896.3 807 896.4 807.1 896.7 807.6 898.2 808.2 900.7 808.7 903.7 809.7 909.8 810.8 918.1 811.6 927.6 813.3 946.4 814.7 968.8 816 984V984.3C816 985.7 817.1 986.8 818.4 986.8 819.8 986.8 820.9 985.7 820.9 984.3V984C823 935.4 832.7 884.6 842.4 846.6 847.3 827.5 852.3 811.5 856.1 800.8 856.9 798.4 857.4 797.3 858.1 795.5M30.51 809.2C31.47 811.8 31.78 812.7 32.52 816.7 26.54 817.1 19.21 818.7 13.64 825.4 13 826 12.77 826.8 13 827.6 13.27 828.4 13.91 829 14.72 829.1 15.54 829.2 16.43 828.9 16.89 828.2 20.94 823.3 27.61 823.6 32.83 824.4 32.81 828.3 31.63 832.1 29.89 836 23.96 834.8 15.55 834.4 8.69 844.4 2.97 820.2 19.89 811.2 30.51 809.2M418.1 822.7C424.7 822.1 431.6 822.4 438.9 823 453.4 824.4 468.6 827.4 482.4 827.9 486.9 828 491 827.2 495.2 826.6 498.3 851.2 493.7 864.8 485 872.6 476.2 880.5 462.4 882.7 447.1 882.9 431.8 883.1 415.1 881.2 400.5 881.6 393.7 881.8 387.4 882.6 381.8 884.4 379.9 883.7 378.9 882.6 378.5 880.2 377.6 875.2 380.3 865.6 385.5 855.8 390.7 845.9 398.1 835.8 405.7 828.7 407.7 826.8 409.6 825.9 411.5 824.6 413.8 824.1 415.7 823 418.1 822.7M1423.9 839.4C1425.4 839.7 1427.6 840.7 1429 840.8 1428.3 843.4 1427 846.4 1425.1 848.9 1424.7 849.4 1424.1 849.5 1423.7 850 1424.5 847.9 1424.9 845.7 1424.8 843.6 1424.7 842.1 1424.2 840.9 1423.9 839.4M746.6 841.3C750.2 840.7 753.2 841.3 755.6 843.3 758 845.3 760.1 848.7 760.9 854.7 760.9 855 761.3 855 761.5 855.3 761.5 856.2 761.7 857.1 762.6 857.5 762.8 857.6 763 857.3 763.3 857.3 759 862.7 754.7 868.1 749.4 873.7 741.2 870.5 733.9 865.2 728 855.9 733.1 848.2 740.3 842.4 746.6 841.3M481.8 889.1C488.3 912.2 485.6 925.5 477.4 933.8 469 942.4 454.1 946.2 437.3 948.3 420.6 950.5 402.1 951.1 386.2 954.8 379.7 956.4 374 959 368.8 962 367.8 961.2 366.7 960.8 366 959.2 363.6 954.1 363.2 945.1 364.4 935.4 365.6 925.7 368.4 915.3 371.8 907.3 373.6 903.4 375.4 899.9 377.3 897.5 378 896.5 378.6 896.5 379.3 896 388.6 893.5 399.2 892.3 411 892.5 427.2 892.8 444.7 894.2 460.4 893.2 468 892.6 475.3 891.4 481.8 889.1M471.2 952.5C477.5 963.5 481 972.7 482.1 979.8 483.2 987.3 481.9 992.5 478.8 996.8 472.7 1005.2 458.6 1009.6 441.7 1012.5 424.7 1015.4 405 1017 388.3 1021.4 379.3 1023.7 371.2 1027 364.7 1031.8 363.5 1031.1 362.2 1030.5 361.3 1028.8 359 1024.4 358.5 1016.1 359.6 1007.2 360.8 998.3 363.5 988.7 366.9 981.3 368.6 977.6 370.3 974.5 372.2 972.3 373.2 971.1 374 970.9 374.9 970.3 380.8 968.1 387 966.2 394.1 965 410.8 962.2 429.9 961.5 447.2 958.7 455.8 957.4 464 955.4 471.2 952.5M1166.3 982.4C1166.1 990.6 1160.9 996.4 1154.1 998.9 1150.4 1000.3 1146.7 1000.5 1143.1 999.9 1142.5 999.8 1142 999.5 1141.5 999.4 1140.5 999.1 1139.8 998.3 1138.9 997.8 1146.1 997.8 1152.2 995.9 1155.8 992.2 1158.3 989.6 1159.9 986.6 1161 984 1161.1 983.7 1161.1 983.6 1161.2 983.4 1162.9 983.4 1164.6 982.8 1166.3 982.4M476.6 1017.3C482.7 1024.7 486.5 1031.2 487.9 1036.8 489.5 1042.7 489 1047.5 486.7 1052.1 482.2 1061.2 470.4 1068.8 455.4 1075.4 440.4 1082 422.5 1087.8 405.9 1093.8 396.8 1097.1 388.5 1100.6 381 1104.4 372.5 1102.6 366.6 1097.9 363 1091.3 359.2 1084.4 357.8 1075.4 358.2 1066.7 358.6 1058.1 360.9 1049.7 364.1 1044 364.5 1043.3 364.9 1043 365.3 1042.4 373.2 1037.5 383.5 1034.6 395.2 1032.7 412.3 1030 432 1029.4 449.4 1026.4 459.6 1024.6 468.9 1021.7 476.6 1017.3M139.2 1041.5C141.9 1042.4 144.7 1043.6 147.5 1044.9 144.3 1050.4 139.2 1057.8 131.8 1057.7 130.8 1057.5 129.8 1058 129.3 1058.8 128.8 1059.6 128.8 1060.7 129.3 1061.6 129.8 1062.4 130.8 1062.8 131.8 1062.7 141.4 1062.8 149.8 1054.5 155.1 1048.9 158.5 1050.9 161.4 1052.8 163.6 1054.9 154.5 1063.1 133.9 1077 113.2 1057 126.5 1058.5 135.1 1048.1 139.2 1041.5M948 1064.7C948 1073.4 942.5 1080.9 935.5 1084.9 932.1 1086.9 925.9 1087.4 927 1087 931.2 1085.4 934.2 1082.5 936.4 1079.3 938.6 1076.2 939.9 1072.7 940.7 1069.8 941.1 1068.6 941 1068 941.2 1067 943.8 1066.6 945.9 1065.6 948 1064.7M1224.3 1066.4C1241.2 1065.6 1257.3 1073.9 1261.5 1085.2 1261.5 1086 1261.4 1086.7 1261.3 1087.7 1261.1 1090.6 1260.9 1094.6 1260.6 1099.4 1259.9 1109 1259.1 1121.6 1258.2 1134.2 1256.7 1156.8 1255.6 1174.9 1255.3 1179.2 1233.6 1195.5 1215 1180 1208.8 1167 1208 1162.7 1204.8 1145.8 1200.8 1124.3 1198.6 1112.3 1196.4 1100.3 1194.8 1091.2 1194.1 1087.4 1193.5 1084.7 1193.1 1082.1 1201.5 1071.7 1213 1066.9 1224.3 1066.4M1156.4 1071.2C1165.4 1071.4 1174.3 1075.1 1180.7 1083.4 1181.2 1086 1181.8 1089.4 1182.5 1093.5 1184.2 1102.6 1186.5 1114.7 1188.7 1126.7 1192.8 1148.6 1196.1 1166.9 1196.8 1170.5 1190.5 1181.1 1157.6 1189.1 1145.7 1173 1145.6 1172.6 1146 1172.3 1145.8 1172L1124 1084C1128.8 1077.7 1142.5 1070.9 1156.4 1071.2M483.8 1075.6C495.8 1083 504 1089.9 509 1096.1 514.1 1102.5 515.9 1108.1 515.7 1113.3 515.2 1123.6 505.5 1133.6 491.2 1142.9 476.9 1152.2 458.3 1160.7 440.9 1168.9 432.4 1172.9 424.6 1176.8 417.5 1180.7 409 1182.3 401.7 1180.3 395.4 1175.4 388.6 1170.2 383.1 1161.9 379.4 1153 375.8 1144.1 373.9 1134.5 374.2 1126.7 374.3 1121.4 375.7 1117.5 377.6 1114.5 407.8 1101.5 444.9 1095 471.2 1083.2 476.1 1081.1 479.8 1078.2 483.8 1075.6M1086.2 1079.5C1094.7 1078.8 1103.7 1081.2 1111.9 1087.4L1133.2 1172C1127.1 1187.8 1100.9 1193 1090.3 1186.7L1058.4 1099.1C1057.2 1091.1 1070.3 1080.8 1086.2 1079.5M1287.6 1081C1305.5 1081.8 1331.4 1100.1 1331.1 1115.8L1309.5 1201.5C1305.3 1212.1 1273.6 1208 1267.4 1185.1V1184.9C1267.4 1184.9 1269 1160.2 1270.6 1135.1 1271.4 1122.5 1272.3 1109.8 1272.9 1100.2 1273.2 1095.4 1273.4 1091.4 1273.6 1088.5 1273.6 1087.9 1273.7 1087.5 1273.7 1087 1276.6 1082.5 1281.7 1080.8 1287.6 1081M1034.4 1097.4C1038.9 1097.4 1042.7 1098.7 1045.8 1100.7L1078.8 1191.2C1075.3 1202.5 1036.6 1223.5 1026 1211.7L993.2 1120.8C994.4 1109.6 1017.2 1097.3 1034.4 1097.4M1356.8 1115.8C1374.8 1115.8 1395.8 1131.9 1395.5 1156.3L1361.3 1241.7C1349.1 1246.6 1319.9 1234.7 1319.5 1211.9L1342.6 1120.6C1346.7 1117.6 1351.5 1115.8 1356.8 1115.8M966.6 1121.4C971.8 1121.2 976.9 1123.1 981.9 1126.4L1013.8 1215C1009.9 1231.8 977.2 1251.7 964 1237L926.3 1151C926.5 1150.6 926.7 1149.2 927 1149.7 927.8 1142.9 946.9 1122 966.6 1121.4M519.8 1136C538 1147.3 544.3 1159 543.7 1170.9 543 1183 534.8 1195.9 522.6 1208 503.6 1226.9 477.1 1241.7 455.6 1251.6 450.5 1251.6 444.8 1249.7 439 1245.5 432.3 1240.7 425.8 1233.8 420.6 1226.2 415.5 1218.7 411.8 1210.6 410.5 1204.1 409.9 1200.9 409.9 1198 410.5 1195.9 411 1194.2 412.1 1193.1 413.3 1192.1 443.9 1178.3 481.5 1166.3 505.7 1149.4 511.5 1145.4 516 1140.8 519.8 1136M903.3 1151.6C908.2 1150.9 912.6 1151.7 916.4 1153.5L955.4 1242.6C956.2 1265.9 909.9 1287.6 899.4 1277.6L864.4 1180.3C863.9 1170.6 885.2 1154.2 903.3 1151.6M1419.8 1159.6C1437 1160.1 1460.3 1170.9 1459.5 1186.8L1426.2 1277C1409 1290.1 1373.1 1259.7 1372.2 1247.6L1406.2 1163.1C1409.4 1160.7 1414.1 1159.4 1419.8 1159.6M836.1 1177.3C841.6 1175.5 848.1 1177.2 855.1 1183.9L890.3 1281.4C889.3 1291.6 850.8 1319 830.4 1306.9 825.8 1295.8 808.5 1256 804.4 1229.8 806.5 1221.2 809 1212.9 812.1 1205.7 815.1 1198.4 818.4 1193.9 821.4 1187.9 824.9 1184.4 829.9 1179.3 836.1 1177.3M1203.6 1190.2C1203.8 1190.4 1203.7 1190.8 1203.9 1191 1204.8 1198.4 1248 1206.6 1253.1 1205.7 1249.9 1214.9 1277.6 1233 1292.8 1238.8 1296.9 1244.3 1296.9 1255.5 1296.3 1261.6 1294.9 1277.2 1299.8 1297.1 1322 1311.3 1336.5 1320.4 1385.4 1337.6 1385.6 1377 1385.8 1405.4 1363.2 1417 1353 1423.5 1361.9 1406.7 1352.6 1389.4 1333.6 1386.1 1320.5 1384 1287.3 1382 1258.9 1384.7 1256.1 1384.9 1254.1 1387.4 1254.4 1390.1 1254.6 1392.9 1257 1394.9 1259.8 1394.6 1272.4 1397.3 1278.5 1396.6 1276.7 1407.6 1276.6 1407.9 1277 1408 1277 1408.3 1231.6 1444 1133.9 1535.9 1131.3 1570.8 1130.6 1580.6 1140.7 1591.3 1154.1 1590.2 1154.9 1590.1 1201.8 1567.2 1221.5 1584.9 1210.7 1595.7 1218.9 1620.9 1218.6 1622.1 1193.5 1640.2 1164.2 1614.5 1115.8 1614.1 1067.3 1613.8 1027.6 1645.4 996.3 1646.1 992.2 1646.2 990.2 1645.4 987.8 1644.7 990.6 1640.9 992.9 1637.1 993.1 1637.1 993.5 1637 996.1 1635.4 996.6 1635.3 997.6 1635.3 998.4 1634.7 998.8 1633.8 999.2 1632.9 999 1631.8 998.3 1631.1 997.6 1630.4 996.6 1630.2 995.7 1630.5 996 1630.4 995.6 1630.5 995.2 1630.5H993.7C992.4 1630.5 971.9 1635.8 966.1 1635.8 954.6 1635.9 929.3 1644.4 913.3 1653.1 902.5 1657.5 881.7 1681.1 849.9 1674 853.6 1660.5 848.6 1643.1 838.4 1628.3 840.2 1628.1 843.4 1623.7 845.1 1620.1 892.2 1612.1 887.3 1636.3 898.3 1618.7 905.4 1607.3 909.2 1637.7 967.7 1589.1 968.5 1588.6 968.9 1587.8 968.9 1586.9 968.9 1586 968.4 1585.1 967.5 1584.7 966.7 1584.3 965.8 1584.3 965 1584.9 894.9 1613.8 915.7 1593.7 884.2 1595.1 854.3 1596.5 862.4 1603.5 844.5 1603.2 835.1 1603.1 824.9 1594.8 822.6 1590.5 830.1 1588.7 830.5 1564.9 824.9 1554.8 828.7 1549.9 840 1547.8 849.7 1547.8 876.4 1547.8 886.7 1572 914.9 1574.9 935 1574.8 953.5 1558.2 970.1 1569.3 971.3 1570 972.9 1569.5 973.6 1568.3 974.1 1567.4 973.5 1566.3 972.8 1565.5 1094.9 1569.6 1185.1 1302.7 1165.8 1273.9 1165.8 1273.1 1165.5 1272.4 1164.9 1271.9 1164.7 1271.7 1164.5 1271.8 1164.3 1271.7 1161.8 1263.6 1156.9 1252.9 1144.3 1248.5 1144.2 1248.3 1144.3 1247.5 1144.1 1247.4 1140.8 1243.6 1134.9 1219.9 1109.9 1216.6 1111.3 1210.5 1112.1 1206 1112.4 1202.9 1125 1199.9 1138.6 1195.1 1141.7 1191.3 1148.5 1200.6 1205.5 1199.2 1203.6 1190.2M1478.5 1194.8C1494.6 1194.9 1516.9 1208.4 1518.8 1222L1491.2 1293.8C1478.5 1308.8 1447.4 1297.9 1443.1 1293.7 1439.9 1290.6 1438.7 1285.2 1438.3 1279.7L1467.4 1198.8C1470.3 1196.3 1473.9 1194.7 1478.5 1194.8M541 1202.7C540.8 1206.4 540.3 1210.1 540.1 1213.8 538.9 1235.6 538.6 1255.2 538.3 1273.6 538.2 1273.6 538.1 1273.5 538.1 1273.6V1273.7C534.4 1287 529 1295.1 522.8 1299.3 516.5 1303.5 509.5 1304 501.7 1301.5 487.2 1296.8 471.1 1280.5 459.8 1258.9 489.8 1248.8 519.9 1229.9 538.3 1207.2 539.4 1205.8 540 1204.2 541 1202.7M1095.1 1207.7C1092.6 1240.6 1040 1279.7 1019.7 1279L1019.5 1278.9C1015.8 1275.7 1011.2 1273.6 1008.1 1269.9 1000.3 1256.6 1078.4 1212.2 1095.1 1207.7M1307.6 1228.1C1307.8 1228.4 1308.1 1228.7 1308.2 1229 1307.9 1229.1 1307.4 1229.4 1307 1229.5 1307.3 1228.9 1307.3 1228.7 1307.6 1228.1M1111.2 1230.1C1131.9 1232 1139.1 1256.6 1132.5 1260 1133.4 1261.3 1113.5 1306.4 1091.4 1318 1083.9 1321.9 1073.7 1320 1067.5 1319.1 1056 1314.4 1043.3 1302.8 1039.3 1290.7 1045.1 1280.1 1075.3 1270.2 1101.4 1230.9 1104.9 1230.1 1108.2 1229.9 1111.2 1230.1M1529.1 1230.9C1543.6 1227.6 1572.3 1243.5 1573.7 1265.2L1557.3 1310.2C1547.3 1317.6 1502.1 1318.4 1501.6 1300.9L1527.6 1231.8C1528.2 1231.6 1528.5 1231.1 1529.1 1230.9M799.4 1266.3C808.2 1261.4 817.4 1297.9 821.4 1309.4L821.2 1309.6C821.3 1311.6 805.6 1354.6 794.8 1293.2 795 1289.6 796.5 1278.4 797.7 1268.6 798.3 1267.9 798.8 1266.6 799.4 1266.3M1145.4 1269.9C1147.9 1273.3 1154.8 1273.6 1157.1 1284.3 1154.5 1301.8 1149.7 1322.7 1142.3 1345.6 1131.7 1349.8 1113.2 1343.2 1102.2 1336.8 1100.2 1334.1 1098.5 1331 1100.2 1327 1124.5 1310.8 1136.3 1281.9 1140.4 1271.6 1142.4 1270 1144.4 1268.5 1145.4 1269.9M1581.5 1277.3C1590.6 1276.1 1616.9 1295.1 1619.8 1319.7L1620.5 1321.3C1616.1 1336 1579.3 1332.7 1568.9 1314.3L1581.5 1277.3M537.3 1295.6C537.1 1305.7 536.6 1313.4 536.1 1320.3 533.3 1317.7 531.2 1314.4 529.7 1310.7 529.9 1310.4 530.2 1310.3 530.4 1310 533 1306.2 535.3 1301.3 537.3 1295.6M881.8 1483.4C888.7 1483.6 890.9 1485 897.5 1491.5 904.2 1498.1 909 1509.2 921.2 1521.6 932.4 1532.8 962.7 1548.9 980.5 1553.5 974.3 1555.6 967.9 1557 961.3 1558.1 944.5 1552.9 924.3 1565.4 896.5 1541.5 892.5 1538.3 882.2 1535.9 872 1534.2 866.2 1529.5 850.5 1517.5 852.2 1516.5 859.7 1504.4 868.1 1492.4 866 1488.9 869.3 1484.6 874.8 1483.3 881.8 1483.4M837.5 1486.7C844.9 1485.1 852.6 1487.3 858.5 1490.4 857.7 1492 856.9 1493.6 856.2 1495.3 851.4 1492.3 845.4 1489.9 834.5 1492.5 833.5 1492.6 832.7 1493.2 832.4 1494 832.1 1494.9 832.4 1495.9 833.2 1496.5 833.9 1497.1 835 1497.2 835.9 1496.8 844.8 1494.8 848.9 1498.3 853 1501.8 852.1 1503.7 851.2 1505.1 850.3 1506.5 845.1 1502.6 825.5 1489.9 820.3 1509.8 821.1 1495.2 828.7 1488.6 837.5 1486.7M1516.9 1496.4C1524.9 1497.1 1530.5 1500.5 1534.1 1502.9 1534.4 1504.3 1535.4 1505.6 1535.2 1507.1 1535.1 1507.6 1534.7 1508.1 1534.5 1508.5 1528.3 1504.7 1517.5 1500.2 1505.1 1503.1 1504.1 1503.2 1503.3 1503.8 1503 1504.6 1502.7 1505.5 1502.8 1506.4 1503.6 1507 1504.3 1507.6 1505.6 1507.8 1506.5 1507.4 1517.4 1504.9 1523.7 1513.4 1529.1 1517.7 1527 1520 1524.7 1522 1522.5 1523.5 1518.8 1520.2 1499.1 1503.4 1483.2 1525.8 1492.5 1500.7 1505.7 1495.3 1516.9 1496.4M278.5 1499C286.2 1497.5 291.7 1503.5 294.9 1507.6 294.8 1508.2 294.3 1509.3 294.4 1509.5 294.9 1510 294.5 1511.1 294.1 1512.3 289.4 1509.9 283.5 1508.7 272.3 1511.3 271.3 1511.5 270.5 1512 270.1 1512.9 269.8 1513.7 270.2 1514.6 270.9 1515.2 271.7 1515.8 272.7 1516 273.7 1515.7 282.8 1513.6 286 1516.7 289.8 1520.2 287.9 1522.9 286.2 1524.5 284.7 1526 278.6 1522 263.6 1513.8 256.4 1526 264.4 1507.3 272 1500.3 278.5 1499M843.5 1514.1C843.5 1514.2 843.8 1514.5 843.7 1514.4 843.5 1514.4 843.4 1514.6 843.2 1514.6 843.3 1514.4 843.4 1514.3 843.5 1514.1M809.2 1552.3C809.7 1552.3 809.7 1552.4 810.2 1552.5 811.5 1553.3 813.9 1554.1 814.6 1554.8 815.8 1555.9 816 1557.7 816.7 1559.2 809.8 1558.5 801.2 1558.9 793.7 1565.1 792.9 1565.6 792.5 1566.5 792.6 1567.4 792.7 1568.4 793.4 1569.3 794.3 1569.6 795.2 1569.9 796.1 1569.7 796.8 1569 804.3 1562.8 812.6 1567.6 818.9 1570.1 818.8 1572.8 818.3 1574.8 817.7 1577.5 811.8 1572.6 797.2 1564.6 785 1578.5 783.3 1555 799.9 1552.1 809.2 1552.3M1487.3 1574C1489.4 1574 1489.5 1574.2 1491.1 1574.4 1491.7 1577.4 1491.7 1580.7 1491.4 1584.1 1484.3 1583.1 1474.9 1583.3 1466.7 1590 1465.9 1590.5 1465.6 1591.5 1465.7 1592.5 1465.8 1593.5 1466.3 1594.2 1467.2 1594.5 1468.1 1594.8 1469.2 1594.6 1469.8 1593.9 1476.1 1588.8 1482.6 1591.4 1488.4 1593.7 1487.8 1595.5 1487.4 1597.1 1486.7 1598.6 1479.7 1595.9 1460.5 1590.6 1457.1 1617.1 1443.1 1577.6 1471.4 1573.3 1487.3 1574M1231.8 1590.6C1231.8 1590.7 1231.7 1591.4 1231.8 1591.4 1249.7 1591.8 1283.1 1615 1242.3 1640.2 1255.9 1622.6 1230.7 1616.4 1227.7 1616 1227.6 1615.5 1227.8 1614.8 1227.7 1614.3 1233.7 1614.5 1239.5 1611.5 1250.5 1622.4 1251.2 1623.1 1251.6 1624 1252.5 1624.1 1253.4 1624.3 1254.3 1623.8 1254.8 1623 1255.4 1622.2 1255.4 1621.3 1255 1620.4 1249.9 1609.1 1235.7 1603.8 1228.2 1602 1228.9 1598.4 1230 1594.7 1231.8 1590.6M259.2 1594.5C259.7 1597.2 259.6 1600.2 258.8 1603.6 251.8 1602.5 242 1602.4 233.6 1609.3 232.8 1609.8 232.3 1610.7 232.4 1611.7 232.5 1612.6 233.2 1613.5 234.1 1613.8 235 1614.1 236 1613.9 236.7 1613.2 243 1608 249.6 1610.7 255.4 1613.1 254 1616.5 252.8 1619.2 251.3 1621.8 244.8 1619 232.9 1614.7 222.3 1625.2 226.5 1595.9 247.3 1593.5 259.2 1594.5M1916.8 1614C1924.7 1616.5 1969.1 1633.6 1932.1 1667.6 1941.5 1640.6 1915.5 1638.1 1911 1637.7 1911 1636.5 1911.1 1635.2 1911.2 1633.9 1917.8 1634.5 1926.6 1634.6 1930.4 1643.1 1930.7 1644 1931.4 1644.7 1932.4 1644.8 1933.3 1645 1934.3 1644.6 1934.9 1643.7 1935.4 1642.9 1935.4 1641.9 1934.9 1641.1 1930 1630.1 1919.7 1625.2 1912.9 1623.3 1913.8 1619.8 1914.8 1616.4 1916.8 1614M1520 1637.7C1521.4 1640.3 1522.7 1643.3 1523.7 1647.2 1517 1648.6 1505.3 1653.6 1500.2 1665.4 1499.7 1666.2 1499.7 1667.2 1500.2 1668 1500.7 1668.8 1501.7 1669.3 1502.7 1669.1 1503.6 1669 1504.4 1668.3 1504.7 1667.4 1508.7 1658.2 1518.9 1658.9 1525.6 1658.1 1525.7 1659.4 1525.8 1660.7 1525.9 1662 1520 1662.5 1493.9 1665.6 1503 1691.7 1464.1 1656.1 1515.9 1638.8 1520 1637.7M835.3 1639.9C836.4 1641.8 837.5 1643.4 838.4 1645.8 831.6 1647.9 822.5 1652.5 818 1662.8 817.5 1663.6 817.5 1664.6 818 1665.4 818.5 1666.2 819.5 1666.6 820.5 1666.5 821.4 1666.4 822.2 1665.7 822.5 1664.8 826.2 1656.2 835.1 1656.2 841.8 1655.6 842.6 1659.4 843 1663 842.9 1666.6 834.7 1665.1 816.3 1667.2 810.5 1682.5 794.6 1665.9 815.3 1644.3 835.3 1639.9M664.4 1646.2C682.6 1649.8 716.3 1665.5 679 1699.7 691.7 1680.7 665.8 1675.5 659 1674.4 658.3 1672.4 658.3 1670.3 658.2 1667.9 665.5 1668.6 677.3 1668.3 681.1 1677.1 681.4 1678 682.2 1678.7 683.1 1678.8 684.1 1678.9 685.1 1678.5 685.6 1677.7 686.2 1676.9 686.1 1675.9 685.6 1675.1 680.8 1664.1 667.4 1658.1 659.6 1655.9 660.8 1651.8 662.6 1648.6 664.4 1646.2M278.7 1684.1H278.8C280.5 1687 282.2 1688.6 283.6 1692.2 277.1 1694.8 269.8 1699.2 265.8 1708.2 265.3 1709.1 265.4 1710.1 266 1710.9 266.5 1711.7 267.3 1712.1 268.3 1712 269.2 1711.8 270 1711.2 270.3 1710.3 273.4 1703.1 280 1702.1 286.1 1701.5 286.8 1705.3 286.9 1708.8 286.4 1712.1 277.9 1711.8 263.1 1713.3 270.6 1734.9 247.3 1705.8 265.6 1684.9 278.7 1684.1" id="Design" fill="#000"/></g></svg>