<svg viewBox="0 0 2000 2000" xmlns="http://www.w3.org/2000/svg"><g fill="none" fill-rule="evenodd"><path d="M1396.8 646.7C1399.3 649.2 1401.8 651.8 1404.2 654.5 1408 650.9 1412.7 640.5 1416.9 622 1427.9 574 1462.9 569 1462.9 569 1462.9 569 1449.9 595 1449.9 622 1449.9 649 1468.9 695 1479.9 732 1487.6 758 1479.6 781 1470 808 1475 854.7 1470.2 905.9 1453.7 958.7 1390.7 1159.8 999.6 1420 999.6 1420 999.6 1420 612.9 1159.8 547.3 958.7 525.2 891.2 523 826.4 536.3 770.1 534.9 762.1 533.4 754.4 531.6 748.1 524.6 723 542.6 701 551.6 673 560.6 645 551.6 611 551.6 611 551.6 611 585.6 634 585.6 661 585.6 662.7 585.6 664.6 585.6 666.7 585.8 666.4 586.1 666.1 586.3 665.8 588.6 619.1 594.2 633.5 562.6 578 541.2 540.5 559.5 504.7 570.6 474 578.7 451.6 578.6 428 578.6 428 578.6 428 598.6 422 585.6 490 572.6 558 648.6 604 648.6 604 648.6 604 674.6 599 648.6 558 629.4 527.8 603.6 512 603.6 474 603.6 436 648.6 395 648.6 395 648.6 395 629.7 427.2 642.6 453 651.2 470.2 672.8 471.1 674.6 470 708.6 450 697.6 408 690.6 388 683.6 368 662.6 344 668.6 308 674.6 272 710.6 247 710.6 247 710.6 247 690.6 301 710.6 340 729.8 377.3 761.7 408 761.7 408 761.7 408 726.6 341 773.7 264 777.3 258.1 779.9 285.5 788.7 287.9 799.8 291.1 827.7 268 818.7 214 809.7 160 818.7 135.9 818.7 135.9 818.7 135.9 818.7 154 834.7 172 850.7 190 852.7 209.9 852.7 209.9 852.7 209.9 842.7 140.9 862.7 118.9 882.7 97 904.7 89 904.7 89 904.7 89 867.7 123 904.7 172 941.7 221 945.7 254 913.7 296 881.7 338 895.7 366 895.7 366 895.7 366 919.7 334 946.7 296 973.7 258 957.7 214 957.7 214 957.7 214 1001.7 229 976.7 336 951.7 443 1001.7 366 1001.7 366 1001.7 366 1029.8 388 1024.8 437 1019.8 486 1000 492 1005.7 520 1011.5 548 1048.8 527 1062.8 486 1076.8 445 1034.8 389 1034.8 357 1034.8 325 1076.8 292 1076.8 292 1076.8 292 1076.8 344 1091.8 366 1106.8 388 1120.8 354 1112.8 323 1104.8 292 1128.8 260 1128.8 260 1128.8 260 1146.9 285.6 1151.8 264 1159.8 229 1128.8 196 1128.8 196 1128.8 196 1159.8 207.6 1175.8 224.6 1191.8 241.6 1198.9 281.6 1186.8 308 1177.7 328 1151.8 374 1155.8 401 1159.8 428 1175.8 395 1175.8 395L1191.8 344C1191.8 344 1206.8 368.3 1212.8 432 1218.8 495.8 1164.8 550 1212.8 569 1260.8 588 1234.8 511 1234.8 511 1234.8 511 1253.8 520 1253.8 541 1253.8 562 1272.8 563 1272.8 546 1272.8 529 1229.8 490 1229.8 465 1229.8 435.7 1263.8 413 1263.8 413 1263.8 413 1260.8 437 1272.8 448 1284.8 459 1297.8 459 1297.8 459 1297.8 459 1269.8 392.7 1272.8 366 1278.2 318.6 1314.8 299.9 1305.8 314 1291.8 336 1282.8 355 1343.9 412 1373.1 439.4 1381.9 502 1368.9 558 1365.8 571.1 1387.3 565.7 1397.9 546 1412 519.7 1416.9 474 1416.9 474 1416.9 474 1428.9 529.4 1425.9 546 1420 578.1 1398.5 617.6 1397.9 622 1396.4 632.6 1396.1 640.9 1396.8 646.7M980 140.1C984.3 106.4 988.6 96.8 989.8 82.8 992.3 55.4 962.9 18 962.9 18 962.9 18 967.4 67.83 962.9 71.82 952.5 80.98 957.4 46.4 957.4 46.4 957.4 46.4 924.4 97.7 949.4 137.6 974.4 177.5 985.9 191 985.9 191 985.9 191 975.8 172.4 980 140.1M1077.5 209.8C1089.7 189 1081 157.1 1081 157.1 1081 157.1 1051.1 204.8 1040.2 186.7 1029.2 168.7 1050 161.3 1057.1 143.1 1064.4 124.5 1059.1 105 1059.1 105 1059.1 105 1021.3 125.6 1014.3 146.1 1007.3 166.7 1008.4 197.2 1021.3 228.3 1034.2 259.4 1021.3 298 1021.3 298 1021.3 298 1051.1 254.9 1077.5 209.8" id="HeartAflame-Fimbriation" fill="#000"/><path d="M1457.9 845.1C1469.9 800.1 1490.9 769.1 1479.9 732 1468.9 695 1449.9 649 1449.9 622 1449.9 595 1462.9 569 1462.9 569 1462.9 569 1427.9 574 1416.9 622 1405.9 670 1391.9 664 1397.9 622 1398.5 617.6 1420 578.1 1425.9 546 1428.9 529.4 1416.9 474 1416.9 474 1416.9 474 1412 519.7 1397.9 546 1387.3 565.7 1365.8 571.1 1368.9 558 1381.9 502 1373.1 439.4 1343.9 412 1282.8 355 1291.8 336 1305.8 314 1314.8 299.9 1278.2 318.6 1272.8 366 1269.8 392.7 1297.8 459 1297.8 459 1297.8 459 1284.8 459 1272.8 448 1260.8 437 1263.8 413 1263.8 413 1263.8 413 1229.8 435.7 1229.8 465 1229.8 490 1272.8 529 1272.8 546 1272.8 563 1253.8 562 1253.8 541 1253.8 520 1234.8 511 1234.8 511 1234.8 511 1260.8 588 1212.8 569 1164.8 550 1218.8 495.8 1212.8 432 1206.8 368.3 1191.8 344 1191.8 344L1175.8 395C1175.8 395 1159.8 428 1155.8 401 1151.8 374 1177.7 328 1186.8 308 1198.9 281.6 1191.8 241.6 1175.8 224.6 1159.8 207.6 1128.8 196 1128.8 196 1128.8 196 1159.8 229 1151.8 264 1146.9 285.6 1128.8 260 1128.8 260 1128.8 260 1104.8 292 1112.8 323 1120.8 354 1106.8 388 1091.8 366 1076.8 344 1076.8 292 1076.8 292 1076.8 292 1034.8 325 1034.8 357 1034.8 389 1076.8 445 1062.8 486 1048.8 527 1011.5 548 1005.7 520 1000 492 1019.8 486 1024.8 437 1029.8 388 1001.7 366 1001.7 366 1001.7 366 951.7 443 976.7 336 1001.7 229 957.7 214 957.7 214 957.7 214 973.7 258 946.7 296 919.7 334 895.7 366 895.7 366 895.7 366 881.7 338 913.7 296 945.7 254 941.7 221 904.7 172 867.7 123 904.7 89 904.7 89 904.7 89 882.7 97 862.7 118.9 842.7 140.9 852.7 209.9 852.7 209.9 852.7 209.9 850.7 190 834.7 172 818.7 154 818.7 135.9 818.7 135.9 818.7 135.9 809.7 160 818.7 214 827.7 268 799.8 291.1 788.7 287.9 779.9 285.5 777.3 258.1 773.7 264 726.6 341 761.7 408 761.7 408 761.7 408 729.8 377.3 710.6 340 690.6 301 710.6 247 710.6 247 710.6 247 674.6 272 668.6 308 662.6 344 683.6 368 690.6 388 697.6 408 708.6 450 674.6 470 672.8 471.1 651.2 470.2 642.6 453 629.7 427.2 648.6 395 648.6 395 648.6 395 603.6 436 603.6 474 603.6 512 629.4 527.8 648.6 558 674.6 599 648.6 604 648.6 604 648.6 604 572.6 558 585.6 490 598.6 422 578.6 428 578.6 428 578.6 428 578.7 451.6 570.6 474 559.5 504.7 541.2 540.5 562.6 578 599.6 643 585.6 612 585.6 696 585.6 780.1 585.6 688 585.6 661 585.6 634 551.6 611 551.6 611 551.6 611 560.6 645 551.6 673 542.6 701 524.6 723 531.6 748.1 538.6 773.1 542.6 819.1 542.6 819.1 542.6 819.1 1445.9 890.1 1457.9 845.1M980 140.1C984.3 106.4 988.6 96.8 989.8 82.8 992.3 55.4 962.9 18 962.9 18 962.9 18 967.4 67.83 962.9 71.82 952.5 80.98 957.4 46.4 957.4 46.4 957.4 46.4 924.4 97.7 949.4 137.6 974.4 177.5 985.9 191 985.9 191 985.9 191 975.8 172.4 980 140.1M1077.5 209.8C1089.7 189 1081 157.1 1081 157.1 1081 157.1 1051.1 204.8 1040.2 186.7 1029.2 168.7 1050 161.3 1057.1 143.1 1064.4 124.5 1059.1 105 1059.1 105 1059.1 105 1021.3 125.6 1014.3 146.1 1007.3 166.7 1008.4 197.2 1021.3 228.3 1034.2 259.4 1021.3 298 1021.3 298 1021.3 298 1051.1 254.9 1077.5 209.8" id="HeartAflame-Flames" fill="#f00"/><path d="M1002.4 709C1002.4 709 1061.6 581 1235.5 581 1409.5 581 1516.7 757.6 1453.7 958.7 1390.7 1159.8 999.6 1420 999.6 1420 999.6 1420 612.9 1159.8 547.3 958.7 481.7 757.6 591.5 581 765.4 581 939.4 581 1002.4 709 1002.4 709" fill="#d0011b"/></g></svg>