<svg viewBox="0 0 2000 2000" xmlns="http://www.w3.org/2000/svg"><g fill="none" fill-rule="evenodd"><path d="M955.9 1531.7C947.8 1540.9 944.1 1547.6 936.9 1566.8 925.2 1598.6 912.9 1655.3 911.2 1686.7 910.1 1704.8 914.5 1719.4 925.5 1734.7 934.5 1746.7 938.7 1749.9 950.5 1753.4 964 1757.4 973.8 1754.1 986.9 1740.9 992.7 1735.1 999.9 1725.9 1002.7 1720.6 1007.5 1711.8 1008 1709.4 1008 1694.2 1008 1678.4 1007.3 1675.4 995.2 1636.1 972.7 1563.8 968.5 1549.7 966.2 1538.3 965.2 1532.1 963.4 1527 962.4 1527 961.3 1527 958.4 1529.1 955.9 1531.7M1037.8 1783.3C1035.5 1794.7 1031.3 1808.8 1008.8 1881.1 996.7 1920.4 996 1923.4 996 1939.2 996 1954.4 996.5 1956.8 1001.3 1965.6 1004.1 1970.9 1011.3 1980.1 1017.1 1985.9 1030.2 1999.1 1040 2002.4 1053.6 1998.4 1065.3 1994.9 1069.5 1991.7 1078.5 1979.7 1089.5 1964.4 1093.9 1949.8 1092.8 1931.7 1090.4 1888.7 1069.5 1806.7 1056.2 1787.1 1050.7 1779.2 1043.9 1772 1041.6 1772 1040.6 1772 1038.8 1777.1 1037.8 1783.3M1002.8 662.2C1002.8 662.2 1071.2 514 1272.5 514 1473.7 514 1597.7 718.6 1524.8 951.6 1451.9 1184.6 999.5 1486 999.5 1486 999.5 1486 552.2 1184.6 476.3 951.6 400.4 718.6 527.4 514 728.6 514 929.8 514 1002.8 662.2 1002.8 662.2" id="Object_HeartBleeding" fill="#d0011b"/></g></svg>