<svg viewBox="0 0 2000 2000" xmlns="http://www.w3.org/2000/svg">
    <g id="Human_MaskHatHappy">
        <path id="Human_MaskHatHappy-Fimbriation" type="charge" colorOrder="2" fill="#cdcdcd" d="M394.62 631.58C377.29 622.54 366.56 609.28 358.01 586.36 337.49 531.37 383.05 481.88 439.98 497.33 459.06 502.51 477.68 516.11 485.75 530.75 494.55 546.74 495.69 572.61 488.58 595.19 482.34 615.04 477.12 620.1 450.61 632.03 427.87 642.26 414.9 642.15 394.62 631.58M1557.08 620.32C1540.71 610.33 1519.08 575.29 1519.08 558.76 1519.08 537.26 1536.59 506.65 1555.52 495.08 1562.75 490.67 1568.24 489.56 1582.85 489.54 1608.05 489.53 1619.11 495.14 1632.03 514.51 1647.61 537.86 1650.5 556.02 1643.15 584.3 1635.42 613.98 1620.07 624.77 1585.47 624.85 1569.38 624.88 1562.84 623.84 1557.08 620.32M982.04 135.98C972.65 132.96 957.97 118.54 945.82 100.39 934.24 83.1 933.26 71.47 941.2 45.739 947.16 26.415 958.44 12.558 974.58 4.739 984.14.107 988.93-.469 1011.76.266L1037.97 1.109 1049.77 13.953C1072.71 38.944 1079 62.08 1069.61 87.04 1061.69 108.13 1049.88 123.81 1036.92 130.49 1024.39 136.94 994.38 139.94 982.04 135.98M993.16 1991.19C967.16 1977.52 936.66 1955.18 899.45 1922.58 846.81 1876.43 829.08 1853.49 791.22 1782.5 756.72 1717.8 737.32 1660.83 724.19 1585.65 711.57 1513.42 710.3 1442.53 720.59 1385.1 726.81 1350.37 726.29 1346.34 709.08 1295.29 701.18 1271.86 683.98 1237.54 671.95 1221.2 657.72 1201.87 644.74 1195.2 618.39 1193.67 600.64 1192.64 598.47 1193.09 584.25 1200.67 575.89 1205.12 568.09 1210.57 566.92 1212.76 565.74 1214.96 563.15 1225.36 561.17 1235.87 559.19 1246.37 556.94 1255.6 556.17 1256.36 552.72 1259.81 547.05 1253.79 539.71 1238.89 532.39 1224.01 531.86 1221.32 532.94 1204.46 533.79 1191.19 535.99 1182.33 540.97 1172.17 555.54 1142.39 611.09 1097.53 641.3 1091.16 650.08 1089.3 650.21 1082.03 641.58 1075.24 628.78 1065.17 619.91 1068.51 588.07 1095.39 549.63 1127.84 524.09 1139.11 500.75 1133.94 483.87 1130.19 457.03 1116.05 438.96 1101.38 395.39 1066 355.7 999.46 353.3 957.75 351.55 927.4 355.78 919.33 412.49 844.7 438.47 810.51 454.38 782.62 458.56 763.97 462.16 747.9 457.27 728.94 441.38 697.35 434.57 683.81 429.02 670.16 429.04 667.01 429.09 660.01 440.87 647.74 449.68 645.53 460.43 642.83 467.35 646.2 482.84 661.69 508.31 687.16 515.97 710.19 519.8 772.77L521.96 807.94 534.78 819.73C562.84 845.53 573.18 850.15 594.03 846.2 607.29 843.68 613.76 839.9 651.27 812.7 684.93 788.3 690.18 785.55 709.09 782.51 717.3 781.19 726.85 778.25 730.31 775.98 738.7 770.48 769.67 731.98 786.63 705.96 794.13 694.45 803.3 682.27 807.01 678.89 815.96 670.73 831.43 637.23 835.2 617.84 838.83 599.2 836.95 560.15 831.56 542.32 829.52 535.56 824.99 521.92 821.5 512.01 815.98 496.36 815.14 489.93 815.07 462.8 814.99 434.96 815.7 429.6 821.64 413.14 841.95 356.79 860.83 326.96 919.01 259.3 970.27 199.69 973.13 195.84 979.82 177.52 986.18 160.08 992.17 155.99 1008.68 157.85 1017.27 158.82 1022.16 161.11 1027.9 166.86 1035.18 174.15 1035.58 175.54 1035.3 192.35 1035.07 206.3 1032.29 218.82 1022.4 250.46 1007.35 298.58 1003.69 317.78 1005.77 337.69 1009.56 374 1026.23 391.06 1089.91 423.81 1141.43 450.3 1166.19 467.01 1176.07 481.94L1182.62 491.84 1185.06 601.97 1187.5 712.11 1194.6 726.21C1198.5 733.96 1204.44 742.1 1207.78 744.29 1211.36 746.64 1230.05 750.66 1253.2 754.07 1274.83 757.25 1300.3 762.56 1309.79 765.86 1334 774.28 1362.21 791.46 1397.29 819.15 1432.1 846.62 1447.64 856.32 1457.3 856.59 1466.34 856.85 1489.05 844.37 1495.52 835.58 1502.47 826.14 1504.05 791.43 1498.4 772.4 1493.53 756 1493.35 731.2 1498 718.93 1499.93 713.82 1503.21 703.55 1505.27 696.1 1511.24 674.59 1532.89 656.75 1553.03 656.75 1562.95 656.75 1570.76 662.33 1570.76 669.43 1570.76 671.45 1567.94 681.33 1564.5 691.38 1552.71 725.76 1557.04 749.75 1580.22 778.55 1600.56 803.82 1627.42 845.66 1632.18 859.48 1639.81 881.67 1644.58 911.04 1644.54 935.69 1644.51 954.08 1643.21 961.9 1637.39 978.62 1624.87 1014.6 1588.49 1074.16 1564.2 1098.45 1550.99 1111.66 1510.8 1132.09 1488.7 1136.84 1480.78 1138.54 1473.82 1141.18 1473.24 1142.7 1472.65 1144.22 1474.98 1155.92 1478.4 1168.7 1485.43 1194.94 1486.38 1207.94 1481.29 1207.94 1479.44 1207.94 1468.65 1201.87 1457.3 1194.45 1438.29 1182.02 1435.52 1180.95 1422.27 1180.91 1413.95 1180.89 1404.3 1182.57 1399.39 1184.89 1386.27 1191.12 1355.24 1223.84 1347.5 1239.62 1340.83 1253.19 1340.7 1254.31 1340.76 1297.75 1340.81 1336.09 1341.76 1347.01 1347.85 1378.95 1354.53 1413.98 1354.81 1418.06 1353.23 1458.92 1348.8 1573.97 1342.16 1606.73 1300.39 1719.49 1291.08 1744.63 1252.82 1819.47 1236.92 1843.64 1221.47 1867.13 1153.24 1935.07 1120.48 1959.59 1106.27 1970.22 1085.34 1983.39 1073.96 1988.86 1055.7 1997.63 1050.81 1998.9 1032.14 1999.68 1011.64 2000.54 1010.45 2000.28 993.16 1991.19" />
        <path id="Human_MaskHatHappy-Design" type="charge" colorOrder="1" fill="#000000" d="M993.16 1990.79C967.16 1977.13 936.66 1954.8 899.47 1922.2 846.83 1876.07 829.1 1853.13 791.25 1782.16 756.76 1717.48 737.36 1660.52 724.23 1585.36 711.62 1513.15 710.35 1442.27 720.63 1384.87 726.85 1350.14 726.34 1346.11 709.13 1295.08 701.23 1271.65 684.03 1237.35 672 1221 657.78 1201.68 644.8 1195.01 618.45 1193.48 600.7 1192.46 598.54 1192.9 584.31 1200.48 575.96 1204.93 568.16 1210.37 566.99 1212.57 565.81 1214.77 563.22 1225.16 561.24 1235.67 559.26 1246.17 557.01 1255.39 556.24 1256.16 552.79 1259.61 547.12 1253.59 539.79 1238.69 532.47 1223.82 531.94 1221.13 533.02 1204.27 533.87 1191 536.07 1182.15 541.04 1171.99 555.61 1142.21 611.15 1097.37 641.35 1091 650.14 1089.14 650.27 1081.87 641.64 1075.08 628.84 1065.02 619.97 1068.36 588.13 1095.23 549.7 1127.67 524.17 1138.94 500.83 1133.77 483.95 1130.02 457.12 1115.88 439.05 1101.21 395.49 1065.85 355.81 999.32 353.41 957.62 351.66 927.28 355.88 919.21 412.59 844.6 438.56 810.42 454.47 782.54 458.65 763.89 462.25 747.83 457.36 728.87 441.47 697.29 434.66 683.76 429.11 670.11 429.13 666.97 429.18 659.96 440.97 647.7 449.77 645.49 460.52 642.79 467.44 646.16 482.93 661.65 508.39 687.1 516.05 710.13 519.88 772.69L522.04 807.85 534.85 819.64C562.91 845.44 573.25 850.06 594.1 846.1 607.36 843.59 613.83 839.8 651.32 812.62 684.98 788.21 690.22 785.47 709.13 782.43 717.34 781.11 726.89 778.17 730.35 775.9 738.74 770.41 769.71 731.91 786.66 705.9 794.16 694.4 803.33 682.22 807.04 678.84 815.99 670.68 831.45 637.19 835.22 617.8 838.85 599.17 836.97 560.13 831.59 542.31 829.55 535.54 825.02 521.91 821.52 512 816 496.35 815.16 489.93 815.09 462.8 815.02 434.97 815.73 429.62 821.66 413.16 841.97 356.82 860.85 327 919.02 259.36 970.27 199.76 973.13 195.92 979.81 177.6 986.17 160.16 992.16 156.08 1008.67 157.94 1017.26 158.91 1022.15 161.2 1027.89 166.95 1035.16 174.24 1035.57 175.62 1035.29 192.43 1035.06 206.38 1032.28 218.89 1022.38 250.52 1007.34 298.63 1003.68 317.82 1005.76 337.73 1009.55 374.03 1026.22 391.09 1089.89 423.82 1141.4 450.31 1166.16 467.02 1176.04 481.94L1182.58 491.84 1185.02 601.94 1187.46 712.05 1194.56 726.14C1198.46 733.9 1204.39 742.03 1207.74 744.22 1211.32 746.57 1230.01 750.59 1253.14 754 1274.77 757.18 1300.24 762.49 1309.73 765.79 1333.93 774.2 1362.14 791.38 1397.21 819.06 1432.01 846.52 1447.55 856.22 1457.21 856.49 1466.25 856.75 1488.96 844.27 1495.42 835.49 1502.37 826.05 1503.96 791.35 1498.3 772.32 1493.44 755.93 1493.25 731.13 1497.9 718.86 1499.84 713.76 1503.11 703.5 1505.18 696.05 1511.14 674.54 1532.79 656.7 1552.92 656.7 1562.84 656.7 1570.65 662.28 1570.65 669.38 1570.65 671.4 1567.83 681.28 1564.39 691.32 1552.6 725.7 1556.93 749.68 1580.11 778.47 1600.44 803.73 1627.3 845.57 1632.06 859.38 1639.69 881.57 1644.45 910.93 1644.42 935.57 1644.39 953.95 1643.09 961.78 1637.27 978.49 1624.75 1014.46 1588.38 1074 1564.09 1098.29 1550.89 1111.49 1510.7 1131.92 1488.6 1136.67 1480.69 1138.37 1473.73 1141 1473.15 1142.52 1472.56 1144.05 1474.89 1155.74 1478.31 1168.52 1485.34 1194.75 1486.29 1207.74 1481.19 1207.74 1479.35 1207.74 1468.55 1201.68 1457.21 1194.26 1438.2 1181.84 1435.44 1180.77 1422.19 1180.73 1413.87 1180.7 1404.22 1182.38 1399.31 1184.71 1386.2 1190.93 1355.17 1223.64 1347.43 1239.42 1340.76 1252.99 1340.63 1254.11 1340.69 1297.54 1340.74 1335.86 1341.69 1346.78 1347.79 1378.72 1354.46 1413.74 1354.74 1417.81 1353.16 1458.67 1348.73 1573.69 1342.09 1606.43 1300.33 1719.17 1291.02 1744.3 1252.76 1819.11 1236.87 1843.28 1221.42 1866.77 1153.21 1934.69 1120.45 1959.2 1106.25 1969.83 1085.32 1983 1073.94 1988.46 1055.68 1997.23 1050.79 1998.5 1032.12 1999.28 1011.63 2000.14 1010.44 1999.88 993.16 1990.79M1030.8 1992.28C1031.71 1990.8 1033.96 1965.73 1035.81 1936.56 1037.66 1907.39 1039.48 1883.33 1039.84 1883.09 1040.2 1882.84 1049.91 1878.98 1061.41 1874.5 1089.55 1863.55 1109.89 1851.43 1141.74 1826.66 1171.14 1803.78 1183.75 1791.74 1181.08 1789.08 1180.12 1788.11 1173.01 1788.72 1165.27 1790.42 1093.65 1806.15 1041.54 1814.58 1036.2 1811.3 1035.18 1810.67 1034.35 1800.26 1034.35 1788.17V1766.17L1053.42 1766.03C1063.9 1765.95 1076.91 1765.11 1082.32 1764.16 1091.13 1762.61 1092.24 1761.6 1092.92 1754.66 1093.4 1749.68 1089.58 1736.91 1082.24 1719.02 1064.79 1676.46 1062.24 1666.75 1059.11 1630.87 1055.82 1593.14 1049.36 1557.67 1041.9 1536.39 1037.04 1522.52 1036.81 1516.78 1036.81 1410.24V1298.63L1020.21 1300.13C1011.07 1300.96 991.42 1303.69 976.54 1306.21 961.66 1308.73 939.52 1311.49 927.34 1312.34 915.16 1313.19 899.52 1315.46 892.57 1317.38 885.63 1319.3 871.3 1322.08 860.73 1323.55 840.66 1326.34 757.16 1352.72 746.57 1359.61 730.25 1370.24 724.85 1386.28 722.79 1430.37 720.32 1483.09 727.94 1553.32 742.95 1616.11 764.92 1708.05 812.3 1810.68 860.48 1870.72 910.72 1933.34 1019.32 2010.84 1030.8 1992.28M1008.58 1872.95C958.26 1851.49 873.26 1788.29 894.74 1788.31 896.43 1788.32 909.44 1791.15 923.65 1794.61 967.68 1805.34 995.48 1810.8 1014.67 1812.51L1033.12 1814.14 1033.81 1847.97C1034.34 1874.24 1033.79 1881.74 1031.35 1881.56 1029.62 1881.43 1019.37 1877.55 1008.58 1872.95M981.46 1759.67C976.33 1754.54 977.3 1750.62 992.82 1713.64 1008.2 1677 1011.11 1665.28 1015.83 1621.03 1020.45 1577.6 1024.44 1547.25 1026.17 1542.31 1027.13 1539.58 1028.14 1540.23 1030.03 1544.77 1031.61 1548.55 1033.05 1591.86 1033.77 1657.31L1034.95 1763.71H1010.23C990.57 1763.71 984.67 1762.88 981.46 1759.67M912.58 1598.99C879.7 1590.3 812.95 1562.38 812.95 1557.33 812.95 1556.16 814.78 1553.69 817.02 1551.83 820.16 1549.23 831.58 1548.48 866.84 1548.54 905.77 1548.62 915.83 1549.44 934.44 1554.11 958.26 1560.09 983.98 1572.42 987.9 1579.75 991.95 1587.32 989.48 1597.22 982.69 1600.64 973.36 1605.34 933.01 1604.39 912.58 1598.99M974.08 1520.02C940.93 1504.07 929.9 1502.11 882.1 1503.7 858.27 1504.49 831.32 1506.39 822.2 1507.92 775.57 1515.75 813.34 1500.72 868.07 1489.68 906.05 1482.01 912.45 1481.84 928.68 1488 942.47 1493.25 982.92 1515.2 992.53 1522.66 998.11 1527 998.23 1527.42 993.76 1527.28 991.05 1527.2 982.2 1523.93 974.08 1520.02M1133.97 1604.97C1173.01 1598.16 1246.97 1571.35 1255.69 1560.84 1264.46 1550.28 1248.85 1544.8 1209.95 1544.78 1150.86 1544.75 1096.12 1561.53 1084.42 1583.25 1080.48 1590.56 1080.48 1591.44 1084.36 1597.36 1088.15 1603.15 1098.54 1607.96 1108.45 1608.51 1110.64 1608.63 1122.12 1607.04 1133.97 1604.97M1108.54 1517.49L1138.91 1504.98 1189.34 1506.4C1217.07 1507.18 1247.41 1508.55 1256.75 1509.44 1288.77 1512.5 1268.29 1502.98 1218.86 1491.83 1208.71 1489.54 1188.23 1487.13 1173.35 1486.47L1146.29 1485.28 1121.68 1497.52C1096.01 1510.29 1076.17 1523.38 1076.17 1527.56 1076.17 1530.97 1074.9 1531.36 1108.54 1517.49M1320.57 1322.23C1321.33 1320.26 1323.16 1306.69 1324.64 1292.1 1330.07 1238.57 1335.95 1220.69 1358.18 1190.17 1368.56 1175.92 1382.47 1169.1 1408.28 1165.63 1427.19 1163.09 1429.63 1163.31 1456.87 1170.05 1473.67 1174.21 1448.76 1148.94 1421.89 1134.58L1404.59 1125.33H1372.4 1340.2L1326.59 1134.37C1309.22 1145.91 1297.59 1160.17 1286.73 1183.25 1276.49 1205.02 1268.06 1244.05 1268.06 1269.63 1268.07 1294.53 1272.3 1301.99 1293.89 1315.17 1312.24 1326.38 1318.36 1328 1320.57 1322.23M828.74 1307.06C842.38 1303.5 855.03 1299.39 856.86 1297.94 863.99 1292.26 852.08 1249.71 828.67 1197.15 822.52 1183.36 811.36 1157.13 803.85 1138.86 770.22 1056.99 749.19 1031.12 707.88 1020.78 673.1 1012.08 712.58 999.94 757.46 1005.53 796.81 1010.44 825.61 1030.38 853.05 1071.69 885.52 1120.58 900.4 1164.34 909.76 1238.5 914.84 1278.75 915.25 1280.35 920.82 1281.13 928.96 1282.29 958.32 1274.73 967.57 1269.1 974.34 1264.99 975.31 1263.06 975.31 1253.72 975.31 1233.21 949.6 1152.96 935.94 1130.81 925.03 1113.12 881.97 1056.28 864.7 1036.77 842.91 1012.15 827.28 999.96 800.64 986.81L777.27 975.27H750.21C724.6 975.27 722.36 975.69 708.39 983.04 683.6 996.1 672.1 1012.35 677.53 1026.63 679.26 1031.19 682.34 1033.26 689.22 1034.51 703.69 1037.14 716.78 1042.81 734.52 1054.14 752.39 1065.56 760.9 1075.22 768.78 1093.05 776.84 1111.27 774.29 1112.98 754.27 1102.71 739.18 1094.96 734.41 1093.78 714.04 1092.71 687.66 1091.33 672.7 1093.93 646.4 1104.46 604.89 1121.08 563.95 1153.05 551.07 1178.9 539.45 1202.21 544.96 1204.67 562.92 1184.19 583.61 1160.6 603.22 1151.76 639.96 1149.43 693.48 1146.04 729.93 1165.35 750.75 1208.12 761.98 1231.18 766.3 1245.82 769.02 1270.14 774.17 1316.15 780.02 1319.77 828.74 1307.06M1194.02 1276.01C1195.45 1271.61 1198.79 1252.99 1201.43 1234.63 1207.75 1190.66 1214.64 1164.42 1226.69 1138.47 1235.56 1119.39 1236.43 1115.81 1235.13 1104.03 1230.62 1063.11 1230.55 1045.23 1234.85 1033.96 1241.06 1017.7 1252.38 1006.15 1269.9 998.19 1290.37 988.9 1289.74 983.88 1268.11 983.88 1254.5 983.88 1215.88 1003.84 1201.32 1018.41 1179.4 1040.32 1162.28 1085.63 1151.14 1151.16 1145.97 1181.59 1143.29 1263.82 1147.24 1271.19 1150.43 1277.16 1168.25 1283.57 1182.38 1283.83 1190.46 1283.99 1191.69 1283.16 1194.02 1276.01M1078.68 1267.4C1079.02 1234.15 1084.5 1160.13 1088.39 1136.3 1096.19 1088.49 1095.53 1079.47 1082.38 1054.75 1076.32 1043.37 1067.59 1022.48 1062.97 1008.35 1053.59 979.65 1025.85 863.23 1015.89 810.77 1012.32 792 1008.4 774.01 1007.18 770.79 1004.63 764.1 996.3 762.9 994 768.9 993.16 771.08 987.5 802.24 981.42 838.14 969.91 906.13 962.11 943.15 957.98 949.44 954.93 954.09 948.58 947.26 926.75 915.87 892.23 866.21 852.37 828.1 812.63 806.78L792.03 795.73 761.27 794.86C722.89 793.78 713.91 796.58 674.9 821.8 623.05 855.31 585.72 871.02 567.83 866.86 547.33 862.09 518.59 835.35 511.86 814.78 509.75 808.34 506.92 789.23 505.57 772.32 504.21 755.41 502.04 736.04 500.73 729.27 495.77 703.67 485.26 681.85 474.46 674.78 466.84 669.78 451.68 666.41 449.89 669.31 449.12 670.55 453.73 677.36 460.12 684.43 480.32 706.79 481.95 712.58 482.87 765.5 483.5 801.23 482.77 815.87 479.65 830.69 477.43 841.21 474.48 872.83 473.09 900.96L470.57 952.11 487.08 970.55C496.16 980.69 506.8 990.65 510.72 992.68 515.14 994.97 528.54 996.94 545.95 997.88L574.05 999.38 598.17 976.48C638.72 937.97 666.49 920 685.52 919.95 719.19 919.86 794.95 948.6 840.01 978.55 850.15 985.29 873.96 1004.77 892.9 1021.84 911.84 1038.9 929.98 1053.56 933.21 1054.4 940.7 1056.35 945.1 1050.74 953.93 1028.04 963.1 1004.48 971.64 974.22 981.32 930.99 995.95 865.69 999.24 864.64 1008.34 922.38 1018.43 986.43 1029.32 1143.17 1029.45 1226.19 1029.47 1241.08 1030.17 1257.41 1031.01 1262.48L1032.54 1271.71H1055.58C1075.88 1271.71 1078.64 1271.19 1078.68 1267.4M1505.04 1110.42C1517.02 1108.9 1534.25 1100.18 1550.15 1087.62 1575.44 1067.63 1608.81 1014.36 1623.68 970.25 1629.64 952.58 1630.15 948.28 1628.96 926.07 1627.45 898.09 1618.81 865.14 1607.37 843.73 1603.37 836.25 1590.88 817.73 1579.61 802.57 1568.34 787.41 1556.02 768.08 1552.22 759.63 1543.38 739.94 1541.44 717.02 1546.98 697.96 1552.45 679.15 1552.19 673.92 1545.8 673.92 1532.58 673.92 1514.07 712.54 1514.07 740.12 1514.07 755.62 1522.6 797.1 1531.83 826.44 1536.93 842.66 1539.57 856.96 1540.45 873.18 1541.58 893.85 1541 898.64 1535.45 914.59 1527.2 938.32 1516.11 956.59 1498.24 975.87 1483.2 992.11 1469.27 1001.14 1459.43 1001.05 1445.93 1000.92 1423.14 986.59 1387.43 955.78 1361.36 933.29 1336.13 917.01 1318.26 911.16 1298.79 904.78 1255.26 904.78 1237.31 911.15 1192.9 926.93 1146.26 959.71 1135.42 982.76 1128.11 998.31 1105.69 1064.62 1105.69 1070.69 1105.69 1075.59 1105.77 1075.6 1110.91 1070.98 1113.77 1068.4 1121.19 1059.1 1127.38 1050.3 1145.45 1024.65 1161.44 1007.09 1181.21 991.19 1213.33 965.35 1230.8 959.28 1273.01 959.28 1296.85 959.28 1297.61 959.46 1306.2 967 1318.02 977.38 1327.65 994.25 1326.66 1002.84L1325.87 1009.71H1303.33C1282.69 1009.71 1280.23 1010.23 1274.18 1015.86 1270.55 1019.25 1264.73 1027.55 1261.27 1034.31 1255.9 1044.77 1254.93 1050 1254.79 1069.21 1254.69 1081.63 1255.34 1092.53 1256.23 1093.42 1257.12 1094.31 1269.56 1089.81 1283.86 1083.42L1309.88 1071.81 1351.08 1073.02C1398.75 1074.41 1403.75 1075.81 1445.18 1099.38 1473.06 1115.23 1470.67 1114.79 1505.04 1110.42M1071.07 924.23C1075.79 908.1 1104.44 854.55 1119.4 833.9 1126.78 823.71 1143.88 802.74 1157.39 787.3 1170.9 771.87 1181.96 758.16 1181.96 756.85 1181.96 755.54 1179.08 746.58 1175.56 736.95 1169.3 719.82 1169.08 717.16 1165.85 616.72L1162.54 514.01 1153.28 496.4C1138.39 468.06 1127.29 458.92 1078.03 434.48 1043.89 417.54 1032.09 410.35 1021.06 399.75 986.51 366.56 982.38 321.09 1007.4 249.42 1011.62 237.32 1016.71 221.52 1018.7 214.3 1022.47 200.6 1022.42 180.68 1018.61 180.68 1017.4 180.68 1014.52 186.47 1012.21 193.54 1007.41 208.28 1002.56 216.06 972.63 257.12 931.14 314.02 922.6 335.88 922.68 384.87 922.76 432.78 931.13 452.82 967.91 493.11 993.9 521.58 1003.49 535.06 1014.41 558.44 1032.31 596.77 1035.19 618.64 1038.01 737.88 1039.93 819.3 1042.98 860.14 1049.49 891.63 1058.3 934.26 1065.12 944.56 1071.07 924.23M394.55 631.48C377.26 622.49 366.53 609.28 358 586.47 337.51 531.72 383 482.44 439.84 497.83 458.89 502.98 477.48 516.52 485.53 531.1 494.32 547.02 495.46 572.78 488.37 595.26 482.13 615.02 476.92 620.06 450.46 631.93 427.75 642.12 414.8 642.02 394.55 631.48M425.48 596.71C447.95 586.07 461.15 566.8 461.15 544.66 461.15 524.47 444.7 514.06 412.76 514.03 394.63 514.01 386.4 519.57 374.93 539.57 364.4 557.93 364.94 570.02 376.9 583.28 388.11 595.73 398.81 602.57 407.03 602.55 410.42 602.54 418.72 599.91 425.48 596.71M1557.01 620.14C1540.63 610.14 1518.99 575.13 1518.99 558.61 1518.99 537.11 1536.51 506.53 1555.45 494.97 1562.68 490.55 1568.17 489.44 1582.79 489.43 1608.01 489.41 1619.07 495.02 1632 514.38 1647.58 537.71 1650.48 555.87 1643.12 584.13 1635.39 613.8 1620.03 624.58 1585.41 624.66 1569.31 624.69 1562.77 623.65 1557.01 620.14M1591.45 579.53C1621.37 563.42 1626.15 520.94 1599.47 508.29 1578 498.1 1554.58 506.47 1543.1 528.45 1531.16 551.3 1535.03 580.92 1550.4 584.31 1554.09 585.12 1558.23 586.08 1559.58 586.44 1565.52 588.02 1582.52 584.33 1591.45 579.53M981.67 135.23C972.33 132.22 957.71 117.88 945.62 99.84 934.09 82.64 933.11 71.08 941.02 45.49 946.95 26.27 958.18 12.489 974.25 4.713 983.76.107 988.53-.467 1011.26.264L1037.36 1.103 1049.1 13.876C1071.94 38.729 1078.19 61.74 1068.85 86.56 1060.96 107.53 1049.21 123.13 1036.3 129.77 1023.83 136.19 993.96 139.17 981.67 135.23M1015.1 98.53C1026.62 91.22 1035.66 80.897 1042.67 67.03 1055.62 41.41 1031.84 9.7 999.69 9.722 980.98 9.734 972.7 15.479 963 35.19 953.68 54.12 952.15 74.59 959.05 87.93 968.75 106.65 994.59 111.54 1015.1 98.53" />
    </g>
</svg>
