<svg viewBox="0 0 2000 2000" xmlns="http://www.w3.org/2000/svg">
	<g id="DaedalusInHisAgony">
	    <path id="DaedalusInHisAgony" type="charge" colorOrder="1" fill="#000" d="m1889.37 1455.59c14.582-8.769 74.37-142.47 89.68-201.65 12.395-46.03 16.77-86.21 19.687-184.85 3.645-141.74 0-176.81-18.958-176.81-6.562 0-55.41 24.842-108.64 55.53-118.85 68.68-157.49 83.29-213.63 83.29-52.5 0-53.22 2.923-24.79 73.79 26.978 67.22 48.852 101.55 118.85 195.07 34.27 45.3 74.37 98.63 88.22 118.36 26.977 37.992 36.457 45.3 49.58 37.26m-13.37-629.88c-54.703 35.18-354.42 140.61-354.42 140.61 0 0-274.1-32.14-321.58-78.18 0-43.979 37.24-142.84 42.867-192.05 5.627-49.21 5.627-520.08 5.627-520.08 498.7 85.54 627.51 520.08 627.51 649.71m-676.96 98c29.335-15.781 292.23 106.12 312.95 127.74 20.722 21.617 238.19 347.89 250.01 387.4-74.62 233.6-495.51 390.01-495.51 385.73-48.45-133.53-67.45-365.88-67.45-365.88 0 0-29.337-519.22 0-535m-92.49 246.69c38.24 132.66 104.1 519.08 104.1 519.08 0 0 39.36 128.54 39.36 128.54 0 0-540.66 27.77-746-281.42 222.18-265.97 479.22-263.86 602.54-366.2m-330.54 104.89c-286 88.73-307.66 240.12-530.62 383.3-240.66-190.36-257.47-514.88-240.66-654.26 258.77 80.18 577.02 96.56 771.28 270.96m217.76-90.89c162.29-53.03 72.61-100.26 108.73-232.61 126.52-480.22 108.73-535.74 91.21-727.85-788.93-88.08-936.87 583.42-920.54 708.91 296.18 39.841 556.74 165.26 720.59 251.55" />
	</g>
</svg>
