<svg viewBox="0 0 2000 2000" xmlns="http://www.w3.org/2000/svg"><g fill="none" fill-rule="evenodd"><path d="M1163.4 607.2V296.9H1218.5L1246.8 268.6 998.2 0 750.7 267.5 780.2 296.9H835V604.7L616.8 386.5 655.7 347.5 655.7 307.6 290 293.4 304.2 657.5 345.7 657.5 384.5 618.7 600.4 834.6H296.4V779.6L268.2 751.3-.44 999.8 267 1247.3 296.4 1217.9V1163.1H600.3L382.3 1381 343.4 1342.1 303.4 1342.1 289.2 1707.8 653.3 1693.6 653.3 1652 614.6 1613.3 835 1392.8V1703.1H779.9L751.6 1731.4 1000.2 2000 1247.7 1732.5 1218.3 1703.1H1163.4V1395.3L1381.6 1613.5 1342.7 1652.5 1342.7 1692.4 1708.4 1706.6 1694.2 1342.5 1652.7 1342.5 1613.9 1381.3 1398 1165.4H1702V1220.4L1730.2 1248.7 1998.8 1000.2 1731.4 752.7 1702 782.1V836.9H1398.1L1616.1 619 1655 657.9 1695 657.9 1709.2 292.2 1345.1 306.4 1345.1 348 1383.8 386.7 1163.4 607.2" fill="#000"/><path d="M872.2 821.8C795.1 838.4 731.5 872.4 686.6 921.3 647.2 963.9 607.3 1015.5 609.1 1021.3 610 1024 616.2 1026.7 623 1027.6 631.9 1029 648.1 1042 679 1072.9 715.3 1110.1 727.9 1119.5 760.1 1135.2 801.4 1154.5 843.5 1168.9 891.5 1179.2 934.1 1188.2 1071.3 1187.7 1115.2 1178.7 1217 1157.7 1288.3 1118.2 1340.7 1054.5 1356.9 1034.8 1365 1028.5 1375.3 1027.6 1383.3 1026.7 1390.1 1024 1391 1021.3 1393.2 1014.6 1291 895.3 1268.1 877.8 1247 861.7 1193.7 838.4 1148 825.4 1101.3 812.4 926.9 809.7 872.2 821.8M1074.4 849.6C1096.4 855 1126.4 885.4 1140.8 916.4 1156.9 951.4 1159.2 1002.9 1145.7 1038.4 1117 1115.1 1029.2 1157.7 953.4 1131.7 883.4 1108.3 843.5 1053.6 844 983.7 844.4 946 851.6 921.3 871.8 892.6 893.3 860.8 911.2 850 948.9 845.5 986.6 841.1 1050.2 843.3 1074.4 849.6M833.2 887.7C802.3 942.9 802.3 1026.3 833.2 1078.7 839.5 1089.5 854.7 1107.9 867.3 1119.5 879.4 1131.2 887.9 1140.6 886.1 1140.6 875.8 1140.6 817.5 1120 793.8 1107.9 739.5 1080.5 688.4 1029.9 688.4 1003.4 688.4 963.9 742.7 910.1 813.5 880.1 829.6 872.9 843.5 867.1 844 867.1 844.4 867.1 839.5 876.5 833.2 887.7M1196.8 882.8C1251.1 906.1 1311.6 965.7 1311.6 996.2 1311.6 1019.5 1299.5 1039.7 1269.5 1067.1 1238.1 1095.8 1194.6 1118.2 1142.6 1133.4L1105.8 1143.8 1129.6 1122.2C1153.3 1100.7 1178 1060.3 1183.4 1035.2 1185.2 1027.6 1186.5 1002 1187 978.3 1187.4 933.9 1185.6 928.5 1155.6 870.7 1153.8 866.6 1173.1 872.4 1196.8 882.8M973.1 1073.4C932.8 1059.5 910.3 1023.6 913.5 979.6 914.8 959 918.4 949.6 928.7 936.6 945.8 915.1 976.2 899.4 1000 899.4 1033.6 899.8 1071.3 924.9 1082.5 954.5 1089.2 972 1088.8 1008.8 1081.2 1026.3 1065 1064.8 1013.5 1087.3 973.1 1073.4" id="Eye" fill="#fff"/></g></svg>