<svg viewBox="0 0 2000 2000" xmlns="http://www.w3.org/2000/svg">
	    <g id="Object_CraftingSigil">
      <path id="Object_CraftingSigil-Background" type="charge" colorOrder="2" fill="#fff"  d="M726.3 249.2L779.8 62.6C780.2 60.93 781.1 59.5 782.2 58.4 784.1 56.3 786.7 55 789.7 55H1209.6C1212.6 55 1215.3 56.3 1217.1 58.4 1218.2 59.6 1219 60.97 1219.5 62.6L1275.3 257.2C1422.5 312.2 1549.7 408.4 1642.6 531.8L1860 524.3C1861.7 524.2 1863.3 524.5 1864.7 525.2 1867.3 526.3 1869.4 528.5 1870.3 531.4L2000 930.7C2001 933.6 2000.6 936.5 1999.2 938.9 1998.4 940.3 1997.3 941.6 1995.9 942.5L1805.3 1071.1C1796.8 1218.2 1749.3 1354.9 1673.2 1471L1751.2 1685.5C1751.8 1687.1 1751.9 1688.7 1751.7 1690.3 1751.5 1693.1 1750.1 1695.7 1747.6 1697.5L1408 1944.3C1405.6 1946.1 1402.6 1946.6 1399.9 1946 1398.4 1945.8 1396.8 1945.1 1395.5 1944.1L1220.5 1807.3C1147.2 1828.8 1069.8 1840.4 989.6 1840.4 914.7 1840.4 842.1 1830.3 773.2 1811.4L605.1 1942.8C603.7 1943.9 602.2 1944.5 600.6 1944.8 597.9 1945.4 595 1944.8 592.6 1943.1L252.9 1696.3C250.5 1694.5 249.1 1691.8 248.8 1689 248.6 1687.5 248.7 1685.9 249.3 1684.3L319.6 1491.1C232.6 1366.7 179.3 1216.8 173.1 1054.9L4.63 941.3C3.21 940.3 2.11 939.1 1.36 937.6-.02 935.3-.43 932.3.5 929.5L130.2 530.1C131.2 527.2 133.3 525.1 135.8 524 137.2 523.3 138.8 522.9 140.5 523L338 529.9C435.5 401.2 570.3 302.3 726.3 249.2" />
      <path id="Object_CraftingSigil-Gears" type="charge" colorOrder="1" fill="#000"  d="M726.3 249.2L779.8 62.6C780.2 60.93 781.1 59.5 782.2 58.4 784.1 56.3 786.7 55 789.7 55H1209.6C1212.6 55 1215.3 56.3 1217.1 58.4 1218.2 59.6 1219 60.97 1219.5 62.6L1275.3 257.2C1422.5 312.2 1549.7 408.4 1642.6 531.8L1860 524.3C1861.7 524.2 1863.3 524.5 1864.7 525.2 1867.3 526.3 1869.4 528.5 1870.3 531.4L2000 930.7C2001 933.6 2000.6 936.5 1999.2 938.9 1998.4 940.3 1997.3 941.6 1995.9 942.5L1805.3 1071.1C1796.8 1218.2 1749.3 1354.9 1673.2 1471L1751.2 1685.5C1751.8 1687.1 1751.9 1688.7 1751.7 1690.3 1751.5 1693.1 1750.1 1695.7 1747.6 1697.5L1408 1944.3C1405.6 1946.1 1402.6 1946.6 1399.9 1946 1398.4 1945.8 1396.8 1945.1 1395.5 1944.1L1220.5 1807.3C1147.2 1828.8 1069.8 1840.4 989.6 1840.4 914.7 1840.4 842.1 1830.3 773.2 1811.4L605.1 1942.8C603.7 1943.9 602.2 1944.5 600.6 1944.8 597.9 1945.4 595 1944.8 592.6 1943.1L252.9 1696.3C250.5 1694.5 249.1 1691.8 248.8 1689 248.6 1687.5 248.7 1685.9 249.3 1684.3L319.6 1491.1C232.6 1366.7 179.3 1216.8 173.1 1054.9L4.63 941.3C3.21 940.3 2.11 939.1 1.36 937.6-.02 935.3-.43 932.3.5 929.5L130.2 530.1C131.2 527.2 133.3 525.1 135.8 524 137.2 523.3 138.8 522.9 140.5 523L338 529.9C435.5 401.2 570.3 302.3 726.3 249.2M985.8 1661.8C1338.5 1661.8 1624.4 1375.9 1624.4 1023.1 1624.4 670.4 1338.5 384.4 985.8 384.4 633.1 384.4 347.2 670.4 347.2 1023.1 347.2 1375.9 633.1 1661.8 985.8 1661.8M574.8 738.7L534 626.5C533.7 625.5 533.6 624.5 533.7 623.5 533.9 621.8 534.7 620.2 536.2 619.1L744.2 468C745.7 466.9 747.5 466.6 749.2 467 750.1 467.1 751.1 467.5 751.9 468.2L845.3 541.2C891 527.5 939.4 520.2 989.6 520.2 1041.2 520.2 1091 528 1137.9 542.5L1235.4 466.3C1236.2 465.7 1237.1 465.3 1238 465.1 1239.7 464.7 1241.5 465.1 1243 466.1L1451 617.3C1452.5 618.4 1453.4 620 1453.5 621.7 1453.7 622.6 1453.6 623.6 1453.2 624.6L1409.1 745.8C1459.3 821.5 1489.4 911.6 1492.2 1008.6L1599.4 1080.9C1600.3 1081.5 1601 1082.2 1601.4 1083.1 1602.3 1084.6 1602.5 1086.4 1602 1088.1L1522.5 1332.7C1521.9 1334.4 1520.7 1335.8 1519.1 1336.4 1518.2 1336.8 1517.2 1337.1 1516.2 1337L1386.1 1332.5C1328.2 1406.6 1250 1464.1 1159.8 1496.5L1124.2 1621C1123.9 1622 1123.4 1622.9 1122.7 1623.6 1121.5 1624.8 1119.9 1625.6 1118.1 1625.6H861C859.1 1625.6 857.5 1624.8 856.3 1623.5 855.7 1622.8 855.2 1622 854.9 1621L819.2 1496.4C730.7 1464.6 653.7 1408.6 596.2 1336.4L466.2 1340.9C465.2 1340.9 464.2 1340.7 463.3 1340.3 461.8 1339.6 460.5 1338.3 459.9 1336.5L380.5 1092C379.9 1090.2 380.2 1088.4 381.1 1086.9 381.5 1086.1 382.2 1085.3 383 1084.8L486.8 1014.7C488.5 912.4 520.8 817.4 574.8 738.7M989.6 1180.3C1076.4 1180.3 1146.7 1109.9 1146.7 1023.1 1146.7 936.3 1076.4 866 989.6 866 902.8 866 832.4 936.3 832.4 1023.1 832.4 1109.9 902.8 1180.3 989.6 1180.3" />
    </g>
</svg>