<svg viewBox="0 0 2000 2000" xmlns="http://www.w3.org/2000/svg">
	<g id="Object_Anchors_Interlaced" fill-rule="evenodd">
		<path id="Object_Anchors_Interlaced-Fimbriation" stroke="#000" stroke-width="8" fill="#000" d="M446.6 727.3C422 748.1 396.4 773.1 373.5 801.6 300.7 893 239.2 1031.5 239.2 1031.5 239.2 1031.5 272.2 1003 290.8 991.7 312 978.7 358.6 958.8 358.6 958.8 358.6 958.8 270.4 1101.6 228.7 1291.1 166.2 1321.6 112.2 1353.3 85.9 1392.7 4.77 1513.9-41 1667.6 50.57 1828.9 142.2 1990.2 342.6 1993.1 438 1956.8 486.3 1938.4 538.9 1901.8 605 1885.2 669.3 1869 747.2 1872.4 788.2 1879.5 871.2 1893.8 859.7 1831.7 792.9 1823.1 726.1 1814.5 635.5 1811.7 570.6 1828.9 505.7 1846.1 429.4 1920.5 311.1 1909 192.7 1897.6 140.3 1857.5 99.2 1796.4 58.2 1735.4 34.4 1582.6 123.1 1454.7 150.6 1415.2 180.4 1386 214.9 1366 215 1365.9 215.2 1365.8 215.3 1365.8 199.5 1479.8 204.6 1605.1 255.6 1723.6 692.7 1723.6 901.6 1500.4 942.1 1451.5 944.2 1453.4 946.3 1455.4 948.3 1457.3 947.1 1470.7 945 1490.2 941.9 1503.1 937.6 1521.5 921.4 1561.7 921.4 1561.7 921.4 1561.7 956.2 1538.1 1000 1502.2 1043.8 1538.1 1078.6 1561.7 1078.6 1561.7 1078.6 1561.7 1062.4 1521.5 1058.1 1503.1 1055 1490.2 1052.9 1470.7 1051.7 1457.3 1053.7 1455.4 1055.8 1453.4 1057.9 1451.5 1098.4 1500.4 1307.3 1723.6 1744.4 1723.6 1795.5 1604.7 1800.5 1479.1 1784.6 1364.8 1817.6 1386.6 1849.6 1415.2 1877 1454.7 1965.7 1582.6 1941.9 1735.4 1900.8 1796.4 1859.8 1857.5 1807.3 1897.6 1689 1909 1570.7 1920.5 1494.4 1846.1 1429.5 1828.9 1364.6 1811.7 1273.9 1814.5 1207.1 1823.1 1140.3 1831.7 1128.9 1893.8 1211.9 1879.5 1252.9 1872.4 1330.7 1869 1395.1 1885.2 1461.1 1901.8 1513.8 1938.4 1562.1 1956.8 1657.5 1993.1 1857.9 1990.2 1949.5 1828.9 2041.1 1667.6 1995.3 1513.9 1914.2 1392.7 1887.9 1353.3 1833.8 1321.6 1771.4 1291.1 1771.3 1291 1771.3 1291 1771.3 1291 1729.6 1101.6 1641.4 958.8 1641.4 958.8 1641.4 958.8 1688 978.7 1709.2 991.7 1727.8 1003 1760.8 1031.5 1760.8 1031.5 1760.8 1031.5 1699.3 893 1626.5 801.6 1603.7 773.1 1578 748.2 1553.5 727.4 1553.6 727.3 1553.7 727.1 1553.8 727 1581.6 687.1 1607.7 652.6 1623.2 626.2 1674.7 538.4 1751 372.3 1711 205.3 1670.9 38.3 1581.2 21.2 1534.4 25.85 1496.8 29.61 1459.2 40.92 1432 65.6 1421.8 64 1411.4 63.2 1400.8 63.2 1290.1 63.2 1200.4 152.9 1200.4 263.6 1200.4 306.2 1213.7 345.7 1236.3 378.2L1000 674.6 763.7 378.2C786.3 345.7 799.6 306.2 799.6 263.6 799.6 152.9 709.9 63.2 599.2 63.2 588.6 63.2 578.2 64 568.1 65.6 540.9 40.92 503.3 29.61 465.6 25.85 418.9 21.2 329.2 38.3 289.1 205.3 249 372.3 325.4 538.4 376.9 626.2 392.4 652.6 418.5 687.1 446.3 727 446.4 727.1 446.5 727.2 446.6 727.3M499.4 686.9C528.3 666.9 548.6 656.2 548.6 656.2 548.6 656.2 539.4 688.8 528 733.3 648.1 934.2 638.5 1013.4 620.2 1090.1 600.2 1174.1 480 1229.5 414.1 1271.5 392.1 1285.5 362.1 1296.4 328.6 1309.4 326.9 1326.7 325.9 1343.7 325.9 1360 325.9 1423.1 332.8 1469.8 340.4 1502.3L926.2 767.3 677.6 452.1 675.4 449.1C651.9 458.7 626.2 464.1 599.2 464.1 488.6 464.1 398.9 374.3 398.9 263.6 398.9 194.8 433.5 134.1 486.3 98 446.7 89.7 388.1 104.4 364.5 184.3 340.2 266.6 340.6 387.6 382.6 483.1 424.6 578.5 445.8 603.9 490.5 673 493.4 677.5 496.2 681.9 499 686.3 499.1 686.5 499.3 686.7 499.4 686.9M1500.7 687C1471.7 667 1451.4 656.2 1451.4 656.2 1451.4 656.2 1460.6 688.9 1472 733.4 1352 934.3 1361.5 1013.4 1379.8 1090.1 1399.9 1174.1 1520.1 1229.5 1586 1271.5 1608 1285.5 1637.9 1296.4 1671.4 1309.4 1673.1 1326.7 1674.1 1343.7 1674.1 1360 1674.1 1423.1 1667.2 1469.8 1659.6 1502.3L1073.8 767.3 1322.4 452.1 1324.6 449.1C1348.1 458.7 1373.8 464.1 1400.8 464.1 1511.4 464.1 1601.1 374.3 1601.1 263.6 1601.1 194.8 1566.5 134.1 1513.7 98 1553.3 89.7 1611.9 104.3 1635.6 184.3 1659.9 266.6 1659.4 387.6 1617.4 483.1 1575.5 578.5 1554.3 603.9 1509.6 673 1506.7 677.5 1503.9 681.9 1501.1 686.3 1500.9 686.5 1500.8 686.8 1500.7 687M338.9 1239.4C360.3 1125.4 400.8 1017.5 400.8 1017.5 400.8 1017.5 419.2 1065.2 431.5 1083.2 445 1102.8 476 1139.5 476 1139.5 476 1139.5 477.5 984.7 487.8 916.6 491.8 889.4 498.7 855.8 506.5 821.9 547.2 895.9 575.5 978.3 554.4 1057.7 532.8 1138.9 438.8 1191.9 339.1 1239.3 339 1239.3 339 1239.3 338.9 1239.4M1493.6 822C1501.3 855.9 1508.2 889.4 1512.2 916.6 1522.5 984.7 1524 1139.5 1524 1139.5 1524 1139.5 1555 1102.8 1568.5 1083.2 1580.8 1065.2 1599.2 1017.5 1599.2 1017.5 1599.2 1017.5 1639.7 1125.3 1661.1 1239.3 1661.1 1239.3 1661 1239.3 1661 1239.3 1561.3 1191.9 1467.3 1138.9 1445.7 1057.7 1424.6 978.4 1452.8 896 1493.6 822M1378.2 170.9C1336.4 181.1 1305.4 218.8 1305.4 263.7 1305.4 316.4 1348.1 359.2 1400.9 359.2 1453.6 359.2 1496.4 316.4 1496.4 263.7 1496.4 226 1474.5 193.4 1442.8 177.8 1441.1 182.1 1439.3 186.8 1437.2 192 1422 230.2 1368.5 216.8 1376.1 180.5 1376.8 177.2 1377.5 174 1378.2 170.9M621.6 170.9C663.4 181.1 694.4 218.8 694.4 263.7 694.4 316.4 651.6 359.2 598.9 359.2 546.1 359.2 503.4 316.4 503.4 263.7 503.4 225.9 525.3 193.3 557.1 177.8 558.8 182.1 560.7 186.8 562.7 192 578 230.2 631.3 216.8 623.7 180.5 623 177.2 622.3 174 621.6 170.9M848.2 1337.8C805.2 1260.6 794.8 1182 794.8 1182 794.8 1182 886 1245.3 993.9 1287.5 995.9 1288.3 997.9 1289.1 999.9 1289.8 1001.9 1289.1 1003.9 1288.3 1005.9 1287.5 1113.8 1245.3 1205 1182 1205 1182 1205 1182 1194.5 1260.6 1151.5 1337.8 1203.9 1351.8 1242.5 1360.2 1242.5 1360.2 1242.5 1360.2 1205.1 1382.8 1185.1 1391.1 1163.7 1400 1118.3 1411.8 1118.3 1411.8 1118.3 1411.8 1221.3 1482.2 1392.4 1547.8 1469.6 1577.5 1527.3 1583.2 1567.4 1580.6L999.9 861.2 432.4 1580.6C472.5 1583.2 530.1 1577.5 607.4 1547.8 778.5 1482.2 881.5 1411.8 881.5 1411.8 881.5 1411.8 836.1 1400 814.7 1391.1 794.7 1382.8 757.2 1360.2 757.2 1360.2 757.2 1360.2 795.9 1351.8 848.2 1337.8" />
		<path id="Object_Anchors_Interlaced-Anchors" fill="#f6a623" stroke="#000" stroke-width="6" d="M1000 674.6L763.7 378.2C786.3 345.7 799.6 306.2 799.6 263.6 799.6 152.9 709.9 63.2 599.2 63.2 488.6 63.2 398.9 152.9 398.9 263.6 398.9 374.3 488.6 464.1 599.2 464.1 626.2 464.1 651.9 458.7 675.4 449.1L677.6 452.1 926.2 767.3 340.4 1502.3C332.8 1469.8 325.9 1423.1 325.9 1360 325.9 1216.9 400.8 1017.5 400.8 1017.5 400.8 1017.5 419.2 1065.2 431.5 1083.2 445 1102.8 476 1139.5 476 1139.5 476 1139.5 477.5 984.7 487.8 916.6 501.7 823.7 548.6 656.2 548.6 656.2 548.6 656.2 446.4 710.3 373.5 801.6 300.7 893 239.2 1031.5 239.2 1031.5 239.2 1031.5 272.2 1003 290.8 991.7 312 978.7 358.6 958.8 358.6 958.8 358.6 958.8 103.9 1371 255.6 1723.6 692.7 1723.6 901.6 1500.4 942.1 1451.5 944.2 1453.4 946.3 1455.4 948.3 1457.3 947.1 1470.7 945 1490.2 941.9 1503.1 937.6 1521.5 921.4 1561.7 921.4 1561.7 921.4 1561.7 956.2 1538.1 1000 1502.2 1043.8 1538.1 1078.6 1561.7 1078.6 1561.7 1078.6 1561.7 1062.4 1521.5 1058.1 1503.1 1055 1490.2 1052.9 1470.7 1051.7 1457.3 1053.7 1455.4 1055.8 1453.4 1057.9 1451.5 1098.4 1500.4 1307.3 1723.6 1744.4 1723.6 1896.1 1371 1641.4 958.8 1641.4 958.8 1641.4 958.8 1688 978.7 1709.2 991.7 1727.8 1003 1760.8 1031.5 1760.8 1031.5 1760.8 1031.5 1699.3 893 1626.5 801.6 1553.6 710.3 1451.4 656.2 1451.4 656.2 1451.4 656.2 1498.3 823.7 1512.2 916.6 1522.5 984.7 1524 1139.5 1524 1139.5 1524 1139.5 1555 1102.8 1568.5 1083.2 1580.8 1065.2 1599.2 1017.5 1599.2 1017.5 1599.2 1017.5 1674.1 1216.9 1674.1 1360 1674.1 1423.1 1667.2 1469.8 1659.6 1502.3L1073.8 767.3 1322.4 452.1 1324.6 449.1C1348.1 458.7 1373.8 464.1 1400.8 464.1 1511.4 464.1 1601.1 374.3 1601.1 263.6 1601.1 152.9 1511.4 63.2 1400.8 63.2 1290.1 63.2 1200.4 152.9 1200.4 263.6 1200.4 306.2 1213.7 345.7 1236.3 378.2L1000 674.6M848.3 1337.5C805.3 1260.4 794.8 1181.7 794.8 1181.7 794.8 1181.7 886.1 1245 994 1287.2 996 1288 998 1288.8 1000 1289.6 1002 1288.8 1004 1288 1006 1287.2 1113.9 1245 1205.2 1181.7 1205.2 1181.7 1205.2 1181.7 1194.7 1260.4 1151.7 1337.5 1204 1351.6 1242.7 1360 1242.7 1360 1242.7 1360 1205.3 1382.6 1185.2 1390.9 1163.8 1399.8 1118.4 1411.6 1118.4 1411.6 1118.4 1411.6 1221.4 1481.9 1392.6 1547.6 1469.9 1577.3 1527.6 1583 1567.7 1580.4L1000 860.8 432.3 1580.4C472.4 1583 530.1 1577.3 607.4 1547.6 778.6 1481.9 881.6 1411.6 881.6 1411.6 881.6 1411.6 836.2 1399.8 814.8 1390.9 794.7 1382.6 757.3 1360 757.3 1360 757.3 1360 796 1351.6 848.3 1337.5M599.2 359.1C651.9 359.1 694.7 316.3 694.7 263.6 694.7 210.9 651.9 168.2 599.2 168.2 546.5 168.2 503.8 210.9 503.8 263.6 503.8 316.3 546.5 359.1 599.2 359.1M1400.8 359.1C1348.1 359.1 1305.3 316.3 1305.3 263.6 1305.3 210.9 1348.1 168.2 1400.8 168.2 1453.5 168.2 1496.2 210.9 1496.2 263.6 1496.2 316.3 1453.5 359.1 1400.8 359.1" />
		<path id="Object_Anchors_Interlaced-Ropes" fill="#8b572a" stroke="#000" stroke-width="6" d="M328.6 1309.4C362 1296.4 392.1 1285.6 414.1 1271.5 480 1229.5 600.2 1174.1 620.2 1090.1 638.5 1013.3 648.1 934.2 527.9 733.1 521.9 757.8 513.7 790 506.4 821.8 547.2 895.8 575.5 978.3 554.4 1057.7 532.8 1138.9 438.8 1191.9 339.1 1239.3 333.2 1267.4 329.6 1299.3 328.6 1309.4M215.7 1364.7C182.6 1386.5 150.6 1415.2 123.1 1454.7 34.4 1582.6 58.2 1735.4 99.2 1796.4 140.3 1857.5 192.7 1897.6 311.1 1909 429.4 1920.5 505.7 1846.1 570.6 1828.9 635.5 1811.7 726.1 1814.5 792.9 1823.1 859.7 1831.7 871.2 1893.8 788.2 1879.5 747.2 1872.4 669.3 1869 605 1885.2 538.9 1901.8 486.3 1938.4 438 1956.8 342.6 1993.1 142.2 1990.2 50.57 1828.9-41 1667.6 4.77 1513.9 85.9 1392.7 112.2 1353.3 166.3 1321.6 228.7 1291.1 225.6 1305.6 218.5 1340.4 215.7 1364.7M499 686.3C496.2 681.9 493.4 677.5 490.5 673 445.8 603.9 424.6 578.5 382.6 483.1 340.6 387.6 340.2 266.6 364.5 184.3 396.9 74.5 495.2 87.9 520 114.6 544.8 141.3 547.7 153.8 563 191.9 578.2 230.1 631.7 216.8 624 180.5 616.4 144.2 612.6 125.1 585.9 85.98 559.2 46.85 512.4 30.52 465.6 25.85 418.9 21.2 329.2 38.3 289.1 205.3 249 372.3 325.4 538.4 376.9 626.2 392.4 652.6 418.5 687.1 446.3 727 463.2 713 485.6 695.6 499 686.3M1671.5 1309.4C1638 1296.4 1608 1285.6 1586 1271.5 1520.1 1229.5 1399.9 1174.1 1379.8 1090.1 1361.5 1013.3 1352 934.2 1472.1 733.1 1478.2 757.8 1486.4 790 1493.7 821.8 1452.9 895.8 1424.6 978.3 1445.7 1057.7 1467.3 1138.9 1561.3 1191.9 1661 1239.3 1666.9 1267.4 1670.5 1299.3 1671.5 1309.4M1784.4 1364.7C1817.5 1386.5 1849.5 1415.2 1877 1454.7 1965.7 1582.6 1941.9 1735.4 1900.8 1796.4 1859.8 1857.5 1807.3 1897.6 1689 1909 1570.7 1920.5 1494.4 1846.1 1429.5 1828.9 1364.6 1811.7 1273.9 1814.5 1207.1 1823.1 1140.3 1831.7 1128.9 1893.8 1211.9 1879.5 1252.9 1872.4 1330.7 1869 1395.1 1885.2 1461.1 1901.8 1513.8 1938.4 1562.1 1956.8 1657.5 1993.1 1857.9 1990.2 1949.5 1828.9 2041.1 1667.6 1995.3 1513.9 1914.2 1392.7 1887.9 1353.3 1833.8 1321.6 1771.4 1291.1 1774.5 1305.6 1781.6 1340.4 1784.4 1364.7M1501.1 686.3C1503.9 681.9 1506.7 677.5 1509.6 673 1554.3 603.9 1575.5 578.5 1617.4 483.1 1659.4 387.6 1659.9 266.6 1635.6 184.3 1603.1 74.5 1504.8 87.9 1480 114.6 1455.2 141.3 1452.4 153.8 1437.1 191.9 1421.8 230.1 1368.4 216.8 1376 180.5 1383.7 144.2 1387.5 125.1 1414.2 85.98 1440.9 46.85 1487.7 30.52 1534.4 25.85 1581.2 21.2 1670.9 38.3 1711 205.3 1751 372.3 1674.7 538.4 1623.2 626.2 1607.7 652.6 1581.6 687.1 1553.8 727 1536.9 713 1514.5 695.6 1501.1 686.3" />
		<path id="Object_Anchors_Interlaced-Lines" fill="#000" d="M982.1 691.2C841.4 513.1 735.3 378 735.7 376 736.9 370 754 349.9 757.6 343.8 764.3 332.8 772.9 305.4 775.9 279.7 778.2 259.4 778.4 251.4 776.7 236.7 774.4 218.3 764.1 180.8 757.5 166.9 751.2 154 759 165.2 766.4 179.7 780.9 208.4 788.9 254.2 784.5 285 781.4 306.3 775 326.7 764.3 346.7 758.9 356.9 750.4 366.1 744 376 744 377.8 745.4 379.9 745.4 379.9L987.2 685.7C989.8 683 992.3 680.7 994.6 678.9 1011.6 665.1 935.4 758.5 930.6 761.4 927 763.6 925.6 760.5 930.2 753.9 787.3 573.9 678 436.8 676.3 436.4 671.5 435.2 666.8 438.6 661.5 440.1 625.7 450.2 601.1 446.1 601.1 446.1 601.1 446.1 632.4 439.9 645 436.4 656.8 433.1 663.9 430.9 668.5 428.3 673 425.6 674.4 425.7 677.3 425.7 678.3 425.7 789.6 565.2 934.9 748.2 935.4 747.7 935.9 747.2 936.4 746.6 942.1 740.9 952.3 727.6 963.2 713.9 816.3 528.1 703.9 385.8 700.4 381.5 690.4 368.9 701.1 375.5 704.3 379.4 705.3 380.6 817.9 523 966.1 710.2 968.4 707.3 970.8 704.4 973.1 701.6 825.1 514.6 712.7 372.3 712.3 370.9 711.2 366.7 729 355.4 738.4 340.6 747.8 325.7 748.4 319.4 753.2 301.5 762.6 265.4 758.7 215.4 744 180.2 758.9 204.3 767.2 235.5 767.2 260.8 767.2 282.1 760.3 315.1 752.2 331 748.4 338.8 749.5 339 740.5 351 734.2 359.3 723.3 369.3 722 373 721.5 374.3 831.5 513.5 977 697 978.7 695 980.4 693.1 982.1 691.2M1060.3 790.2C1327 1127.3 1661.9 1548.6 1668 1556 1678 1568.4 1668 1546.5 1668 1546.5L1065 784.1C1072.2 775.2 1076.4 771.4 1070.4 771.4 1062.8 771.4 984.1 879.2 1008.4 852.9 1008.5 852.9 1008.5 852.8 1008.6 852.7 1272.7 1185.7 1598.4 1597.7 1601.1 1600.9 1604 1604.2 1609 1608.3 1607.6 1600.9 1606.7 1596.5 1279.7 1182.6 1013.6 847.3 1025.3 834.6 1034.7 823.7 1042.4 814.2 1317.4 1162 1658.7 1593.8 1663.5 1599.2 1671.3 1608.3 1681.1 1614.2 1672.8 1603.5 1667.8 1597.1 1322.3 1160.4 1045.4 810.4 1047.9 807.3 1050.1 804.4 1052.2 801.5 1331 1153.5 1679.9 1593.3 1679.9 1593.3 1679.9 1593.3 1683.2 1589.5 1679.9 1582.8 1678 1579 1331.6 1143.7 1055.9 796.5 1056.8 795.2 1057.7 794 1058.5 792.8 1059.1 791.9 1059.7 791 1060.3 790.2M961.4 1471.6C960.8 1478 960.3 1482.5 960.3 1482.5 960.3 1482.5 961.2 1478.5 962.4 1472.6 972.8 1482 981.6 1488.6 992.3 1496.8 1012.9 1512.6 945.6 1451.9 918.9 1419 892.1 1386.1 840.6 1320.7 851.6 1342.7 856.8 1353.2 867.3 1367 880.2 1382.3 875.2 1382 871.8 1381.8 871.8 1381.8 871.8 1381.8 876 1382.8 881.7 1384.1 883 1385.7 884.4 1387.4 885.9 1389 859.1 1385.3 807.8 1377.7 807.8 1377.7 807.8 1377.7 814.5 1380.1 861.8 1389.7 871.5 1391.6 886.5 1394.6 892.8 1397 893.6 1398 894.4 1398.9 895.2 1399.8 892.9 1402.9 883.5 1409.5 883.5 1409.5L897 1401.9C906.9 1413.1 917.3 1424.7 927.4 1436.2 929.5 1438.6 931.5 1440.9 933.5 1443 893.6 1480 789.2 1566.9 627.8 1632.8 417.4 1718.7 268.1 1706.8 260.9 1696.3 253.8 1685.8 219.9 1583.6 232.8 1386 245.7 1188.5 372.6 959.9 372.6 959.9 372.6 959.9 234.7 1196.1 223.7 1408.5 212.8 1620.9 248.5 1700.1 260.9 1708.7 273.3 1717.3 448 1716.8 646.4 1634.7 798.4 1571.9 896.6 1482.4 934.3 1444 945.2 1456 953.7 1464.6 961.4 1471.6M1126.5 1328.8C1169.2 1271.3 1195.4 1211.9 1195.4 1211.9 1195.4 1211.9 1187.9 1258.7 1132.2 1331 1137.6 1333.1 1140.7 1334.6 1140.7 1335.1 1140.7 1337.9 1109.7 1328.8 1064.4 1313.6 1019.1 1298.3 999.5 1287.3 1015.7 1291.6 1018.2 1292.3 1022.7 1293.6 1028.6 1295.5 1028.3 1295.4 1028.1 1295.3 1027.9 1295.2 1037.6 1290.8 1046.9 1286.3 1055.1 1282 1103.3 1256.7 1169.1 1215.2 1169.1 1215.2 1169.1 1215.2 1132.9 1246.2 1061.3 1285.4 1053 1289.9 1044.7 1294.1 1036.5 1298 1039.5 1299 1042.7 1300 1046.1 1301.1 1051.3 1298.2 1056.7 1295.2 1062 1292.1 1122.4 1257.3 1176.8 1213.8 1176.8 1213.8 1176.8 1213.8 1155.8 1238.2 1081.3 1286.9 1072 1293 1062.8 1298.6 1054 1303.7 1073.5 1310.1 1096.5 1317.9 1113.9 1324.2 1160.5 1265.5 1196.6 1199 1196.6 1199 1196.6 1199 1175.6 1254.9 1120.5 1326.6 1122.6 1327.3 1124.6 1328.1 1126.5 1328.8M1103.7 1476.8C1157.2 1520 1247.1 1582.5 1370.3 1632.8 1580.7 1718.7 1730 1706.8 1737.2 1696.3 1744.3 1685.8 1778.2 1583.6 1765.3 1386 1752.4 1188.5 1625.5 959.9 1625.5 959.9 1625.5 959.9 1763.4 1196.1 1774.4 1408.5 1785.3 1620.9 1749.6 1700.1 1737.2 1708.7 1724.7 1717.3 1550.1 1716.8 1351.7 1634.7 1235.7 1586.7 1151 1523.3 1100.6 1478.8 1101.7 1478.1 1102.7 1477.5 1103.7 1476.8M469.9 218.8C464.5 232.8 463.9 236.8 463.7 256.4 463.6 285.7 468.2 300.5 483.3 317.7 489.1 324.3 494.7 330 496 330.4 497.4 330.8 496 328.7 493.3 325.6 487.3 319.2 485.6 316.1 477.7 297.7 470.1 280 468.2 252.6 473 234.2 476.9 218.8 488.1 197.1 498.1 185.3 505.2 177 524.7 155.8 544.7 148.3 545 148.2 542.2 143.3 542.2 143.3 537.2 144.8 532.7 146.6 529.1 149 512.2 160 480.2 191.8 469.9 218.8M550.9 160.8C550 161 549.1 161.3 548.2 161.6 537.1 165.4 519.8 177.3 511.4 187.8 495.6 208 482.8 240 482.8 260.4 482.8 282.4 495.2 314.7 508.7 327.7L515.6 334.3 507.8 322C486.1 288 484.9 247.9 504.2 209.9 512.6 192.8 529.4 175.5 553.3 166.8 553.3 166.8 550.9 161 550.9 160.8M673.4 373.4C653.8 386.7 652 385.9 634.9 392.9 623.7 397.5 602.9 396.3 602.9 396.3 602.9 396.3 619.2 403.9 634.9 400.1 650.7 396.3 682.1 374.3 693.1 368.1 704.1 361.9 731.2 329.1 736.5 313.8 746.8 284.7 746 254.5 734.8 231.8 731.6 225.5 729.5 221.7 730 223.6 737.9 252.2 738.2 280.5 731.2 307.6 727 323.2 717.9 333.3 710.7 340.9 703.6 348.6 692.9 360 673.4 373.4M590.5 427.3C590.5 427.3 619.8 425.2 645.4 416.8 671 408.4 678 399.9 682.1 398.6 686.3 397.3 696.4 397.2 688.3 403.4 684.6 406.2 670.7 414.8 650.2 423.5 629.7 432.1 590.5 427.3 590.5 427.3M1607.1 1622.3C1607.1 1626.1 1480.7 1609.9 1391 1582.2 1301.3 1554.6 1233.3 1510.2 1233.3 1510.2 1233.3 1510.2 1328.8 1560.8 1432.3 1588.9 1535.8 1617.1 1608.1 1615.9 1591.9 1609 1575.7 1602 1515.8 1609 1410.6 1576.3 1305.4 1543.6 1220 1489.9 1220 1489.9 1220 1489.9 1348.6 1556.5 1427.3 1577.2 1506 1598 1586.4 1605.6 1578.5 1596.1 1570.6 1586.5 1571.9 1583.6 1571.9 1583.6 1571.9 1583.6 1607.1 1618.5 1607.1 1622.3M1655.6 1148.9C1655.6 1148.9 1692.8 1251 1692.8 1370.8 1692.8 1490.6 1682 1516.3 1684.4 1522.5 1686.8 1528.7 1703.1 1552.7 1703.1 1552.7L1671.6 1513.9C1671.6 1513.9 1676.1 1517.2 1678.2 1504.7 1680.4 1492.2 1691.1 1430.2 1686.6 1344.5 1682.1 1258.8 1655.6 1148.9 1655.6 1148.9M1682.1 937.9C1682.1 937.9 1659.7 878.8 1592.9 797.6 1526.1 716.5 1490.3 696.9 1490.3 696.9 1490.3 696.9 1544.8 741.8 1600.6 813.9 1656.4 885.9 1682.1 937.9 1682.1 937.9M1611.2 916.7C1611.2 916.7 1623.8 945.4 1632.4 949.2 1641 953 1641 952.5 1654.9 957.4 1668.9 962.3 1682.3 967.8 1674 961.7 1665.7 955.7 1640.7 946.3 1633.1 942.6 1625.5 938.9 1611.2 916.7 1611.2 916.7M1590.2 987C1588.3 980.9 1583.4 968.9 1583.4 968.9 1583.4 968.9 1581.2 996 1575.3 1010.4 1569.3 1024.7 1567.7 1035.8 1567.7 1035.8 1567.7 1035.8 1576.1 1022.6 1581.1 1009.3 1586.1 996.1 1590.5 995 1588.3 1001.1 1586 1007.2 1582.7 1013.4 1576 1030.7 1569.3 1048 1550.7 1091.3 1557.4 1081.5 1562.3 1074.2 1572.6 1052.4 1579.7 1035.8 1587.4 1017.5 1591.8 1004.8 1593.2 1006.6 1595.7 1009.9 1597.3 1014.3 1597.3 1014.3 1597.3 1014.3 1592.9 996 1590.2 987M1528.2 218.8C1533.6 232.8 1534.2 236.8 1534.3 256.4 1534.5 285.7 1529.9 300.5 1514.8 317.7 1509 324.3 1503.4 330 1502.1 330.4 1500.7 330.8 1502.1 328.7 1504.8 325.6 1510.8 319.2 1512.5 316.1 1520.4 297.7 1528 280 1529.9 252.6 1525.1 234.2 1521.2 218.8 1510 197.1 1499.9 185.3 1493.1 177.3 1474.4 157 1455.1 149 1455.1 149 1457.8 143.9 1457.8 143.9 1462 145.2 1465.9 146.9 1469 149 1485.9 160 1517.9 191.8 1528.2 218.8M1449.3 161.5C1462.9 166.9 1478.3 177.3 1486.7 187.8 1502.5 208 1515.3 240 1515.3 260.4 1515.3 282.4 1502.9 314.7 1489.4 327.7L1482.5 334.3 1490.3 322C1512 288 1513.2 247.9 1493.9 209.9 1485.7 193.3 1470.3 174.6 1446.7 167.6 1446.7 167.6 1449.3 161.5 1449.3 161.5M1324.7 373.4C1344.3 386.7 1346.1 385.9 1363.2 392.9 1374.4 397.5 1395.1 396.3 1395.1 396.3 1395.1 396.3 1378.9 403.9 1363.2 400.1 1347.4 396.3 1315.9 374.3 1305 368.1 1294 361.9 1266.9 329.1 1261.6 313.8 1251.3 284.7 1252 254.5 1263.3 231.8 1266.5 225.5 1268.6 221.7 1268 223.6 1260.2 252.2 1259.9 280.5 1266.9 307.6 1271.1 323.2 1280.2 333.3 1287.4 340.9 1294.5 348.6 1305.2 360 1324.7 373.4M1407.5 427.3C1407.5 427.3 1378.3 425.2 1352.7 416.8 1327.1 408.4 1320.1 399.9 1315.9 398.6 1311.8 397.3 1301.7 397.2 1309.7 403.4 1313.5 406.2 1327.4 414.8 1347.9 423.5 1368.4 432.1 1407.5 427.3 1407.5 427.3M1213.6 285C1209.2 254.2 1217.2 208.4 1231.7 179.7 1239.1 165.2 1246.9 154 1240.6 166.9 1234 180.8 1223.7 218.3 1221.4 236.7 1219.7 251.4 1219.9 259.4 1222.2 279.7 1225.2 305.4 1233.8 332.8 1240.4 343.8 1244.1 349.9 1261.2 370 1262.4 376 1263.5 382 340.2 1543.6 330.1 1556 320.1 1568.4 330.1 1546.5 330.1 1546.5L1252.7 379.9C1252.7 379.9 1254.1 377.8 1254.1 376 1247.7 366.1 1239.2 356.9 1233.8 346.7 1223.1 326.7 1216.7 306.3 1213.6 285M1259.7 340.6C1250.3 325.7 1249.7 319.4 1244.9 301.5 1235.5 265.4 1239.3 215.4 1254.1 180.2 1239.2 204.3 1230.9 235.5 1230.9 260.8 1230.9 282.1 1237.8 315.1 1245.9 331 1249.7 338.8 1248.6 339 1257.6 351 1263.9 359.3 1274.8 369.3 1276.1 373 1277.5 376.7 321.4 1576.4 318.2 1582.8 314.9 1589.5 318.2 1593.3 318.2 1593.3 318.2 1593.3 1284.6 375 1285.7 370.9 1286.9 366.7 1269.1 355.4 1259.7 340.6M1353.1 436.4C1365.7 439.9 1396.9 446.1 1396.9 446.1 1396.9 446.1 1372.4 450.2 1336.6 440.1 1331.3 438.6 1326.6 435.2 1321.8 436.4 1316.9 437.5 401.5 1595.6 396.9 1600.9 394 1604.2 389.1 1608.3 390.5 1600.9 391.9 1593.5 1317.9 425.7 1320.8 425.7 1323.7 425.7 1325.1 425.6 1329.6 428.3 1334.2 430.9 1341.3 433.1 1353.1 436.4M325.3 1603.5C333.7 1592.8 1290.9 383 1293.8 379.4 1296.9 375.5 1307.7 368.9 1297.7 381.5 1287.6 394.2 342.5 1590.1 334.6 1599.2 326.8 1608.3 317 1614.2 325.3 1603.5M390.9 1622.3C390.9 1626.1 517.4 1609.9 607.1 1582.2 696.8 1554.6 764.8 1510.2 764.8 1510.2 764.8 1510.2 669.3 1560.8 565.8 1588.9 462.3 1617.1 390 1615.9 406.2 1609 422.4 1602 482.3 1609 587.5 1576.3 692.7 1543.6 778.1 1489.9 778.1 1489.9 778.1 1489.9 649.5 1556.5 570.8 1577.2 492.1 1598 411.7 1605.6 419.6 1596.1 427.4 1586.5 426.2 1583.6 426.2 1583.6 426.2 1583.6 390.9 1618.5 390.9 1622.3M342.5 1148.9C342.5 1148.9 305.3 1251 305.3 1370.8 305.3 1490.6 316.1 1516.3 313.7 1522.5 311.3 1528.7 295 1552.7 295 1552.7L326.4 1513.9C326.4 1513.9 322 1517.2 319.9 1504.7 317.7 1492.2 307 1430.2 311.5 1344.5 316 1258.8 342.5 1148.9 342.5 1148.9M316 937.9C316 937.9 338.4 878.8 405.2 797.6 472 716.5 507.8 696.9 507.8 696.9 507.8 696.9 453.3 741.8 397.5 813.9 341.7 885.9 316 937.9 316 937.9M386.9 916.7C386.9 916.7 374.3 945.4 365.7 949.2 357.1 953 357.1 952.5 343.2 957.4 329.2 962.3 315.8 967.8 324.1 961.7 332.4 955.7 357.3 946.3 365 942.6 372.6 938.9 386.9 916.7 386.9 916.7M407.9 987C409.8 980.9 414.7 968.9 414.7 968.9 414.7 968.9 416.9 996 422.8 1010.4 428.8 1024.7 430.3 1035.8 430.3 1035.8 430.3 1035.8 422 1022.6 417 1009.3 412 996.1 407.6 995 409.8 1001.1 412.1 1007.2 415.4 1013.4 422.1 1030.7 428.8 1048 447.4 1091.3 440.7 1081.5 435.8 1074.2 425.5 1052.4 418.4 1035.8 410.6 1017.5 406.3 1004.8 404.9 1006.6 402.4 1009.9 400.8 1014.3 400.8 1014.3 400.8 1014.3 405.1 996 407.9 987M987.8 1463.9C987.8 1463.9 925.3 1398 878.6 1337.9 831.8 1277.8 802.7 1211.9 802.7 1211.9 802.7 1211.9 810.3 1259.6 867.6 1333.1 924.8 1406.6 987.8 1463.9 987.8 1463.9M1077.1 1337.9C1077.1 1337.9 991.2 1307.3 943 1282 894.8 1256.7 829 1215.2 829 1215.2 829 1215.2 865.2 1246.2 936.8 1285.4 1008.4 1324.5 1077.1 1337.9 1077.1 1337.9M1050.8 1350.8C1050.8 1350.8 996.4 1326.9 936.1 1292.1 875.7 1257.3 821.3 1213.8 821.3 1213.8 821.3 1213.8 842.3 1238.2 916.8 1286.9 991.3 1335.5 1050.8 1350.8 1050.8 1350.8M987.8 1439.1C987.8 1439.1 935.8 1388 887.6 1328.4 839.4 1268.7 801.5 1199 801.5 1199 801.5 1199 823.2 1256.8 880.4 1330.3 937.7 1403.8 987.8 1439.1 987.8 1439.1M1034.8 1433.7C1033.8 1443.1 1037.8 1482.5 1037.8 1482.5 1037.8 1482.5 1026.5 1428 1025.1 1420.8 1023.7 1413.7 1022.7 1418 1022.7 1419.5 1022.7 1430 1026.5 1465.7 1026.5 1465.7 1026.5 1465.7 1019.1 1425.7 1015.2 1410.4 1013.5 1403.7 1005.4 1389.6 1005.4 1389.6L1042.6 1434.7C1042.6 1434.7 1035.4 1427.2 1034.8 1433.7M1080.3 1384.2C1070.7 1384.2 1059.5 1378.7 1059.5 1378.7L1114.6 1409.5C1114.6 1409.5 1103.7 1401.8 1102.5 1399.2 1101.3 1396.6 1123.4 1392.3 1136.3 1389.7 1183.6 1380.1 1190.2 1377.7 1190.2 1377.7 1190.2 1377.7 1109.9 1389.7 1097.9 1390.9 1086 1392 1080.5 1389.2 1092.4 1388.2 1104.4 1387.3 1126.3 1381.8 1126.3 1381.8 1126.3 1381.8 1089.8 1384.2 1080.3 1384.2M747.1 1826.6C745.2 1817.6 742.4 1823.4 742.4 1826.6 742.4 1836.9 757.2 1860.4 762.3 1868.1 766.7 1874.6 768.5 1863.8 759 1854.3 755.7 1851 749 1835.7 747.1 1826.6M661.4 1826.4C657.8 1817.8 656.2 1824.1 656.8 1827.3 658.7 1837.3 677.8 1857.6 684.3 1864.2 689.8 1869.7 689.6 1858.8 678.4 1851.3 674.5 1848.6 665 1834.9 661.4 1826.4M574.3 1843C568.7 1835.7 568.7 1842.2 570.1 1845.1 574.6 1854.3 598.2 1869 606.3 1873.6 613 1877.5 610 1867.1 597.2 1862.7 592.8 1861.1 580 1850.3 574.3 1843M492.5 1877.4C486 1870.8 486.8 1877.2 488.6 1879.9 494.2 1888.5 519.4 1900.2 527.9 1903.9 535.1 1906.9 530.8 1896.9 517.6 1894.1 513 1893.1 499.1 1883.9 492.5 1877.4M416.5 1911.2C411 1903.7 410.9 1910.2 412.2 1913.1 416.4 1922.5 439.4 1938 447.3 1943 453.9 1947.1 451.2 1936.5 438.6 1931.7 434.2 1930 421.9 1918.7 416.5 1911.2M331.2 1923.4C327.9 1914.7 326 1920.9 326.5 1924.1 328.1 1934.3 346.4 1955.2 352.7 1962 358 1967.7 358.2 1956.8 347.3 1948.8 343.5 1946.1 334.5 1932 331.2 1923.4M240 1913.6C239.5 1904.4 235.8 1909.7 235.3 1912.9 233.7 1923 244.6 1948.6 248.5 1957 251.8 1964.1 255.3 1953.7 247.4 1942.8 244.7 1939 240.4 1922.9 240 1913.6M163.9 1877C165.2 1867.9 160.5 1872.4 159.4 1875.4 155.9 1885.1 161.8 1912.3 164 1921.3 165.9 1928.8 171.3 1919.4 165.6 1907.1 163.6 1902.9 162.5 1886.2 163.9 1877M98.9 1818.8C102.7 1810.3 97 1813.4 95.1 1816 89.1 1824.3 87.2 1852 86.9 1861.3 86.6 1869.1 94.4 1861.5 92.3 1848.2 91.6 1843.5 95.1 1827.2 98.9 1818.8M65.4 1752.9C71.6 1746 65.2 1747.2 62.6 1749.1 54.3 1755.1 43.93 1780.9 40.74 1789.6 38.1 1796.9 47.86 1792.1 49.97 1778.8 50.71 1774.1 59.1 1759.7 65.4 1752.9M50.5 1681.2C59 1677.6 52.74 1676 49.59 1676.6 39.49 1678.5 19.2 1697.6 12.64 1704.1 7.14 1709.6 18 1709.4 25.59 1698.2 28.2 1694.3 41.95 1684.8 50.5 1681.2M52.4 1591.3C61.5 1589.4 55.65 1586.6 52.4 1586.6 42.1 1586.6 18.61 1601.4 10.91 1606.5 4.47 1610.9 15.2 1612.7 24.75 1603.2 28.1 1599.9 43.4 1593.2 52.4 1591.3M70.7 1518.7C79.92 1519.2 74.99 1515 71.88 1514.2 61.95 1511.5 35.39 1519.7 26.61 1522.7 19.27 1525.2 29.2 1529.8 40.84 1523.1 44.91 1520.7 61.4 1518.2 70.7 1518.7M101.4 1454.9C110.3 1457.5 106.4 1452.3 103.6 1450.8 94.5 1445.9 66.8 1447.9 57.6 1448.9 49.85 1449.7 58.4 1456.4 71.4 1452.4 75.85 1451.1 92.5 1452.3 101.4 1454.9M157.8 1387.3C166.6 1390.3 163 1384.9 160.3 1383.2 151.4 1377.9 123.7 1378.5 114.4 1379 106.6 1379.3 114.9 1386.5 128 1383.2 132.5 1382.1 149.1 1384.2 157.8 1387.3M207.5 1344.1C216.8 1346.9 218 1345.4 215.6 1343.3 208 1336.4 182 1331.8 172.8 1330.5 165.1 1329.4 161.4 1333.6 171.3 1334.7 181.2 1335.8 198.2 1341.4 207.5 1344.1M408.2 1254C417 1258 418.4 1256.8 416.3 1254.3 409.7 1246.5 384.6 1238.3 375.7 1235.7 368.2 1233.6 363.9 1237.2 373.6 1239.6 383.2 1242.1 399.4 1250 408.2 1254M332.5 1278.8C332.5 1278.8 342.6 1282.7 346.2 1284.8 354.2 1289.4 351.7 1283.4 349.3 1281.3 346.3 1278.6 333.4 1274.2 333.4 1274.2L332.5 1278.8M458.8 658.5C462.3 649.5 461 648.2 458.6 650.4 451.1 657.4 444.3 682.9 442.2 691.9 440.4 699.5 444.3 703.6 446.2 693.8 448.1 684 455.2 667.5 458.8 658.5M574 162.7C569.5 171.1 570.6 172.4 573.1 170.4 581.2 164.1 590.9 140.1 594 131.6 596.7 124.5 593.5 120.4 590.4 129.6 587.3 138.8 578.5 154.2 574 162.7M530.7 96.7C533.2 106.1 535 106.3 535.6 103.2 537.6 93.1 528.1 68.4 524.5 59.9 521.5 52.75 516 51.68 520.1 60.72 524.3 69.76 528.3 87.3 530.7 96.7M468.6 76.91C474.2 84.8 476.1 84.4 475.5 81.2 473.7 71.1 456 51.5 449.6 44.81 444.2 39.2 438.7 40.2 445.8 47.1 453 54.1 462.9 69 468.6 76.91M401.5 89.5C411.1 91.2 412.1 89.7 409.5 87.8 401.2 81.7 374.9 79.88 365.6 79.5 357.8 79.3 354.5 83.8 364.5 83.9 374.4 83.9 392 87.7 401.5 89.5M358 154.4C367.6 153.3 368.1 151.5 365.1 150.5 355.4 147.1 329.7 153.1 320.7 155.5 313.2 157.5 311.4 162.8 320.9 159.9 330.4 157 348.3 155.5 358 154.4M336.4 228.1C345.7 225.3 346 223.5 342.8 223 332.6 221.4 308.3 231.7 299.9 235.6 292.9 238.9 292 244.4 300.9 239.9 309.8 235.4 327.1 230.8 336.4 228.1M331.8 319.2C341.5 318.3 342 316.5 339 315.4 329.3 311.9 303.5 317.4 294.5 319.6 287 321.5 285.1 326.8 294.6 324.1 304.2 321.4 322.1 320.2 331.8 319.2M341.3 389C350.2 385 350.1 383.1 346.9 383 336.6 382.9 314 396.5 306.2 401.5 299.7 405.7 299.6 411.4 307.8 405.7 316 400 332.5 393 341.3 389M355.9 457.4C362.4 450.1 361.6 448.4 358.6 449.7 349.1 453.7 334 475.3 328.9 483.1 324.7 489.6 326.9 494.8 332.1 486.3 337.2 477.8 349.5 464.7 355.9 457.4M376.4 507.1C381.3 498.7 380.2 497.2 377.5 499 369 504.7 358.3 528.9 354.8 537.5 351.9 544.7 355 549.3 358.4 540 361.9 530.6 371.5 515.4 376.4 507.1M414.6 586C418.2 576.9 416.9 575.6 414.5 577.8 407 584.8 400.2 610.3 398.1 619.4 396.3 626.9 400.2 631 402.1 621.3 404 611.5 411.1 595 414.6 586M544.2 805.5C547.7 796.5 546.4 795.1 544.1 797.3 536.6 804.4 529.7 829.9 527.6 838.9 525.9 846.5 529.7 850.6 531.6 840.8 533.6 831 540.6 814.5 544.2 805.5M591 896.5C597.3 889.1 596.5 887.4 593.5 888.7 584.1 892.9 569.4 914.8 564.4 922.6 560.3 929.2 562.6 934.4 567.6 925.8 572.6 917.1 584.7 903.8 591 896.5M612.1 993.1C620.3 987.9 620 986 616.8 986.4 606.6 987.7 586.1 1004.3 579.1 1010.4 573.2 1015.4 573.9 1021 581.2 1014.3 588.5 1007.5 604 998.3 612.1 993.1M599.8 1081.2C609.4 1079.7 609.8 1077.9 606.8 1077 596.9 1074 571.4 1080.8 562.6 1083.5 555.1 1085.8 553.5 1091.2 562.9 1088 572.3 1084.8 590.2 1082.6 599.8 1081.2M547.8 1158.6C557.2 1160.8 558.3 1159.3 555.8 1157.3 547.8 1150.8 521.6 1147.6 512.4 1146.8 504.7 1146.1 501.1 1150.5 511.1 1151.1 521 1151.6 538.3 1156.3 547.8 1158.6M484.2 1210.1C493.4 1213.3 494.6 1211.9 492.4 1209.7 485.1 1202.4 459.4 1196.4 450.3 1194.7 442.7 1193.2 438.7 1197.2 448.5 1198.8 458.3 1200.3 475.1 1206.8 484.2 1210.1M1251.1 1826.6C1253 1817.6 1255.8 1823.4 1255.8 1826.6 1255.8 1836.9 1241 1860.4 1235.8 1868.1 1231.4 1874.6 1229.5 1863.8 1239.1 1854.3 1242.5 1851 1249.2 1835.7 1251.1 1826.6M1337.2 1826.4C1340.8 1817.8 1342.5 1824.1 1341.8 1827.3 1339.9 1837.4 1320.8 1857.6 1314.2 1864.2 1308.7 1869.7 1308.9 1858.8 1320.2 1851.3 1324.1 1848.6 1333.6 1834.9 1337.2 1826.4M1424.7 1843C1430.4 1835.7 1430.3 1842.2 1428.9 1845.1 1424.4 1854.3 1400.7 1869 1392.7 1873.6 1385.9 1877.5 1389 1867 1401.8 1862.7 1406.2 1861.1 1419 1850.3 1424.7 1843M1506.9 1877.4C1513.4 1870.8 1512.6 1877.3 1510.9 1880 1505.3 1888.6 1480 1900.2 1471.4 1903.8 1464.3 1906.9 1468.5 1896.8 1481.8 1894.1 1486.4 1893.1 1500.3 1883.9 1506.9 1877.4M1583.3 1911.3C1588.8 1903.7 1589 1910.2 1587.7 1913.2 1583.5 1922.6 1560.3 1938 1552.4 1942.9 1545.8 1947.1 1548.5 1936.5 1561.1 1931.7 1565.5 1930 1577.9 1918.8 1583.3 1911.3M1669.1 1923.4C1672.4 1914.7 1674.3 1920.9 1673.8 1924.1 1672.2 1934.3 1653.8 1955.2 1647.4 1962 1642.1 1967.7 1642 1956.8 1652.9 1948.8 1656.7 1946.1 1665.8 1932 1669.1 1923.4M1760.8 1913.6C1761.3 1904.4 1765 1909.7 1765.5 1912.9 1767.1 1923 1756.1 1948.6 1752.1 1957 1748.8 1964.1 1745.3 1953.8 1753.3 1942.8 1756.1 1939 1760.3 1922.9 1760.8 1913.6M1837.3 1877C1836 1867.8 1840.6 1872.4 1841.7 1875.4 1845.3 1885.1 1839.3 1912.3 1837.1 1921.3 1835.2 1928.8 1829.8 1919.4 1835.5 1907.1 1837.5 1902.9 1838.6 1886.2 1837.3 1877M1902.6 1818.7C1898.8 1810.3 1904.5 1813.4 1906.4 1816 1912.4 1824.3 1914.2 1852.1 1914.6 1861.3 1914.8 1869.1 1907 1861.5 1909.1 1848.2 1909.9 1843.5 1906.3 1827.2 1902.6 1818.7M1936.3 1752.8C1930.1 1746 1936.5 1747.1 1939.1 1749 1947.4 1755.1 1957.7 1780.9 1960.9 1789.7 1963.6 1797 1953.8 1792.2 1951.7 1778.8 1951 1774.1 1942.5 1759.7 1936.3 1752.8M1951.3 1681.2C1942.8 1677.6 1949 1675.9 1952.2 1676.5 1962.3 1678.5 1982.6 1697.6 1989.1 1704.1 1994.6 1709.7 1983.7 1709.4 1976.2 1698.2 1973.6 1694.3 1959.8 1684.8 1951.3 1681.2M1949.4 1591.2C1940.3 1589.3 1946.1 1586.5 1949.4 1586.5 1959.6 1586.5 1983.2 1601.4 1990.9 1606.6 1997.3 1610.9 1986.6 1612.8 1977 1603.2 1973.7 1599.9 1958.4 1593.1 1949.4 1591.2M1931 1518.7C1921.8 1519.2 1926.7 1514.9 1929.8 1514.1 1939.7 1511.5 1966.3 1519.7 1975.1 1522.8 1982.4 1525.3 1972.6 1529.9 1960.9 1523.1 1956.8 1520.7 1940.3 1518.2 1931 1518.7M1900.1 1454.9C1891.2 1457.4 1895.1 1452.2 1897.9 1450.7 1907 1445.9 1934.7 1448 1944 1448.9 1951.7 1449.8 1943.1 1456.5 1930.2 1452.5 1925.7 1451.1 1909 1452.3 1900.1 1454.9M1843.4 1387.2C1834.6 1390.2 1838.2 1384.8 1841 1383.2 1849.8 1377.9 1877.6 1378.5 1886.9 1379 1894.7 1379.4 1886.4 1386.5 1873.3 1383.2 1868.7 1382.1 1852.2 1384.2 1843.4 1387.2M1793.4 1344.1C1784.1 1346.8 1782.9 1345.4 1785.3 1343.2 1792.9 1336.4 1819 1331.8 1828.2 1330.5 1835.9 1329.5 1839.7 1333.7 1829.8 1334.7 1819.8 1335.8 1802.7 1341.4 1793.4 1344.1M1591.8 1254C1582.9 1258 1581.5 1256.8 1583.6 1254.3 1590.2 1246.4 1615.4 1238.3 1624.3 1235.7 1631.8 1233.6 1636.1 1237.3 1626.4 1239.7 1616.7 1242.1 1600.6 1250 1591.8 1254M1667.8 1278.8C1667.8 1278.8 1657.6 1282.7 1654.1 1284.8 1646 1289.4 1648.5 1283.4 1650.9 1281.3 1653.9 1278.6 1666.8 1274.2 1666.8 1274.2L1667.8 1278.8M1540.9 658.5C1537.4 649.4 1538.7 648.1 1541.1 650.3 1548.6 657.3 1555.4 682.9 1557.5 691.9 1559.2 699.5 1555.3 703.6 1553.4 693.9 1551.5 684.1 1544.5 667.5 1540.9 658.5M1425 162.7C1429.5 171.1 1428.4 172.5 1425.8 170.5 1417.7 164.2 1408.1 140.1 1405 131.6 1402.4 124.5 1405.6 120.4 1408.6 129.6 1411.7 138.8 1420.5 154.2 1425 162.7M1468.5 96.7C1466.1 106.1 1464.2 106.4 1463.6 103.2 1461.6 93.1 1471.2 68.4 1474.8 59.9 1477.9 52.74 1483.4 51.67 1479.2 60.71 1475 69.76 1471 87.3 1468.5 96.7M1531 76.9C1525.3 84.8 1523.5 84.4 1524.1 81.2 1525.9 71.1 1543.6 51.5 1550.1 44.82 1555.5 39.2 1561 40.2 1553.9 47.2 1546.7 54.1 1536.7 69 1531 76.9M1598.5 89.4C1588.9 91.2 1587.9 89.6 1590.5 87.7 1598.8 81.7 1625.2 79.89 1634.4 79.6 1642.2 79.3 1645.5 83.9 1635.6 83.9 1625.6 83.92 1608 87.7 1598.5 89.4M1642.3 154.4C1632.6 153.3 1632.1 151.5 1635.1 150.4 1644.8 147.1 1670.6 153.1 1679.6 155.5 1687.1 157.5 1688.9 162.9 1679.4 160 1669.8 157.1 1651.9 155.5 1642.3 154.4M1663.9 228C1654.6 225.3 1654.4 223.4 1657.5 222.9 1667.7 221.3 1692 231.7 1700.4 235.6 1707.5 238.9 1708.4 244.5 1699.5 240 1690.6 235.5 1673.2 230.8 1663.9 228M1668.6 319.2C1658.9 318.3 1658.3 316.5 1661.3 315.4 1671 311.9 1696.8 317.4 1705.9 319.7 1713.4 321.6 1715.3 326.9 1705.7 324.1 1696.2 321.4 1678.2 320.2 1668.6 319.2M1659 389C1650.1 384.9 1650.2 383 1653.4 383 1663.7 382.8 1686.3 396.5 1694.1 401.5 1700.6 405.8 1700.7 411.4 1692.5 405.7 1684.4 400 1667.8 393 1659 389M1644.3 457.4C1637.9 450.1 1638.7 448.4 1641.6 449.6 1651.1 453.7 1666.2 475.3 1671.3 483.1 1675.5 489.7 1673.3 494.9 1668.1 486.3 1663 477.8 1650.7 464.7 1644.3 457.4M1623.8 507C1618.8 498.7 1619.9 497.1 1622.6 498.9 1631.1 504.7 1641.8 528.9 1645.3 537.5 1648.2 544.7 1645 549.4 1641.6 540 1638.2 530.6 1628.7 515.4 1623.8 507M1585.3 585.9C1581.7 576.9 1583.1 575.6 1585.4 577.8 1592.9 584.8 1599.7 610.3 1601.8 619.4 1603.5 627 1599.7 631.1 1597.8 621.3 1595.8 611.5 1588.8 595 1585.3 585.9M1455.1 805.5C1451.5 796.4 1452.9 795.1 1455.2 797.3 1462.7 804.3 1469.5 829.9 1471.6 838.9 1473.3 846.5 1469.5 850.6 1467.6 840.8 1465.7 831.1 1458.6 814.5 1455.1 805.5M1408.1 896.4C1401.8 889 1402.6 887.3 1405.5 888.6 1414.9 892.8 1429.7 914.8 1434.6 922.7 1438.7 929.3 1436.4 934.4 1431.4 925.8 1426.4 917.2 1414.4 903.8 1408.1 896.4M1386.8 993.1C1378.6 987.8 1378.9 986 1382.1 986.4 1392.3 987.6 1412.8 1004.3 1419.8 1010.4 1425.7 1015.5 1425 1021.1 1417.7 1014.3 1410.4 1007.5 1395 998.3 1386.8 993.1M1399.2 1081.2C1389.6 1079.7 1389.1 1077.9 1392.2 1076.9 1402.1 1073.9 1427.6 1080.8 1436.5 1083.6 1443.9 1085.8 1445.5 1091.3 1436.1 1088 1426.7 1084.8 1408.8 1082.6 1399.2 1081.2M1451.5 1158.5C1442 1160.8 1440.9 1159.3 1443.4 1157.3 1451.4 1150.8 1477.6 1147.6 1486.9 1146.8 1494.6 1146.2 1498.2 1150.6 1488.2 1151.1 1478.3 1151.6 1460.9 1156.3 1451.5 1158.5M1515.3 1210C1506.2 1213.3 1504.9 1211.9 1507.2 1209.6 1514.4 1202.3 1540.2 1196.5 1549.3 1194.7 1557 1193.2 1561 1197.2 1551.1 1198.8 1541.3 1200.4 1524.5 1206.8 1515.3 1210" />
	</g>
</svg>
